<svg width="96" height="33" viewBox="0 0 96 33" fill="none" xmlns="http://www.w3.org/2000/svg">
<path d="M67.0514 4.20569C64.9269 3.16444 62.4084 3.14117 59.6558 4.14751C57.7483 4.85138 55.6753 6.71282 54.7673 8.10309C53.7107 9.72604 52.7742 10.9476 52.2659 11.3664C51.672 11.8609 50.3356 12.8382 49.0963 13.3675C48.4396 13.6584 48.1198 13.7165 47.9713 13.7165C47.9427 13.7165 47.9199 13.7107 47.9085 13.7107C47.9485 13.3442 48.5081 12.0412 49.3362 11.3548C49.6674 11.0756 50.2785 10.7208 50.9238 10.3368C52.2031 9.58644 53.6593 8.72552 54.2761 7.80061C55.6239 5.79955 55.5154 3.57163 54.0077 2.13482C52.7913 0.971418 50.2385 0.116315 47.6686 0.0057916C45.2187 -0.0989149 43.0028 1.11684 42.4489 2.82123C41.9349 4.42673 42.94 5.75883 44.4705 7.77734L44.7161 8.10891C45.9896 9.79003 45.9554 10.68 45.9154 11.8027C45.9097 12.0412 45.8983 12.2972 45.8983 12.5706C45.9154 13.9725 44.145 18.7366 42.4774 20.0862C42.4603 20.0978 42.4432 20.1153 42.426 20.1269C42.4546 19.9117 42.5117 19.6324 42.5517 19.4405C42.5802 19.2951 42.6031 19.1496 42.6259 19.0158C42.6944 18.6145 42.7858 18.3469 42.94 17.8641C43.1285 17.2824 43.414 16.404 43.8652 14.6647C44.699 11.4188 44.2764 8.7546 42.6202 6.74773C40.9012 4.66523 38.8567 3.74032 36.007 3.74032C35.236 3.74032 34.3965 3.80431 33.4428 3.94392C30.3075 4.39183 27.1837 6.86988 27.6177 10.0983C28.046 13.2453 36.2526 15.8863 37.1891 16.1771C39.0166 16.7472 39.4906 17.7652 40.1702 19.5219C40.7927 21.1274 40.4558 21.7731 39.6106 22.7678C38.7197 23.8149 36.9322 26.4791 35.9213 29.1549C35.8871 29.248 35.8871 29.3411 35.927 29.4283L36.8522 31.854C36.915 32.0111 37.0692 32.1158 37.2348 32.0925C37.4004 32.0809 37.5318 31.9529 37.5661 31.79C37.5718 31.7435 38.5712 26.6478 41.1696 23.9661C42.4603 22.6398 43.7338 22.2036 44.9388 22.6864C46.161 23.175 46.8463 25.4262 47.3431 27.0724C47.4687 27.4854 47.583 27.8752 47.7029 28.2009C48.1769 29.533 49.0564 32.0169 53.2881 32.8313C53.8649 32.9418 54.4303 33 54.9671 33C58.1024 33 59.9071 31.1734 60.0727 29.3585C60.2611 27.2644 59.0561 25.211 56.2749 22.8958C53.5565 20.6388 50.6726 20.4585 49.8559 20.4585C49.616 20.4585 49.3876 20.4701 49.1763 20.4934C48.1369 20.6155 47.4402 20.6388 46.7663 20.6621C46.3151 20.6795 45.8811 20.697 45.3557 20.7319C45.3386 20.7319 45.3272 20.7319 45.3157 20.7319C45.133 20.2665 46.258 17.9979 46.7149 17.4627C46.8691 17.2824 48.2797 15.6827 49.8502 15.3918C50.4156 15.2871 50.8839 15.2348 51.3236 15.2348C52.066 15.2348 52.8027 15.3744 53.7907 15.7059C55.2241 16.1771 56.075 16.8112 57.6341 19.4812C59.3131 22.3723 60.8722 23.6171 63.0309 23.7858C63.1623 23.7916 63.2993 23.7974 63.425 23.7974C65.4123 23.7974 66.9086 22.5526 67.3483 21.3252C67.988 19.5685 67.2969 17.6372 65.2981 15.5896C63.5049 13.7514 61.2605 12.6753 58.6221 12.3961C58.1081 12.3379 57.5028 12.3088 56.886 12.3088C56.2178 12.3088 55.5896 12.3437 55.0985 12.4019C57.1087 10.8487 58.348 10.5113 59.0333 10.5113H59.0561C61.1235 10.5404 62.5284 11.3781 63.8818 12.1925C64.8298 12.7625 65.7322 13.2977 66.8001 13.5304C67.1656 13.6118 67.5197 13.6467 67.8566 13.6467C69.9982 13.6467 71.1175 12.0296 71.2774 10.4183C71.5002 8.45793 70.0953 5.68903 67.0514 4.20569ZM70.5636 10.3543C70.4436 11.5293 69.6727 12.9021 67.8795 12.9021C67.5996 12.9021 67.2912 12.8672 66.9771 12.7974C66.0291 12.5938 65.1839 12.0819 64.2873 11.5468C62.911 10.7266 61.3576 9.79003 59.0904 9.76095H59.0561C57.8226 9.76095 56.2235 10.5521 54.3047 12.1052C54.2419 12.1517 54.2019 12.1866 54.1905 12.1925C53.9963 12.3146 53.6936 12.6171 53.7907 12.9545C53.8193 13.0592 53.9335 13.3035 54.3332 13.3035C54.4417 13.3035 54.5788 13.2861 54.7444 13.2453C55.2013 13.1406 56.0065 13.0825 56.9031 13.0825C57.4971 13.0825 58.0739 13.1116 58.565 13.1581C61.0549 13.4257 63.0937 14.3971 64.7899 16.1364C66.5659 17.9571 67.1999 19.6208 66.6687 21.0751C66.3832 21.872 65.281 23.0587 63.4421 23.0587C63.3279 23.0587 63.2194 23.0529 63.1052 23.0412C61.1977 22.89 59.8499 21.7906 58.2909 19.1089C56.7775 16.5087 55.8238 15.578 54.0363 14.9905C52.9683 14.6356 52.1574 14.4844 51.335 14.4844C50.8496 14.4844 50.3356 14.5367 49.7303 14.6472C47.9485 14.9788 46.4465 16.6367 46.1667 16.9682C45.824 17.3696 44.2135 20.0804 44.6533 21.0692C44.7789 21.3659 45.053 21.523 45.4185 21.4939C45.9268 21.4532 46.3494 21.4415 46.7949 21.4241C47.4859 21.4008 48.1883 21.3717 49.262 21.2554C49.4447 21.2379 49.6446 21.2263 49.8559 21.2263C50.6097 21.2263 53.271 21.3892 55.8009 23.4949C58.3765 25.6356 59.4959 27.4796 59.3303 29.3003C59.1989 30.772 57.657 32.2554 54.9671 32.2554C54.476 32.2554 53.9563 32.203 53.4252 32.0983C49.9016 31.4236 48.9878 29.6028 48.3996 27.9508C48.2911 27.6483 48.1769 27.2644 48.0513 26.863C47.5144 25.0714 46.7663 22.6166 45.2072 22C44.8018 21.8371 44.3849 21.7557 43.968 21.7557C42.8543 21.7557 41.7293 22.3315 40.6385 23.4542C38.6568 25.496 37.5775 28.7303 37.1149 30.4754L36.6695 29.312C37.6574 26.7583 39.3364 24.2628 40.1759 23.2681C41.2039 22.064 41.5922 21.1158 40.867 19.2485C40.2502 17.6663 39.6734 16.1655 37.4119 15.4558C33.9282 14.368 28.6342 12.018 28.3601 9.99944C28.0003 7.32361 30.7473 5.09569 33.5513 4.69431C34.4651 4.56052 35.276 4.49654 36.007 4.49654C38.6511 4.49654 40.4615 5.31674 42.0491 7.23054C43.5454 9.03963 43.9109 11.4712 43.1456 14.4669C42.7002 16.1771 42.4203 17.0439 42.2376 17.6197C42.0834 18.1026 41.9749 18.4225 41.8949 18.8762C41.8721 19.01 41.8492 19.1438 41.8207 19.2776C41.6608 20.0629 41.5808 20.5573 41.8207 20.854C41.9178 20.9762 42.0605 21.0402 42.2204 21.0402C42.4317 21.0402 42.6602 20.918 42.9571 20.6504C44.8189 19.1438 46.6635 14.147 46.6464 12.5473C46.6464 12.2914 46.6521 12.047 46.6635 11.8144C46.7092 10.587 46.7435 9.52826 45.31 7.6261L45.0588 7.29453C43.6253 5.39818 42.763 4.25804 43.157 3.03646C43.5968 1.66364 45.5442 0.645665 47.6344 0.73292C50.0444 0.837627 52.403 1.61129 53.5052 2.65836C54.9957 4.08353 54.5674 6.01478 53.6708 7.3527C53.1511 8.13218 51.7119 8.98146 50.5583 9.65624C49.8559 10.0634 49.2505 10.4241 48.8736 10.7382C47.9085 11.541 46.9548 13.4315 47.2232 13.9957C47.3203 14.2052 47.5316 14.4437 47.977 14.4437C48.3025 14.4437 48.7537 14.3157 49.3933 14.0365C50.7068 13.4722 52.1174 12.4426 52.7399 11.9249C53.5166 11.2792 54.733 9.49918 55.3897 8.49283C56.2121 7.23054 58.1709 5.46798 59.9071 4.82811C61.1863 4.36274 62.3684 4.13006 63.5049 4.13006C64.6585 4.13006 65.7436 4.37438 66.7259 4.85719C69.7869 6.38125 70.7006 8.97565 70.5636 10.3543Z" fill="#808587"/>
<path d="M6.17347 21.0693C5.64236 20.2374 5.20833 19.6964 4.84854 19.423C6.16205 18.8588 6.83022 17.9164 6.83022 16.6251C6.83022 15.6827 6.49328 14.9265 5.83082 14.3739C5.17406 13.8271 4.22035 13.5537 2.9925 13.5537H0.119929C0.051398 13.5478 0 13.6002 0 13.67V25.083C0 25.1528 0.051398 25.2168 0.119929 25.2168H0.987983C1.05651 25.2168 1.10791 25.1586 1.10791 25.083V19.7372H2.50137C3.17525 19.7372 3.68352 19.8593 4.02618 20.1036C4.37454 20.3538 4.8771 20.9995 5.51672 22.0233L7.46984 25.1528C7.49268 25.1877 7.53266 25.2168 7.57264 25.2168H8.6006C8.64628 25.2168 8.68626 25.1877 8.7091 25.147C8.73195 25.1063 8.72623 25.0539 8.70339 25.0132L6.17347 21.0693ZM1.11362 14.5367H2.82118C3.74063 14.5367 4.45449 14.7229 4.93421 15.101C5.41392 15.4733 5.64807 15.9735 5.64807 16.6425C5.64807 17.3231 5.41963 17.8292 4.94563 18.1957C4.46591 18.5679 3.76347 18.7541 2.84973 18.7541H1.11362V14.5367Z" fill="black"/>
<path d="M16.7616 24.2221H11.5133V19.8419H16.4989C16.5674 19.8419 16.6245 19.7837 16.6245 19.7139V18.9693C16.6245 18.8995 16.5674 18.8413 16.4989 18.8413H11.5133V14.5309H16.6359C16.7045 14.5309 16.7616 14.4728 16.7616 14.403V13.67C16.7616 13.6002 16.7102 13.5479 16.6359 13.5479H10.5253C10.4568 13.5479 10.3997 13.6002 10.3997 13.67V25.083C10.3997 25.1528 10.4568 25.2168 10.5253 25.2168H16.7673C16.8358 25.2168 16.8929 25.1586 16.8929 25.083V24.3501C16.8872 24.2803 16.8301 24.2221 16.7616 24.2221Z" fill="black"/>
<path d="M27.9376 13.5479H27.0696C27.0182 13.5479 26.9725 13.5769 26.9497 13.6235L23.1234 22.9947L19.2685 13.6235C19.2514 13.5769 19.2057 13.5479 19.1543 13.5479H18.2748C18.2348 13.5479 18.1949 13.5653 18.172 13.6002C18.1492 13.6351 18.1435 13.6816 18.1606 13.7224L22.8778 25.2459C22.8949 25.2924 22.9406 25.3215 22.992 25.3215H23.249C23.3004 25.3215 23.3461 25.2924 23.3632 25.2459L28.0576 13.7224C28.0747 13.6816 28.0747 13.6351 28.0461 13.6002C28.0176 13.5653 27.9833 13.5479 27.9376 13.5479Z" fill="black"/>
<path d="M31.1072 13.5479H30.2392C30.1706 13.5479 30.1135 13.6002 30.1135 13.67V25.083C30.1135 25.1528 30.1706 25.2168 30.2392 25.2168H31.1072C31.1758 25.2168 31.2329 25.1586 31.2329 25.083V13.67C31.2329 13.6002 31.1758 13.5479 31.1072 13.5479Z" fill="black"/>
<path d="M42.8087 14.403V13.67C42.8087 13.6002 42.7573 13.5479 42.6831 13.5479H33.4029C33.3344 13.5479 33.283 13.6002 33.283 13.67V14.403C33.283 14.4728 33.3344 14.5309 33.4029 14.5309H37.4862V25.0772C37.4862 25.147 37.5376 25.211 37.6061 25.211H38.4856C38.5541 25.211 38.6112 25.1528 38.6112 25.0772V14.5367H42.6888C42.7573 14.5367 42.8087 14.4786 42.8087 14.403Z" fill="black"/>
<path d="M47.9144 13.5361C47.8915 13.4895 47.8459 13.4604 47.8002 13.4604H47.3205C47.2748 13.4604 47.2291 13.4895 47.212 13.5361L42.0322 25.0305C42.015 25.0712 42.0208 25.112 42.0436 25.1527C42.0664 25.1876 42.1064 25.2167 42.1464 25.2167H43.0544C43.1058 25.2167 43.1458 25.1818 43.1686 25.141L44.9048 21.2727H50.2273L51.9634 25.141C51.9863 25.1818 52.0262 25.2167 52.0776 25.2167H52.9857C53.0313 25.2167 53.0713 25.1934 53.0885 25.1527C53.1113 25.112 53.1113 25.0712 53.0942 25.0305L47.9144 13.5361ZM49.7761 20.2722H45.3445L47.5546 15.3335L49.7761 20.2722Z" fill="black"/>
<path d="M63.8649 23.1342C62.4543 23.9021 61.1351 24.286 59.9415 24.286C58.5195 24.286 57.3431 23.8206 56.4236 22.9074C55.5156 21.9941 55.053 20.8132 55.053 19.3939C55.053 17.992 55.5099 16.8111 56.4179 15.8746C57.3259 14.938 58.4681 14.461 59.8216 14.461C61.1008 14.461 62.4201 14.8333 63.7564 15.5488C63.7907 15.5721 63.8421 15.5721 63.8763 15.543C63.9163 15.5197 63.9391 15.479 63.9391 15.4383V14.4843C63.9391 14.4378 63.9106 14.3912 63.8649 14.3738C62.4943 13.7339 61.1465 13.4023 59.8787 13.4023C58.2454 13.4023 56.8234 13.984 55.6469 15.1184C54.4648 16.2585 53.8708 17.7011 53.8708 19.3997C53.8708 21.0925 54.4591 22.5234 55.6127 23.6519C56.7663 24.7804 58.234 25.3563 59.9587 25.3563C61.295 25.3563 62.6485 24.9899 63.9906 24.2744C64.0305 24.2511 64.0591 24.2104 64.0591 24.1638V23.2448C64.0591 23.1982 64.0305 23.1575 63.9963 23.1342C63.9563 23.1168 63.9106 23.1168 63.8649 23.1342Z" fill="black"/>
<path d="M71.8429 13.5361C71.8258 13.4895 71.7801 13.4604 71.7287 13.4604H71.2547C71.2033 13.4604 71.1633 13.4895 71.1405 13.5361L65.9664 25.0305C65.9436 25.0712 65.9493 25.112 65.9722 25.1527C65.995 25.1876 66.035 25.2167 66.075 25.2167H66.983C67.0344 25.2167 67.0744 25.1818 67.0972 25.141L68.8276 21.2727H74.1501L75.892 25.141C75.9091 25.1818 75.9548 25.2167 76.0005 25.2167H76.9085C76.9542 25.2167 76.9884 25.1934 77.017 25.1527C77.0398 25.1178 77.0398 25.0771 77.0227 25.0305L71.8429 13.5361ZM73.7104 20.2722H69.273L71.4889 15.3335L73.7104 20.2722Z" fill="black"/>
<path d="M85.2806 21.0691C84.7495 20.2372 84.3155 19.6962 83.9614 19.4228C85.2749 18.8586 85.9431 17.9162 85.9431 16.6249C85.9431 15.6825 85.6062 14.9263 84.9437 14.3737C84.287 13.8269 83.3332 13.5535 82.1111 13.5535H79.2385C79.1643 13.5535 79.1072 13.6058 79.1072 13.6756V25.0886C79.1072 25.1584 79.1643 25.2224 79.2385 25.2224H80.1009C80.1694 25.2224 80.2265 25.1643 80.2265 25.0886V19.7428H81.62C82.2881 19.7428 82.8021 19.8649 83.1448 20.1093C83.4931 20.3594 83.9957 21.0051 84.6296 22.0289L86.5827 25.1584C86.6056 25.1933 86.6455 25.2224 86.6855 25.2224H87.7135C87.7592 25.2224 87.8049 25.1933 87.822 25.1526C87.8448 25.1119 87.8391 25.0595 87.8163 25.0188L85.2806 21.0691ZM80.2265 14.5365H81.9284C82.8478 14.5365 83.5617 14.7227 84.0414 15.1008C84.5268 15.4731 84.7552 15.9734 84.7552 16.6423C84.7552 17.3229 84.5268 17.829 84.0528 18.1955C83.5788 18.5677 82.8764 18.7539 81.9569 18.7539H80.2208V14.5365H80.2265Z" fill="black"/>
<path d="M95.8744 24.2221H90.6261V19.8419H95.6117C95.6802 19.8419 95.7373 19.7837 95.7373 19.7139V18.9693C95.7373 18.8995 95.6802 18.8413 95.6117 18.8413H90.6261V14.5309H95.7487C95.8173 14.5309 95.8744 14.4728 95.8744 14.403V13.67C95.8744 13.6002 95.8173 13.5479 95.7487 13.5479H89.6381C89.5696 13.5479 89.5125 13.6002 89.5125 13.67V25.083C89.5125 25.1528 89.5638 25.2168 89.6381 25.2168H95.8744C95.9429 25.2168 96 25.1586 96 25.083V24.3501C96 24.2803 95.9429 24.2221 95.8744 24.2221Z" fill="black"/>
<path d="M1.96458 10.7905H0.691057V8.21352C0.691057 8.16698 0.656792 8.13208 0.616816 8.13208H0.188499C0.148523 8.13208 0.114258 8.16698 0.114258 8.21352V11.2616C0.114258 11.3024 0.148523 11.3373 0.188499 11.3373H1.96458C2.00456 11.3373 2.03883 11.3024 2.03883 11.2616V10.8603C2.03883 10.8254 2.00456 10.7905 1.96458 10.7905Z" fill="black"/>
<path d="M5.13408 8.16686C5.12266 8.13195 5.09411 8.1145 5.05984 8.1145H4.76288C4.72861 8.1145 4.70577 8.13195 4.68864 8.16686L3.40369 11.2324C3.39227 11.2557 3.39798 11.2848 3.4094 11.3022C3.42082 11.3255 3.44937 11.3371 3.47222 11.3371H3.91196C3.94051 11.3371 3.96906 11.3197 3.98049 11.2906L4.33456 10.4355H5.511L5.88792 11.2964C5.89934 11.3255 5.9279 11.343 5.95645 11.343H6.39048C6.41903 11.343 6.44188 11.3313 6.4533 11.3081C6.47043 11.2848 6.47043 11.2615 6.45901 11.2382L5.13408 8.16686ZM5.27686 9.8887H4.58013L4.91707 9.06268L5.27686 9.8887Z" fill="black"/>
<path d="M9.74289 9.6271C9.9599 9.48167 10.0684 9.27808 10.0684 9.01049C10.0684 8.8418 10.0284 8.68474 9.94848 8.55677C9.86853 8.42879 9.7486 8.32408 9.60012 8.24846C9.45163 8.17284 9.25175 8.13794 8.98905 8.13794H8.20666C8.16097 8.13794 8.12671 8.17284 8.12671 8.21938V11.2675C8.12671 11.3082 8.16097 11.3431 8.20666 11.3431H9.21749C9.45735 11.3431 9.66294 11.3024 9.82284 11.221C9.98275 11.1395 10.1084 11.029 10.1941 10.8952C10.2797 10.7614 10.3254 10.6044 10.3254 10.4298C10.3254 10.2204 10.2569 10.0285 10.1084 9.87141C10.0113 9.76089 9.89137 9.68527 9.74289 9.6271ZM8.70922 9.98775H9.03474C9.23462 9.98775 9.3831 9.99939 9.47448 10.0343C9.56014 10.0692 9.62296 10.1157 9.66294 10.1797C9.70862 10.2437 9.72576 10.3135 9.72576 10.3891C9.72576 10.4589 9.70862 10.5287 9.66294 10.5985C9.62296 10.6683 9.56585 10.7149 9.49161 10.744C9.44021 10.7672 9.32028 10.7963 9.04616 10.7963H8.70351V9.98775H8.70922ZM9.34884 9.33043C9.26889 9.40605 9.1204 9.44677 8.91481 9.44677H8.70351V8.68474H8.99476C9.41737 8.68474 9.46877 8.88834 9.46877 9.0454C9.46877 9.16174 9.42879 9.25481 9.34884 9.33043Z" fill="black"/>
<path d="M13.609 8.09717C13.1293 8.09717 12.7238 8.25423 12.404 8.56835C12.0899 8.88247 11.9243 9.27803 11.9243 9.75502C11.9243 10.2204 12.0842 10.6043 12.3983 10.9184C12.7124 11.2267 13.1065 11.3838 13.5805 11.3838C14.0716 11.3838 14.4828 11.2267 14.8083 10.9242C15.1338 10.6159 15.2937 10.2204 15.2937 9.7492C15.2937 9.27802 15.1338 8.88247 14.8083 8.57416C14.4942 8.24841 14.0887 8.09717 13.609 8.09717ZM13.6147 10.8195C13.3006 10.8195 13.0494 10.7206 12.8381 10.5171C12.6325 10.3135 12.5297 10.0575 12.5297 9.75502C12.5297 9.42927 12.6268 9.17914 12.8381 8.97554C13.0494 8.77194 13.3064 8.66724 13.6319 8.66724C13.9403 8.66724 14.1915 8.77194 14.4028 8.97554C14.6084 9.17914 14.7169 9.42927 14.7169 9.73175C14.7169 10.0459 14.6141 10.296 14.4028 10.5054C14.1858 10.7148 13.9288 10.8195 13.6147 10.8195Z" fill="black"/>
<path d="M19.4454 10.9999C19.3826 10.9127 19.3027 10.7847 19.1999 10.616C19.0285 10.331 18.9029 10.1448 18.8058 10.0285C18.743 9.95867 18.6802 9.88886 18.6174 9.83651C18.7373 9.76671 18.8344 9.68527 18.9029 9.57474C19 9.43514 19.0457 9.26063 19.0457 9.06866C19.0457 8.78363 18.9429 8.55677 18.7487 8.38807C18.5545 8.2252 18.2975 8.13794 17.9777 8.13794H17.2239C17.1839 8.13794 17.1497 8.17284 17.1497 8.21938V11.2675C17.1497 11.3082 17.1839 11.3431 17.2239 11.3431H17.6522C17.6922 11.3431 17.7265 11.3082 17.7265 11.2675V10.0168H17.7607C17.9149 10.0168 17.9892 10.0343 18.0234 10.0576C18.0805 10.0866 18.1376 10.1332 18.2062 10.203C18.2804 10.2728 18.3604 10.3717 18.4403 10.488L18.7202 10.9534L18.8058 11.0755C18.8172 11.093 18.8229 11.1046 18.8287 11.1104L18.96 11.314C18.9714 11.3373 18.9943 11.3489 19.0228 11.3489H19.5311C19.5597 11.3489 19.5882 11.3315 19.5996 11.3082C19.611 11.2791 19.6053 11.25 19.5882 11.2268L19.4454 10.9999ZM17.7379 8.66147H17.7893C17.9892 8.66147 18.1319 8.67311 18.2176 8.70801C18.2918 8.73709 18.3489 8.77781 18.3889 8.8418C18.4346 8.90579 18.4517 8.97559 18.4517 9.05703C18.4517 9.14428 18.4346 9.21409 18.3946 9.27808C18.3604 9.34206 18.309 9.3886 18.2404 9.41769C18.1948 9.44095 18.0805 9.47004 17.8235 9.47004H17.7379V8.66147Z" fill="black"/>
<path d="M22.6666 8.16686C22.6551 8.13195 22.6266 8.1145 22.598 8.1145H22.2953C22.2668 8.1145 22.2382 8.13195 22.2211 8.16686L20.9362 11.2324C20.9247 11.2557 20.9304 11.2848 20.9419 11.3022C20.959 11.3255 20.9818 11.3371 21.0047 11.3371H21.4444C21.473 11.3371 21.5015 11.3197 21.5187 11.2906L21.8727 10.4355H23.0492L23.4318 11.2964C23.4432 11.3255 23.4718 11.343 23.5003 11.343H23.9401C23.9629 11.343 23.9915 11.3313 24.0086 11.3081C24.02 11.2848 24.02 11.2615 24.0086 11.2382L22.6666 8.16686ZM22.8093 9.8887H22.1069L22.4438 9.06268L22.8093 9.8887Z" fill="black"/>
<path d="M27.5436 8.13208H25.0423C25.0023 8.13208 24.968 8.16698 24.968 8.2077V8.59744C24.968 8.63816 25.0023 8.67306 25.0423 8.67306H25.9903V11.2616C25.9903 11.3024 26.0245 11.3373 26.0645 11.3373H26.4928C26.5385 11.3373 26.5728 11.3024 26.5728 11.2616V8.67306H27.5379C27.5779 8.67306 27.6122 8.63816 27.6122 8.59744V8.2077C27.6179 8.16698 27.5779 8.13208 27.5436 8.13208Z" fill="black"/>
<path d="M30.5991 8.09717C30.1194 8.09717 29.7139 8.25423 29.3998 8.56835C29.0857 8.88247 28.9258 9.27803 28.9258 9.75502C28.9258 10.2204 29.0857 10.6043 29.3998 10.9184C29.7139 11.2267 30.1079 11.3838 30.5762 11.3838C31.0674 11.3838 31.4785 11.2267 31.8041 10.9242C32.1296 10.6159 32.2895 10.2204 32.2895 9.7492C32.2895 9.27802 32.1296 8.88247 31.8041 8.57416C31.4843 8.24841 31.0788 8.09717 30.5991 8.09717ZM30.5991 10.8195C30.285 10.8195 30.0337 10.7206 29.8224 10.5171C29.6168 10.3135 29.514 10.0575 29.514 9.75502C29.514 9.42927 29.6168 9.17914 29.8224 8.97554C30.028 8.77194 30.285 8.66724 30.6162 8.66724C30.9189 8.66724 31.1759 8.77194 31.3815 8.97554C31.5928 9.17914 31.6956 9.42927 31.6956 9.73175C31.6956 10.0459 31.5928 10.296 31.3815 10.5054C31.1759 10.7148 30.9189 10.8195 30.5991 10.8195Z" fill="black"/>
<path d="M34.6423 8.13208H34.214C34.1683 8.13208 34.134 8.16698 34.134 8.21352V11.2616C34.134 11.3024 34.1683 11.3373 34.214 11.3373H34.6423C34.688 11.3373 34.7222 11.3024 34.7222 11.2616V8.21352C34.7222 8.16698 34.688 8.13208 34.6423 8.13208Z" fill="black"/>
<path d="M38.9995 10.9999C38.9424 10.9127 38.8568 10.7847 38.754 10.616C38.5826 10.331 38.457 10.1448 38.3599 10.0285C38.2971 9.95867 38.2343 9.88886 38.1658 9.83651C38.2857 9.76671 38.3828 9.68527 38.457 9.57474C38.5541 9.43514 38.5998 9.26063 38.5998 9.06866C38.5998 8.78363 38.5027 8.55677 38.3085 8.38807C38.1201 8.2252 37.8631 8.13794 37.5376 8.13794H36.7894C36.7437 8.13794 36.7095 8.17284 36.7095 8.21938V11.2675C36.7095 11.3082 36.7437 11.3431 36.7894 11.3431H37.2177C37.2634 11.3431 37.292 11.3082 37.292 11.2675V10.0168H37.3262C37.4862 10.0168 37.5547 10.0343 37.5889 10.0576C37.6403 10.0866 37.6975 10.1332 37.766 10.203C37.8402 10.2728 37.9202 10.3717 38.0001 10.488L38.28 10.9534L38.3599 11.0755C38.3713 11.093 38.3828 11.1046 38.3828 11.1104L38.5141 11.314C38.5255 11.3373 38.5484 11.3489 38.5769 11.3489H39.0852C39.1138 11.3489 39.1423 11.3315 39.1537 11.3082C39.1709 11.2791 39.1652 11.25 39.148 11.2268L38.9995 10.9999ZM37.292 8.66147H37.3434C37.5433 8.66147 37.6917 8.67311 37.7717 8.70801C37.8459 8.73709 37.9031 8.77781 37.943 8.8418C37.9887 8.90579 38.0058 8.97559 38.0058 9.05703C38.0058 9.14428 37.9887 9.21409 37.9544 9.27808C37.9145 9.34206 37.8688 9.3886 37.8003 9.41769C37.7489 9.44095 37.6346 9.47004 37.3834 9.47004H37.292V8.66147Z" fill="black"/>
<path d="M42.6317 10.7904H41.4039V9.9993H42.5518C42.5975 9.9993 42.626 9.9644 42.626 9.91786V9.52812C42.626 9.48159 42.5918 9.44669 42.5518 9.44669H41.4039V8.67302H42.5918C42.6317 8.67302 42.666 8.63812 42.666 8.5974V8.20766C42.666 8.16112 42.6317 8.12622 42.5918 8.12622H40.8956C40.8499 8.12622 40.8157 8.16112 40.8157 8.20766V11.25C40.8157 11.2907 40.8499 11.3256 40.8956 11.3256H42.6317C42.6717 11.3256 42.706 11.2907 42.706 11.25V10.8602C42.706 10.8253 42.6717 10.7904 42.6317 10.7904Z" fill="black"/>
<path d="M74.2643 26.863H72.6653C72.6253 26.863 72.5911 26.8979 72.5911 26.9387V29.9868C72.5911 30.0275 72.6253 30.0624 72.6653 30.0624H73.0936C73.1393 30.0624 73.1736 30.0275 73.1736 29.9868V28.643H74.2643C74.31 28.643 74.3443 28.6081 74.3443 28.5616V28.1719C74.3443 28.1312 74.31 28.0962 74.2643 28.0962H73.1736V27.3982H74.2643C74.31 27.3982 74.3443 27.3633 74.3443 27.3226V26.9328C74.3386 26.8979 74.3043 26.863 74.2643 26.863Z" fill="black"/>
<path d="M78.4106 29.7309C78.3478 29.6437 78.2678 29.5157 78.165 29.347C77.9994 29.0678 77.868 28.87 77.7767 28.7595C77.7139 28.6897 77.651 28.6257 77.5825 28.5675C77.7024 28.5035 77.7995 28.4163 77.8738 28.3057C77.9708 28.1661 78.0165 27.9974 78.0165 27.7997C78.0165 27.5146 77.9194 27.2878 77.7253 27.1191C77.5368 26.9562 77.2798 26.8748 76.9543 26.8748H76.2005C76.1605 26.8748 76.1262 26.9097 76.1262 26.9504V29.9985C76.1262 30.0392 76.1605 30.0741 76.2005 30.0741H76.6288C76.6745 30.0741 76.7087 30.0392 76.7087 29.9985V28.7478H76.743C76.9029 28.7478 76.9714 28.7653 77.0057 28.7886C77.0571 28.8176 77.1199 28.8642 77.1884 28.934C77.257 29.0038 77.3369 29.1027 77.4169 29.219L77.6967 29.6844L77.7824 29.8007C77.7938 29.8182 77.7995 29.8298 77.8052 29.8356L77.9366 30.0392C77.948 30.0625 77.9766 30.0741 77.9994 30.0741H78.5077C78.5362 30.0741 78.5648 30.0567 78.5762 30.0334C78.5933 30.0043 78.5876 29.9752 78.5705 29.952L78.4106 29.7309ZM76.7087 27.3925H76.7601C76.96 27.3925 77.1085 27.4041 77.1884 27.439C77.257 27.4681 77.3198 27.5088 77.3541 27.5728C77.3997 27.6368 77.4169 27.7124 77.4169 27.788C77.4169 27.8753 77.3998 27.9451 77.3598 28.0091C77.3198 28.0731 77.2741 28.1138 77.2056 28.1487C77.1542 28.172 77.0457 28.201 76.7887 28.201H76.703V27.3925H76.7087Z" fill="black"/>
<path d="M81.6369 26.8979C81.6198 26.8688 81.597 26.8513 81.5684 26.8513H81.2657C81.2372 26.8513 81.2086 26.8688 81.1972 26.9037L79.9123 29.9692C79.9008 29.9925 79.9008 30.0158 79.918 30.0391C79.9351 30.0623 79.9579 30.074 79.9808 30.074H80.4262C80.4548 30.074 80.4833 30.0565 80.5005 30.0274L80.8546 29.1723H82.0253L82.4079 30.0332C82.4193 30.0565 82.4479 30.074 82.4764 30.074H82.9162C82.9447 30.074 82.9676 30.0623 82.9847 30.0391C82.9961 30.0158 82.9961 29.9925 82.9847 29.9692L81.6369 26.8979ZM81.7797 28.6197H81.083L81.4199 27.7937L81.7797 28.6197Z" fill="black"/>
<path d="M87.485 26.863H87.0738C87.0338 26.863 86.9996 26.8979 86.9996 26.9387V29.0968L85.115 26.8921C85.0978 26.8747 85.0807 26.863 85.0521 26.863H84.7095C84.6695 26.863 84.6353 26.8979 84.6353 26.9387V29.9868C84.6353 30.0275 84.6695 30.0624 84.7095 30.0624H85.115C85.1492 30.0624 85.1892 30.0275 85.1892 29.9868V27.8461L87.0567 30.0333C87.0681 30.0508 87.0909 30.0566 87.1138 30.0566H87.485C87.5307 30.0566 87.5649 30.0217 87.5649 29.981V26.9328C87.5649 26.8979 87.5307 26.863 87.485 26.863Z" fill="black"/>
<path d="M92.2136 29.2131C92.1907 29.1957 92.1565 29.2015 92.1336 29.2189C91.8024 29.4342 91.4597 29.5447 91.1114 29.5447C90.7858 29.5447 90.5174 29.4458 90.3118 29.2422C90.1005 29.0386 89.9977 28.7885 89.9977 28.4744C89.9977 28.1602 90.1005 27.9043 90.3118 27.7065C90.5231 27.5029 90.7916 27.3982 91.1114 27.3982C91.4312 27.3982 91.7624 27.4971 92.0994 27.6949C92.1279 27.7123 92.1565 27.7123 92.1793 27.6949C92.2021 27.6774 92.2193 27.6542 92.2193 27.6251V27.1597C92.2193 27.1306 92.2021 27.1015 92.1736 27.0899C91.2084 26.6653 90.4375 26.7758 89.8949 27.311C89.5694 27.6251 89.4038 28.0206 89.4038 28.486C89.4038 28.7768 89.478 29.0561 89.6208 29.3004C89.7579 29.5563 89.9578 29.7541 90.1976 29.8995C90.4432 30.0391 90.7402 30.1148 91.0828 30.1148C91.5054 30.1148 91.8881 30.0275 92.2079 29.8414C92.2307 29.8297 92.2478 29.8065 92.2478 29.7716V29.2946C92.2535 29.2597 92.2364 29.2306 92.2136 29.2131Z" fill="black"/>
<path d="M95.9087 29.5215H94.6809V28.7303H95.8288C95.8745 28.7303 95.9087 28.6954 95.9087 28.6547V28.265C95.9087 28.2243 95.8745 28.1835 95.8288 28.1835H94.6809V27.4099H95.8745C95.9087 27.4099 95.9487 27.375 95.9487 27.3343V26.9445C95.9487 26.9038 95.9144 26.8689 95.8745 26.8689H94.1783C94.1327 26.8689 94.0984 26.9038 94.0984 26.9445V29.9868C94.0984 30.0275 94.1327 30.0683 94.1783 30.0683H95.9144C95.9601 30.0683 95.9944 30.0334 95.9944 29.9868V29.5971C95.9887 29.5564 95.9487 29.5215 95.9087 29.5215Z" fill="black"/>
</svg>
