<svg width="107" height="25" viewBox="0 0 107 25" fill="none" xmlns="http://www.w3.org/2000/svg">
<path d="M8.37957 21.2062C5.75981 19.0276 4.30276 16.0238 4.07439 12.9444C3.84165 9.86588 4.83564 6.69083 7.10193 4.17449C9.36774 1.65629 12.4903 0.253969 15.69 0.0328446C18.8887 -0.189213 22.1878 0.765727 24.8051 2.94665C25.2997 3.35811 25.3535 4.07793 24.9263 4.55377C24.4977 5.0296 23.7486 5.08325 23.2555 4.66946C21.1245 2.89673 18.4625 2.12606 15.8602 2.30613C13.2559 2.48807 10.7375 3.61842 8.89402 5.66592C7.05054 7.71342 6.2505 10.2759 6.43717 12.782C6.62482 15.2853 7.80112 17.7116 9.92777 19.4834C12.0578 21.2543 14.7212 22.0259 17.3216 21.8467C19.4279 21.7002 21.4813 20.9314 23.1624 19.5618C23.6613 19.155 24.4095 19.2142 24.8313 19.6938C25.2551 20.1743 25.1935 20.8922 24.6936 21.3C22.6179 22.9915 20.0815 23.9399 17.4932 24.1191C14.2936 24.3421 10.994 23.3848 8.37957 21.2062Z" fill="black"/>
<path d="M1.49583 18.9464C0.482449 16.7833 0 14.5137 0 12.2815C0 10.303 0.378686 8.35393 1.09678 6.53036C1.32855 5.94162 2.01319 5.64493 2.62462 5.86698C3.23507 6.08997 3.54248 6.74868 3.31168 7.33741C2.69298 8.90534 2.37006 10.5815 2.37006 12.2815C2.37006 14.1979 2.78123 16.1437 3.65691 18.0102C3.92456 18.5835 3.65982 19.2581 3.06197 19.5179C2.90536 19.586 2.74002 19.6182 2.57661 19.6182C2.12471 19.6182 1.69366 19.3686 1.49583 18.9464Z" fill="black"/>
<path d="M11.2006 15.1999L10.9906 14.816L13.2016 14.1787L13.3369 14.4638C13.9047 15.6277 14.823 16.6242 16.8081 16.6368C17.823 16.6368 18.5449 16.4175 18.9915 16.0979C19.4366 15.7765 19.6378 15.373 19.6432 14.8715C19.6378 14.4321 19.4415 14.1288 19.0313 13.8167C18.6235 13.5126 18.0072 13.2541 17.3027 13.0195C15.8907 12.5436 14.1467 12.1676 12.9054 11.3844C12.0777 10.8693 11.4527 10.0931 11.4595 9.0257C11.458 8.05443 11.9705 7.18207 12.8152 6.584C13.6584 5.98081 14.8294 5.63233 16.2054 5.63233C18.5648 5.61973 20.5344 6.67684 21.349 8.76912L21.5046 9.16752L19.6175 9.50714L19.2921 9.56452L19.1971 9.25989C18.8751 8.27603 17.9131 7.46524 16.1642 7.45451C15.3647 7.45357 14.7639 7.61219 14.3881 7.86503C14.0153 8.12068 13.8295 8.44117 13.814 8.9352V8.94686C13.8179 9.27435 13.9891 9.52207 14.4061 9.8015C14.8177 10.0725 15.4408 10.3095 16.1501 10.5367C17.5699 10.9962 19.3178 11.403 20.5601 12.2245C21.3848 12.7652 22.004 13.5625 21.9972 14.6424C22.0001 15.5759 21.6656 16.5542 20.8146 17.2815C19.9642 18.0078 18.6405 18.4599 16.7281 18.4589H16.6777C13.3776 18.4589 11.9599 16.6358 11.2006 15.1999Z" fill="black"/>
<path d="M31.1327 18.2658L27.6305 13.1963L26.0139 14.7852V18.2658H24.0458V7.81325H26.0139V12.5161L30.644 7.81325H33.1139L28.9983 11.8611L33.4082 18.2658H31.1327Z" fill="black"/>
<path d="M36.8014 7.81418V18.2667H34.8347V7.81418H36.8014Z" fill="black"/>
<path d="M38.9033 18.2658V7.81325H41.3155L46.2152 14.8197V7.81325H48.0494V18.2658H46.4615L40.7361 10.1029V18.2658H38.9033Z" fill="black"/>
<path d="M58.0553 7.81418V9.3378H52.1078V12.0449H56.3359V13.569H52.1078V16.7408H58.3928V18.2667H50.1397V7.81418H58.0553Z" fill="black"/>
<path d="M67.2751 18.2658L64.5089 14.4265L61.8974 18.1347L61.8058 18.2658H59.5051L63.3545 12.8221L59.7334 7.81325H62.0395L64.4862 11.2024L66.8868 7.81325H69.1841L65.6562 12.8184L69.5802 18.2658H67.2751Z" fill="black"/>
<path d="M73.0054 7.81418V18.2667H71.0378V7.81418H73.0054Z" fill="black"/>
<path d="M81.1028 13.6549L79.6864 9.55426L78.2721 13.6549H81.1028ZM74.5022 18.2658L78.4694 7.81325H80.9083L84.8746 18.2658H82.7964L81.6511 15.1799H77.7242L76.5784 18.2658H74.5022Z" fill="black"/>
<path d="M86.3471 18.2658V7.81325H88.757L93.6585 14.8197V7.81325H95.4918V18.2658H93.9039L88.178 10.1029V18.2658H86.3471Z" fill="black"/>
<path d="M97.2461 15.6767L97.0711 15.3562L98.9204 14.8221L99.0324 15.0604C99.5076 16.035 100.276 16.8658 101.935 16.877C102.784 16.877 103.388 16.6932 103.759 16.4273C104.13 16.1581 104.299 15.8204 104.303 15.401C104.299 15.0343 104.135 14.7805 103.793 14.5202C103.452 14.2664 102.936 14.0495 102.347 13.8522C101.166 13.4538 99.7093 13.1408 98.6702 12.4863C97.9788 12.0557 97.4565 11.4077 97.4628 10.5134C97.4604 9.7026 97.8886 8.97299 98.5955 8.47336C99.301 7.96906 100.279 7.67703 101.429 7.67703C103.402 7.6663 105.049 8.5508 105.729 10.2988L105.86 10.6328L104.283 10.9151L104.009 10.965L103.93 10.7093C103.661 9.88641 102.858 9.20951 101.396 9.20158C100.729 9.19971 100.224 9.33173 99.9105 9.54306C99.5992 9.75858 99.4431 10.0254 99.43 10.4402V10.4476C99.4329 10.7215 99.5774 10.9291 99.926 11.1628C100.27 11.3886 100.791 11.5878 101.383 11.7781C102.571 12.1602 104.031 12.5007 105.069 13.1869C105.76 13.6399 106.277 14.308 106.273 15.2097C106.274 15.9897 105.996 16.8094 105.284 17.4163C104.573 18.0242 103.466 18.402 101.869 18.4002H101.827C99.0668 18.4006 97.8818 16.8761 97.2461 15.6767Z" fill="black"/>
</svg>
