<svg width="100" height="20" viewBox="0 0 100 20" fill="none" xmlns="http://www.w3.org/2000/svg">
<path d="M57.8116 19.5557V4.28038L57.8093 4.274C57.7983 3.39584 57.488 2.63463 57.0137 2.26465H60.4335V19.5557H57.8116Z" fill="black"/>
<path d="M26.0001 19.5555L19.422 4.55449C19.3887 4.48644 18.6928 3.03418 17.6555 2.23682H21.4388L26.4877 14.5736L31.756 2.23682H34.4245C33.866 3.56363 30.0849 12.4941 26.7648 19.5555H26.0001Z" fill="black"/>
<path d="M13.3447 2.23682L8.53521 8.67739L8.42217 8.81772L8.32687 8.66463C7.56666 7.44201 4.08032 2.74713 3.67694 2.23682H0C0.897626 2.70035 1.49161 3.40628 1.52264 3.44243L7.15663 11.1311V19.5555H9.81183V11.0142L9.83843 10.9802C12.6909 7.44201 15.6076 3.13412 16.2747 2.23682H13.3447Z" fill="black"/>
<path d="M76.9299 19.5557C77.0296 19.6195 71.799 12.5007 71.0543 12.1583C71.0166 12.1413 70.9812 12.1286 70.9479 12.1158L70.9236 12.1073C70.5157 11.967 70.1257 11.9202 69.8708 11.9032H68.3725V19.5557H65.7528V4.28676L65.7483 4.28038C65.7395 3.41073 65.4203 2.63888 64.9482 2.26465H71.7968C74.6337 2.26465 76.941 4.29314 76.941 6.78729C76.941 8.61804 75.6998 10.4084 73.776 11.1143L73.2219 11.2015L73.4391 11.3291C74.0353 11.6842 79.2105 18.752 79.7181 19.5557H76.9299ZM68.3548 9.96186H70.7706C72.6279 9.96186 74.4564 8.63505 74.4564 6.96378C74.4564 5.2925 72.9449 3.98908 71.0876 3.98908H68.3548V9.96186Z" fill="black"/>
<path d="M81.6065 19.5557V4.28251L81.602 4.27613C81.5932 3.40009 81.2829 2.63675 80.8108 2.26465C82.8255 2.26465 90.9861 2.26465 92.1009 2.26465V4.13367H84.2284V9.96612H91.8483V11.8351H84.2284V17.6888H92.2782V19.5579H81.6065V19.5557Z" fill="black"/>
<path d="M35.116 10.8675C35.116 15.9408 39.4046 20 44.6929 20C49.9833 20 54.2698 15.9408 54.2698 10.8675C54.2698 6.44053 51.0073 2.69185 46.661 1.82007L44.6685 4.0782C46.5834 4.0782 48.1903 4.73098 49.4913 6.03653C50.7989 7.3357 51.4528 8.94531 51.4528 10.8654C51.4528 12.762 50.7923 14.3716 49.4691 15.6942C48.1459 16.9997 46.5236 17.6525 44.5998 17.6525C42.8245 17.6525 41.2619 17.0125 39.9077 15.7282C38.5447 14.4439 37.8643 12.8067 37.8643 10.8165C37.8643 8.91979 38.5203 7.32507 39.8346 6.03228C41.1489 4.72673 42.7602 4.07395 44.6707 4.07395L44.6618 4.06544L44.6596 4.07182L44.6485 4.05056L42.6516 1.83283C38.3408 2.7365 35.116 6.46604 35.116 10.8675Z" fill="black"/>
<path d="M98.7012 1.75415C98.7012 1.02271 97.879 1.02271 97.4845 1.02271H96.7442H96.6799V3.57214H97.152C97.152 3.57214 97.152 2.59404 97.152 2.48347C97.2385 2.48347 97.4446 2.48347 97.4933 2.48347C97.531 2.53451 98.2757 3.57214 98.2757 3.57214H98.8564C98.8564 3.57214 98.1117 2.5579 98.0164 2.43032C98.4441 2.34527 98.7012 2.10074 98.7012 1.75415ZM98.2026 1.75415C98.2026 2.06672 97.8524 2.09224 97.3958 2.09224C97.3958 2.09224 97.234 2.09224 97.1542 2.09224C97.1542 1.99443 97.1542 1.51175 97.1542 1.41607C97.2518 1.41607 97.5709 1.41607 97.5709 1.41607C98.0142 1.41394 98.2026 1.51601 98.2026 1.75415Z" fill="black"/>
<path d="M97.6131 0C96.2966 0 95.2283 1.027 95.2283 2.29003C95.2283 3.55305 96.2988 4.58006 97.6131 4.58006C98.9296 4.58006 100 3.55305 100 2.29003C100 1.027 98.9296 0 97.6131 0ZM97.6131 4.13566C96.5537 4.13566 95.6893 3.3064 95.6893 2.29003C95.6893 1.27153 96.5537 0.444397 97.6131 0.444397C98.6747 0.444397 99.5391 1.27366 99.5391 2.29003C99.5391 3.3064 98.6747 4.13566 97.6131 4.13566Z" fill="black"/>
</svg>
