<svg width="86" height="21" viewBox="0 0 86 21" fill="none" xmlns="http://www.w3.org/2000/svg">
<path d="M11.3202 4.21825C11.212 3.93662 11.053 3.66724 10.8493 3.40398C10.6457 3.14685 10.3657 2.92032 10.003 2.72441C9.64032 2.5285 9.18852 2.37544 8.64765 2.25912C8.10677 2.1428 7.43863 2.08157 6.64323 2.08157C6.20416 2.08157 5.77146 2.11218 5.35149 2.16728C4.93151 2.22851 4.54972 2.32034 4.21247 2.44279C3.87522 2.57135 3.60796 2.73053 3.40434 2.93869C3.20071 3.14685 3.0989 3.39786 3.0989 3.69173C3.0989 3.83254 3.13072 3.97336 3.18799 4.10805C3.25162 4.24274 3.38525 4.37743 3.58887 4.50599C3.79886 4.63456 4.09793 4.75088 4.49881 4.86108C4.8997 4.95904 5.42785 5.057 6.08962 5.13659L9.24579 5.59576C9.99029 5.69984 10.6584 5.85289 11.2439 6.05493C11.8293 6.25696 12.332 6.50798 12.7392 6.80797C13.1465 7.10796 13.4583 7.46305 13.6746 7.87324C13.891 8.28344 13.9928 8.76097 13.9928 9.30585C13.9928 10.0711 13.821 10.714 13.471 11.2405C13.121 11.767 12.6501 12.1956 12.052 12.5262C11.4538 12.8629 10.7539 13.1017 9.95848 13.2486C9.16943 13.3955 8.32312 13.469 7.43227 13.469C6.00054 13.469 4.82334 13.3221 3.90067 13.0282C2.978 12.7343 2.23986 12.3854 1.69262 11.9874C1.13902 11.5895 0.738136 11.1793 0.48997 10.7691C0.23544 10.3589 0.0763589 10.0283 0 9.77727L2.51348 9.01811C2.63438 9.25075 2.79983 9.50177 2.99709 9.77115C3.20071 10.0344 3.48706 10.2854 3.86249 10.5119C4.23792 10.7385 4.71516 10.9344 5.30058 11.0874C5.886 11.2405 6.62414 11.314 7.50226 11.314C8.03041 11.314 8.53311 11.2711 9.00399 11.1915C9.48123 11.1119 9.89485 10.9895 10.2448 10.8364C10.5948 10.6834 10.8684 10.4997 11.0784 10.2793C11.2884 10.0589 11.3902 9.814 11.3902 9.52626C11.3902 8.69363 10.423 8.15487 8.48857 7.92222L5.29422 7.49978C3.74159 7.29775 2.55166 6.88756 1.72444 6.26309C0.909944 5.64474 0.496333 4.8366 0.496333 3.85091C0.496333 3.21419 0.623598 2.67543 0.884491 2.23463C1.13902 1.79383 1.46991 1.42649 1.87716 1.13874C2.27804 0.850996 2.72983 0.630594 3.22616 0.477537C3.7225 0.32448 4.19974 0.21428 4.65789 0.140812C5.11605 0.067345 5.52966 0.0306114 5.90509 0.0183668C6.27416 0.00612227 6.54142 0 6.71322 0C8.14495 0 9.30306 0.140812 10.1876 0.416315C11.072 0.691817 11.7656 1.02242 12.2683 1.39588C12.771 1.77546 13.1274 2.15504 13.331 2.53462C13.541 2.9142 13.6873 3.22032 13.7701 3.44072L11.3202 4.21825ZM15.3545 6.83246C15.3545 5.95085 15.4945 5.09985 15.7681 4.27947C16.0417 3.45908 16.4935 2.73666 17.1235 2.09994C17.7535 1.46322 18.5743 0.955075 19.5797 0.575494C20.5978 0.18979 21.8323 0 23.3022 0C24.7721 0 26.0066 0.18979 27.0183 0.575494C28.0301 0.961197 28.8446 1.46935 29.4745 2.09994C30.1045 2.73666 30.5563 3.46521 30.8299 4.27947C31.1035 5.09985 31.2435 5.95085 31.2435 6.83246C31.2435 7.50591 31.1226 8.22221 30.8872 8.99362C30.6454 9.76503 30.2318 10.4813 29.64 11.1487C29.0482 11.816 28.2337 12.367 27.2092 12.8078C26.1847 13.2486 24.8803 13.469 23.3022 13.469C21.7241 13.469 20.4196 13.2486 19.3952 12.8078C18.3707 12.367 17.5562 11.816 16.9644 11.1487C16.3726 10.4813 15.9527 9.76503 15.7172 8.99362C15.4754 8.22221 15.3545 7.49978 15.3545 6.83246ZM23.3022 11.314C23.9258 11.314 24.5558 11.2405 25.1921 11.0997C25.8284 10.9589 26.4011 10.714 26.9102 10.3589C27.4192 10.0038 27.8328 9.53238 28.1574 8.93852C28.4819 8.34466 28.641 7.59162 28.641 6.68552C28.641 5.90799 28.5073 5.24067 28.2401 4.67129C27.9728 4.10805 27.5974 3.63663 27.1201 3.25705C26.6429 2.88359 26.0766 2.60197 25.4212 2.4183C24.7657 2.23463 24.0594 2.1428 23.3022 2.1428C22.545 2.1428 21.8387 2.23463 21.1832 2.4183C20.5278 2.60197 19.9615 2.87747 19.4843 3.25705C19.007 3.63663 18.6316 4.10192 18.3643 4.67129C18.0971 5.23454 17.9634 5.90799 17.9634 6.68552C17.9634 7.59162 18.1225 8.34466 18.447 8.93852C18.7716 9.53238 19.1852 10.0038 19.6942 10.3589C20.2033 10.714 20.776 10.9589 21.4123 11.0997C22.0486 11.2466 22.6786 11.314 23.3022 11.314ZM41.1702 6.01819C41.6983 6.01819 42.1629 5.99371 42.5637 5.94473C42.9646 5.89575 43.3019 5.81004 43.5755 5.68147C43.8428 5.5529 44.0464 5.36923 44.18 5.12434C44.3136 4.88557 44.3836 4.57334 44.3836 4.19988C44.3836 3.8203 44.3136 3.52031 44.18 3.28154C44.0464 3.04889 43.8428 2.86522 43.5755 2.73666C43.3082 2.60809 42.971 2.51625 42.5637 2.4734C42.1629 2.42442 41.6983 2.39993 41.1702 2.39993H33.5343V0.318358H41.552C42.3347 0.318358 43.0601 0.373459 43.7282 0.477537C44.3964 0.581616 44.969 0.777529 45.4527 1.05915C45.9363 1.34078 46.3117 1.7326 46.5789 2.22239C46.8462 2.71829 46.9798 3.35501 46.9798 4.14478C46.9798 4.73252 46.878 5.25903 46.6744 5.7182C46.4708 6.17737 46.1972 6.56308 45.8599 6.88143C45.5163 7.19979 45.1218 7.44468 44.67 7.62223C44.2182 7.79978 43.7473 7.89773 43.2573 7.92222L47.3489 13.1506H44.1355L40.2666 8.09977H36.1432V13.1506H33.5407L33.5343 6.01819H41.1702ZM50.0151 0.318358H52.6177V13.1506H50.0151V0.318358ZM66.3241 4.21825C66.2159 3.93662 66.0568 3.66724 65.8532 3.40398C65.6496 3.14685 65.3696 2.92032 65.0069 2.72441C64.6442 2.5285 64.1924 2.37544 63.6515 2.25912C63.1107 2.1428 62.4425 2.08157 61.6471 2.08157C61.208 2.08157 60.7753 2.11218 60.3554 2.16728C59.9354 2.22851 59.5536 2.32034 59.2163 2.44279C58.8791 2.56523 58.6118 2.73053 58.4082 2.93869C58.2046 3.14685 58.1028 3.39786 58.1028 3.69173C58.1028 3.83254 58.1346 3.97336 58.1919 4.10805C58.2555 4.24274 58.3891 4.37743 58.5928 4.50599C58.8027 4.63456 59.1018 4.75088 59.5027 4.86108C59.8972 4.96516 60.4317 5.06312 61.0871 5.14271L64.2433 5.60188C64.9878 5.70596 65.656 5.85901 66.2414 6.06105C66.8268 6.26309 67.3231 6.5141 67.7367 6.81409C68.144 7.11408 68.4558 7.46917 68.6721 7.87937C68.8885 8.28956 68.9903 8.7671 68.9903 9.31198C68.9903 10.0773 68.8185 10.7201 68.4685 11.2466C68.1185 11.7731 67.6477 12.2017 67.0495 12.5323C66.4514 12.869 65.7514 13.1078 64.956 13.2547C64.1606 13.4017 63.3143 13.4751 62.4234 13.4751C60.9917 13.4751 59.8145 13.3282 58.8918 13.0343C57.9692 12.7405 57.231 12.3915 56.6838 11.9935C56.1302 11.5956 55.7357 11.1854 55.4811 10.7752C55.233 10.365 55.0675 10.0344 54.9975 9.78951L57.511 9.03035C57.6319 9.263 57.7973 9.51401 57.9946 9.78339C58.1982 10.0466 58.4846 10.2977 58.86 10.5242C59.2354 10.7507 59.7127 10.9466 60.2981 11.0997C60.8835 11.2527 61.6217 11.3262 62.4998 11.3262C63.0279 11.3262 63.5243 11.2833 64.0015 11.2038C64.4788 11.1242 64.8924 11.0017 65.2423 10.8487C65.5923 10.6956 65.8659 10.5119 66.0759 10.2915C66.2859 10.0711 66.3877 9.82625 66.3877 9.5385C66.3877 8.70587 65.4205 8.16711 63.4861 7.93447L60.2917 7.51203C58.7391 7.30999 57.5492 6.8998 56.722 6.27533C55.8947 5.65086 55.4811 4.84272 55.4811 3.85703C55.4811 3.22032 55.6084 2.68156 55.8693 2.24075C56.1238 1.79995 56.4547 1.43261 56.8619 1.14487C57.2628 0.857118 57.7146 0.636716 58.211 0.48366C58.7073 0.330603 59.1845 0.220402 59.6427 0.146935C60.1008 0.0734673 60.5208 0.0367336 60.8899 0.0244891C61.278 0.00612227 61.5517 0 61.7235 0C63.1552 0 64.3133 0.140812 65.1978 0.416315C66.0823 0.691817 66.7759 1.02242 67.2786 1.39588C67.7813 1.77546 68.1376 2.15504 68.3412 2.53462C68.5512 2.9142 68.6976 3.22032 68.7803 3.44072L66.3241 4.21825ZM83.9185 1.16323H84.2048C84.3703 1.16323 84.5548 1.19384 84.5548 1.38976C84.5548 1.61628 84.3894 1.63465 84.1984 1.63465H83.9185V1.16323ZM83.5939 2.58972H83.9185V1.87342H84.1157L84.5611 2.58972H84.892L84.4275 1.86117C84.7139 1.83668 84.8793 1.69587 84.8793 1.41425C84.8793 1.06528 84.6566 0.924463 84.243 0.924463H83.6003V2.58972H83.5939ZM85.3375 1.76321C85.3375 2.44891 84.822 2.94481 84.1857 2.94481C83.543 2.94481 83.034 2.44891 83.034 1.76321C83.034 1.07752 83.5494 0.581616 84.1857 0.581616C84.822 0.581616 85.3375 1.07752 85.3375 1.76321ZM82.6585 1.76321C82.6585 2.57135 83.3458 3.23256 84.1857 3.23256C85.0257 3.23256 85.7129 2.57748 85.7129 1.76321C85.7129 0.955075 85.0257 0.293869 84.1857 0.293869C83.3394 0.293869 82.6585 0.955075 82.6585 1.76321ZM83.1103 13.1996L81.704 10.2303L80.6605 8.06303L77.8607 2.30197L75.0736 8.01406L73.96 10.2303L72.541 13.1996H69.7475L76.3653 0.26938H79.3624L85.8847 13.1996H83.1103Z" fill="black"/>
<path d="M2.74892 18.2995C3.33434 18.2995 4.00884 18.2076 4.00884 17.6383C4.00884 16.9954 3.32798 16.9893 2.57711 16.9893H0.458154V16.5791H2.88891C3.36616 16.5791 4.5179 16.5791 4.5179 17.6321C4.5179 18.1893 4.14247 18.3607 3.87522 18.4831C4.12975 18.5872 4.65789 18.8076 4.65789 19.4811C4.65789 20.5708 3.47433 20.6137 2.60257 20.6137H0.458154L0.45179 18.2995H2.74892ZM0.967213 20.1851H2.93346C3.54433 20.1851 4.14247 20.0872 4.14247 19.4688C4.14247 18.9056 3.67796 18.7158 2.99709 18.7158H0.967213V20.1851Z" fill="black"/>
<path d="M6.39506 16.5791H10.1366V17.0138H6.90412V18.2995H9.60214V18.7342H6.90412V20.1851H10.2066V20.6198H6.40142V16.5791H6.39506Z" fill="black"/>
<path d="M13.7128 16.9648L11.8102 20.6198H11.2439L13.401 16.5852H14.0246L16.1754 20.6198H15.6027L13.7128 16.9648Z" fill="black"/>
<path d="M21.6478 18.9546C21.6478 20.4117 20.4642 20.7117 19.4906 20.7117C18.517 20.7117 17.3335 20.4117 17.3335 18.9546V16.5791H17.8425V18.9546C17.8425 19.879 18.4598 20.3015 19.4906 20.3015C20.5215 20.3015 21.1387 19.879 21.1387 18.9546V16.5791H21.6478V18.9546Z" fill="black"/>
<path d="M25.1666 17.0138H23.1431V16.5791H27.6992V17.0138H25.6757V20.6198H25.1666V17.0138Z" fill="black"/>
<path d="M30.9317 18.9852L28.7682 16.5791H29.43L31.1863 18.5505L32.9425 16.5791H33.6043L31.4408 18.9852V20.6198H30.9317V18.9852Z" fill="black"/>
<path d="M38.0331 19.4627C38.2749 19.7749 38.6822 20.2831 39.9357 20.2831C40.5848 20.2831 41.4629 20.1055 41.4629 19.4811C41.4629 18.2566 37.804 19.3341 37.804 17.6934C37.804 16.8301 38.6313 16.4812 39.7703 16.4812C40.8775 16.4812 41.5583 16.922 41.8447 17.3077L41.4756 17.5954C41.3038 17.4056 40.8966 16.8914 39.7575 16.8914C38.9176 16.8914 38.3195 17.0995 38.3195 17.6138C38.3195 18.8382 41.9783 17.6689 41.9783 19.4811C41.9783 20.1606 41.2975 20.7178 39.8721 20.7178C38.4976 20.7178 37.9886 20.1668 37.6322 19.7872L38.0331 19.4627Z" fill="black"/>
<path d="M45.7772 16.4812C47.2025 16.4812 48.2334 17.2832 48.2334 18.624C48.2334 20.0566 46.9862 20.7178 45.7772 20.7178C44.5682 20.7178 43.321 20.0566 43.321 18.624C43.321 17.2832 44.3518 16.4812 45.7772 16.4812ZM45.7772 20.2831C46.7953 20.2831 47.718 19.7627 47.718 18.5321C47.718 17.6321 46.9989 16.8914 45.7772 16.8914C44.5618 16.8914 43.8364 17.6383 43.8364 18.5321C43.8428 19.7627 44.7463 20.2831 45.7772 20.2831Z" fill="black"/>
<path d="M49.856 16.5791H50.3651V20.179H53.6803V20.6137H49.8624V16.5791H49.856Z" fill="black"/>
<path d="M59.49 18.9546C59.49 20.4117 58.3064 20.7117 57.3328 20.7117C56.3593 20.7117 55.1757 20.4117 55.1757 18.9546V16.5791H55.6847V18.9546C55.6847 19.879 56.302 20.3015 57.3328 20.3015C58.3637 20.3015 58.9809 19.879 58.9809 18.9546V16.5791H59.49V18.9546Z" fill="black"/>
<path d="M63.0088 17.0138H60.9853V16.5791H65.5414V17.0138H63.5179V20.6198H63.0088V17.0138Z" fill="black"/>
<path d="M67.0177 16.5791H67.5267V20.6137H67.0177V16.5791Z" fill="black"/>
<path d="M71.6056 16.4812C73.031 16.4812 74.0618 17.2832 74.0618 18.624C74.0618 20.0566 72.8146 20.7178 71.6056 20.7178C70.3966 20.7178 69.1494 20.0566 69.1494 18.624C69.143 17.2832 70.1802 16.4812 71.6056 16.4812ZM71.6056 20.2831C72.6237 20.2831 73.5464 19.7627 73.5464 18.5321C73.5464 17.6321 72.8273 16.8914 71.6056 16.8914C70.3902 16.8914 69.6648 17.6383 69.6648 18.5321C69.6648 19.7627 70.5684 20.2831 71.6056 20.2831Z" fill="black"/>
<path d="M75.6781 16.5791H76.3971L79.5215 19.8974V16.5791H80.0305V20.6137H79.5215L76.1617 17.0077V20.6137H75.6781V16.5791Z" fill="black"/>
<path d="M81.9777 19.4627C82.2195 19.7749 82.6267 20.2831 83.8803 20.2831C84.5293 20.2831 85.4075 20.1055 85.4075 19.4811C85.4075 18.2566 81.7486 19.3341 81.7486 17.6934C81.7486 16.8301 82.5758 16.4812 83.7148 16.4812C84.822 16.4812 85.5029 16.922 85.7893 17.3077L85.4202 17.5954C85.2484 17.4056 84.8411 16.8914 83.7021 16.8914C82.8622 16.8914 82.264 17.0995 82.264 17.6138C82.264 18.8382 85.9229 17.6689 85.9229 19.4811C85.9229 20.1606 85.242 20.7178 83.8167 20.7178C82.4422 20.7178 81.9331 20.1668 81.5768 19.7872L81.9777 19.4627Z" fill="black"/>
</svg>
