<svg width="108" height="22" viewBox="0 0 108 22" fill="none" xmlns="http://www.w3.org/2000/svg">
<g clip-path="url(#clip0)">
<path d="M11.1266 13.9429C10.6467 12.7798 10.5977 11.5433 10.5977 10.221V8.85709C10.5977 8.19595 10.5977 7.53727 10.5218 6.85409C10.2672 4.29281 8.90818 3.19092 5.48987 3.19092C4.03047 3.19092 2.74983 3.42109 1.57203 3.89613V5.3898C2.69841 4.74826 3.80765 4.43728 5.08584 4.43728C7.22106 4.43728 8.40376 5.22085 8.40376 6.56515V6.68759C7.69854 7.14303 6.44239 7.39035 4.73568 7.7405C2.99959 8.09311 1.69446 8.34287 0.822745 9.1901C0.276697 9.70677 0 10.3483 0 11.0927C0 12.9439 1.57203 14.2049 3.8811 14.2049C5.94287 14.2049 7.47572 13.4165 8.55557 11.8273V12.0746C8.55557 12.6598 8.63148 13.2793 8.83472 13.9429C9.20936 13.8572 9.5889 13.8401 9.96599 13.8401C10.348 13.8401 10.7471 13.8572 11.1266 13.9429ZM8.42824 7.77234C8.45518 7.97557 8.45518 8.18126 8.45518 8.38939C8.45518 11.3082 6.94681 12.8998 4.63284 12.8998C3.15631 12.8998 2.22337 12.1579 2.22337 10.9115C2.22337 9.98101 2.97511 9.30029 4.45899 8.9281C5.48987 8.68078 6.89784 8.5559 8.42824 7.77234Z" fill="black"/>
<path d="M11.1266 13.9429C10.6467 12.7798 10.5977 11.5433 10.5977 10.221V8.85709C10.5977 8.19595 10.5977 7.53727 10.5218 6.85409C10.2672 4.29281 8.90818 3.19092 5.48987 3.19092C4.03047 3.19092 2.74983 3.42109 1.57203 3.89613V5.3898C2.69841 4.74826 3.80765 4.43728 5.08584 4.43728C7.22106 4.43728 8.40376 5.22085 8.40376 6.56515V6.68759C7.69854 7.14303 6.44239 7.39035 4.73568 7.7405C2.99959 8.09311 1.69446 8.34287 0.822745 9.1901C0.276697 9.70677 0 10.3483 0 11.0927C0 12.9439 1.57203 14.2049 3.8811 14.2049C5.94287 14.2049 7.47572 13.4165 8.55557 11.8273V12.0746C8.55557 12.6598 8.63148 13.2793 8.83472 13.9429C9.20936 13.8572 9.5889 13.8401 9.96599 13.8401C10.348 13.8401 10.7471 13.8572 11.1266 13.9429ZM8.42824 7.77234C8.45518 7.97557 8.45518 8.18126 8.45518 8.38939C8.45518 11.3082 6.94681 12.8998 4.63284 12.8998C3.15631 12.8998 2.22337 12.1579 2.22337 10.9115C2.22337 9.98101 2.97511 9.30029 4.45899 8.9281C5.48987 8.68078 6.89784 8.5559 8.42824 7.77234Z" fill="black"/>
<path d="M23.1666 5.49508C22.1651 4.85353 21.1856 4.54745 20.0788 4.54745C17.4367 4.54745 15.681 6.13418 15.681 8.75668C15.681 11.3376 17.4147 12.8263 20.1768 12.8263C21.2811 12.8263 22.3879 12.4541 23.5167 11.7293V13.2132C22.3659 13.8719 21.0313 14.2049 19.5989 14.2049C16.0312 14.2049 13.323 11.9399 13.323 8.80075C13.323 5.55385 16.0802 3.1958 19.8511 3.1958C20.9065 3.1958 22.0132 3.40394 23.1666 3.79817V5.49508Z" fill="black"/>
<path d="M23.1666 5.49508C22.1651 4.85353 21.1856 4.54745 20.0788 4.54745C17.4367 4.54745 15.681 6.13418 15.681 8.75668C15.681 11.3376 17.4147 12.8263 20.1768 12.8263C21.2811 12.8263 22.3879 12.4541 23.5167 11.7293V13.2132C22.3659 13.8719 21.0313 14.2049 19.5989 14.2049C16.0312 14.2049 13.323 11.9399 13.323 8.80075C13.323 5.55385 16.0802 3.1958 19.8511 3.1958C20.9065 3.1958 22.0132 3.40394 23.1666 3.79817V5.49508Z" fill="black"/>
<path d="M36.4799 13.9429C36 12.7798 35.9486 11.5433 35.9486 10.221V8.85709C35.9486 8.19595 35.9486 7.53727 35.8727 6.85409C35.6205 4.29281 34.2615 3.19092 30.8432 3.19092C29.3862 3.19092 28.1056 3.42109 26.9253 3.89613V5.3898C28.0541 4.74826 29.1609 4.43728 30.4416 4.43728C32.5768 4.43728 33.757 5.22085 33.757 6.56515V6.68759C33.0494 7.14303 31.7981 7.39035 30.089 7.7405C28.3553 8.09311 27.0502 8.34287 26.1736 9.1901C25.6251 9.70432 25.3484 10.3459 25.3484 11.0903C25.3484 12.9414 26.9253 14.2025 29.2295 14.2025C31.2937 14.2025 32.8241 13.414 33.9064 11.8248V12.0722C33.9064 12.6574 33.9799 13.2769 34.1807 13.9405C34.5577 13.8548 34.9397 13.8376 35.3144 13.8376C35.6988 13.8401 36.1028 13.8572 36.4799 13.9429ZM33.7815 7.77234C33.8085 7.97557 33.8085 8.18126 33.8085 8.38939C33.8085 11.3082 32.3025 12.8998 29.991 12.8998C28.5071 12.8998 27.5767 12.1579 27.5767 10.9115C27.5767 9.98101 28.3333 9.30029 29.8147 8.9281C30.8456 8.68078 32.2511 8.5559 33.7815 7.77234Z" fill="black"/>
<path d="M36.4799 13.9429C36 12.7798 35.9486 11.5433 35.9486 10.221V8.85709C35.9486 8.19595 35.9486 7.53727 35.8727 6.85409C35.6205 4.29281 34.2615 3.19092 30.8432 3.19092C29.3862 3.19092 28.1056 3.42109 26.9253 3.89613V5.3898C28.0541 4.74826 29.1609 4.43728 30.4416 4.43728C32.5768 4.43728 33.757 5.22085 33.757 6.56515V6.68759C33.0494 7.14303 31.7981 7.39035 30.089 7.7405C28.3553 8.09311 27.0502 8.34287 26.1736 9.1901C25.6251 9.70432 25.3484 10.3459 25.3484 11.0903C25.3484 12.9414 26.9253 14.2025 29.2295 14.2025C31.2937 14.2025 32.8241 13.414 33.9064 11.8248V12.0722C33.9064 12.6574 33.9799 13.2769 34.1807 13.9405C34.5577 13.8548 34.9397 13.8376 35.3144 13.8376C35.6988 13.8401 36.1028 13.8572 36.4799 13.9429ZM33.7815 7.77234C33.8085 7.97557 33.8085 8.18126 33.8085 8.38939C33.8085 11.3082 32.3025 12.8998 29.991 12.8998C28.5071 12.8998 27.5767 12.1579 27.5767 10.9115C27.5767 9.98101 28.3333 9.30029 29.8147 8.9281C30.8456 8.68078 32.2511 8.5559 33.7815 7.77234Z" fill="black"/>
<path d="M48.5321 0.225593C48.6325 1.44747 48.6815 1.86129 48.6815 3.1909C48.6815 3.64146 48.6815 4.0969 48.657 4.56459C47.5477 3.62187 46.2181 3.1909 44.482 3.1909C41.2155 3.1909 38.8306 5.37265 38.8306 8.75423C38.8306 12.0917 41.1911 14.1755 44.5065 14.1755C46.4924 14.1755 47.9004 13.3944 48.8015 11.8224V12.0085C48.8015 12.6794 48.9312 13.321 49.132 13.9429C49.5116 13.8572 49.8887 13.818 50.2927 13.818C50.6477 13.818 50.9979 13.8597 51.3725 13.9429C50.8975 12.8043 50.873 10.8552 50.873 8.09799V6.50147C50.873 3.88877 50.873 2.33878 51.0248 0.223145C50.6208 0.284361 50.1923 0.328436 49.7907 0.328436C49.3622 0.330885 48.9582 0.286809 48.5321 0.225593ZM48.7084 6.16356C48.7574 6.6386 48.7574 7.11608 48.7574 7.52991C48.7574 11.056 47.5012 12.7969 44.9914 12.7969C42.7239 12.7969 41.218 11.2837 41.218 8.60731C41.218 6.01664 42.7729 4.54501 45.0624 4.54501C46.4703 4.54745 47.7534 5.1033 48.7084 6.16356Z" fill="black"/>
<path d="M48.5321 0.225593C48.6325 1.44747 48.6815 1.86129 48.6815 3.1909C48.6815 3.64146 48.6815 4.0969 48.657 4.56459C47.5477 3.62187 46.2181 3.1909 44.482 3.1909C41.2155 3.1909 38.8306 5.37265 38.8306 8.75423C38.8306 12.0917 41.1911 14.1755 44.5065 14.1755C46.4924 14.1755 47.9004 13.3944 48.8015 11.8224V12.0085C48.8015 12.6794 48.9312 13.321 49.132 13.9429C49.5116 13.8572 49.8887 13.818 50.2927 13.818C50.6477 13.818 50.9979 13.8597 51.3725 13.9429C50.8975 12.8043 50.873 10.8552 50.873 8.09799V6.50147C50.873 3.88877 50.873 2.33878 51.0248 0.223145C50.6208 0.284361 50.1923 0.328436 49.7907 0.328436C49.3622 0.330885 48.9582 0.286809 48.5321 0.225593ZM48.7084 6.16356C48.7574 6.6386 48.7574 7.11608 48.7574 7.52991C48.7574 11.056 47.5012 12.7969 44.9914 12.7969C42.7239 12.7969 41.218 11.2837 41.218 8.60731C41.218 6.01664 42.7729 4.54501 45.0624 4.54501C46.4703 4.54745 47.7534 5.1033 48.7084 6.16356Z" fill="black"/>
<path d="M65.5625 8.89382C65.5625 8.74445 65.5869 8.62202 65.5869 8.4751C65.5869 5.55631 63.4885 3.19092 60.1461 3.19092C56.5612 3.19092 53.853 5.52448 53.853 8.83505C53.853 12.0648 56.358 14.1731 60.2195 14.1731C62.0266 14.1731 63.6623 13.8009 65.0727 13.0737V11.5677C63.8362 12.415 62.4306 12.8239 60.9247 12.8239C57.9619 12.8239 56.1743 11.1955 56.1646 9.56719C56.1646 9.38599 56.1866 9.13623 56.2356 8.89137H65.5625V8.89382ZM63.3464 7.53727H56.3678C56.6739 5.94565 58.1675 4.4936 60.1485 4.4936C62.1295 4.4936 63.3464 5.94565 63.3464 7.53727Z" fill="black"/>
<path d="M65.5625 8.89382C65.5625 8.74445 65.5869 8.62202 65.5869 8.4751C65.5869 5.55631 63.4885 3.19092 60.1461 3.19092C56.5612 3.19092 53.853 5.52448 53.853 8.83505C53.853 12.0648 56.358 14.1731 60.2195 14.1731C62.0266 14.1731 63.6623 13.8009 65.0727 13.0737V11.5677C63.8362 12.415 62.4306 12.8239 60.9247 12.8239C57.9619 12.8239 56.1743 11.1955 56.1646 9.56719C56.1646 9.38599 56.1866 9.13623 56.2356 8.89137H65.5625V8.89382ZM63.3464 7.53727H56.3678C56.6739 5.94565 58.1675 4.4936 60.1485 4.4936C62.1295 4.4936 63.3464 5.94565 63.3464 7.53727Z" fill="black"/>
<path d="M85.9328 13.8402C85.5092 13.8402 85.1076 13.8574 84.6816 13.9431C84.8089 12.78 84.8089 11.5018 84.8089 10.1134V9.06046C84.8089 7.59127 84.782 6.55794 84.4024 5.93844C83.9764 5.21609 83.0728 4.74105 82.1129 4.74105C80.9058 4.74105 79.7965 5.25526 78.8391 6.24697C78.8636 6.59957 78.8905 6.89096 78.8905 7.16031C78.8905 8.07121 78.8636 8.9968 78.8636 9.93218C78.8636 11.3377 78.942 12.66 79.0913 13.9431C78.6628 13.8574 78.2343 13.8402 77.8327 13.8402C77.4018 13.8402 77.0026 13.8574 76.5717 13.9431C76.6745 12.8706 76.699 11.585 76.699 10.1134V8.79111C76.699 7.50802 76.6476 6.55794 76.295 5.93599C75.8934 5.21364 75.0388 4.77778 74.0594 4.77778C72.9011 4.77778 71.8213 5.3777 70.7218 6.59467C70.6974 7.38314 70.6974 8.16671 70.6974 8.93313C70.6974 10.6888 70.7488 12.3661 70.8492 13.9382C70.4476 13.8525 70.0142 13.8353 69.6126 13.8353C69.1841 13.8353 68.7801 13.8525 68.354 13.9382C68.4519 12.0356 68.5034 10.2725 68.5034 8.68337C68.5034 6.84444 68.4544 5.1059 68.354 3.44816C68.7286 3.51428 69.1131 3.55346 69.5147 3.55346C69.8893 3.55346 70.2933 3.51428 70.6729 3.44816L70.5651 5.33117C71.9192 3.86688 73.2537 3.18616 75.0094 3.18616C76.5447 3.18616 77.8278 3.86688 78.4057 5.02509C79.7427 3.76649 81.1825 3.14453 82.8157 3.14453C85.8814 3.14453 87.0029 4.55005 87.0029 7.50312C87.0029 10.6276 87.0029 12.7751 87.1523 13.9357C86.7556 13.8574 86.332 13.8402 85.9328 13.8402Z" fill="black"/>
<path d="M85.9328 13.8402C85.5092 13.8402 85.1076 13.8574 84.6816 13.9431C84.8089 12.78 84.8089 11.5018 84.8089 10.1134V9.06046C84.8089 7.59127 84.782 6.55794 84.4024 5.93844C83.9764 5.21609 83.0728 4.74105 82.1129 4.74105C80.9058 4.74105 79.7965 5.25526 78.8391 6.24697C78.8636 6.59957 78.8905 6.89096 78.8905 7.16031C78.8905 8.07121 78.8636 8.9968 78.8636 9.93218C78.8636 11.3377 78.942 12.66 79.0913 13.9431C78.6628 13.8574 78.2343 13.8402 77.8327 13.8402C77.4018 13.8402 77.0026 13.8574 76.5717 13.9431C76.6745 12.8706 76.699 11.585 76.699 10.1134V8.79111C76.699 7.50802 76.6476 6.55794 76.295 5.93599C75.8934 5.21364 75.0388 4.77778 74.0594 4.77778C72.9011 4.77778 71.8213 5.3777 70.7218 6.59467C70.6974 7.38314 70.6974 8.16671 70.6974 8.93313C70.6974 10.6888 70.7488 12.3661 70.8492 13.9382C70.4476 13.8525 70.0142 13.8353 69.6126 13.8353C69.1841 13.8353 68.7801 13.8525 68.354 13.9382C68.4519 12.0356 68.5034 10.2725 68.5034 8.68337C68.5034 6.84444 68.4544 5.1059 68.354 3.44816C68.7286 3.51428 69.1131 3.55346 69.5147 3.55346C69.8893 3.55346 70.2933 3.51428 70.6729 3.44816L70.5651 5.33117C71.9192 3.86688 73.2537 3.18616 75.0094 3.18616C76.5447 3.18616 77.8278 3.86688 78.4057 5.02509C79.7427 3.76649 81.1825 3.14453 82.8157 3.14453C85.8814 3.14453 87.0029 4.55005 87.0029 7.50312C87.0029 10.6276 87.0029 12.7751 87.1523 13.9357C86.7556 13.8574 86.332 13.8402 85.9328 13.8402Z" fill="black"/>
<path d="M92.1157 3.55817C92.5393 3.55817 92.9923 3.51655 93.4159 3.45288C93.318 5.08858 93.2641 6.82712 93.2641 8.68809C93.2641 10.4487 93.318 12.2043 93.4159 13.9453C92.9923 13.8596 92.5662 13.8425 92.1647 13.8425C91.7386 13.8425 91.315 13.8596 90.8889 13.9453C90.9893 11.9987 91.0407 10.2209 91.0407 8.68809C91.0407 6.952 91.0138 5.21591 90.8889 3.45288C91.288 3.51655 91.7141 3.55817 92.1157 3.55817Z" fill="black"/>
<path d="M2.97754 18.0124C2.62004 17.8019 2.26498 17.6868 1.89034 17.6868C1.43 17.6868 1.16554 17.8631 1.16554 18.103C1.16554 18.3504 1.44224 18.414 1.91972 18.556C2.26988 18.6564 2.48781 18.7177 2.56372 18.7568C2.92612 18.9454 3.08283 19.1339 3.08283 19.4767C3.08283 20.0742 2.56372 20.4978 1.72628 20.4978C1.28308 20.4978 0.905985 20.3974 0.582764 20.2113V19.7191C0.935369 19.9493 1.32715 20.0644 1.72628 20.0644C2.22336 20.0644 2.49761 19.8636 2.49761 19.5575C2.49761 19.2098 2.12051 19.1609 1.45693 18.9625C0.871704 18.7838 0.582764 18.6075 0.582764 18.1422C0.582764 17.6427 1.07494 17.2729 1.88055 17.2729C2.26988 17.2729 2.63473 17.3538 2.97754 17.5203V18.0124Z" fill="black"/>
<path d="M8.11229 17.9439C7.84539 17.7553 7.57848 17.6672 7.2822 17.6672C6.57944 17.6672 6.10685 18.1373 6.10685 18.9037C6.10685 19.6628 6.57209 20.1011 7.31403 20.1011C7.60542 20.1011 7.90171 19.9934 8.20534 19.7779V20.2162C7.89681 20.4097 7.54175 20.5076 7.15732 20.5076C6.20235 20.5076 5.4751 19.8391 5.4751 18.916C5.4751 17.961 6.21459 17.2729 7.22098 17.2729C7.50503 17.2729 7.79886 17.3317 8.10984 17.4493V17.9439" fill="black"/>
<path d="M10.8475 17.3563C10.8793 17.8657 10.8891 18.3799 10.8891 18.8892C10.8891 19.3373 10.8744 19.8613 10.8475 20.4245C10.9626 20.4025 11.0752 20.3976 11.1903 20.3976C11.2981 20.3976 11.4107 20.4049 11.5258 20.4245C11.4964 19.9201 11.4842 19.4034 11.4842 18.8892C11.4842 18.3407 11.4964 17.8289 11.5258 17.3563C11.4107 17.371 11.2907 17.3833 11.1781 17.3833C11.0654 17.3833 10.9553 17.371 10.8475 17.3563ZM11.183 16.1516C10.965 16.1516 10.8132 16.2961 10.8132 16.4871C10.8132 16.6756 10.9773 16.8274 11.183 16.8274C11.3911 16.8274 11.5552 16.6756 11.5552 16.4871C11.5552 16.2887 11.396 16.1516 11.183 16.1516Z" fill="black"/>
<path d="M17.2605 18.7544C17.2605 18.7152 17.2654 18.676 17.2654 18.6319C17.2654 17.7774 16.712 17.2729 15.8158 17.2729C14.8559 17.2729 14.1287 17.9561 14.1287 18.9258C14.1287 19.8759 14.7996 20.4954 15.8354 20.4954C16.3226 20.4954 16.7561 20.3827 17.1356 20.1721V19.7314C16.8075 19.9787 16.4328 20.0987 16.0264 20.0987C15.2306 20.0987 14.7384 19.6408 14.7384 18.9527C14.7384 18.894 14.7433 18.8254 14.7629 18.7519H17.2605V18.7544ZM16.6777 18.4165H14.8069C14.8877 17.9488 15.2844 17.6549 15.8182 17.6549C16.3496 17.6525 16.6777 17.9488 16.6777 18.4165Z" fill="black"/>
<path d="M22.3881 20.3974C22.2754 20.3974 22.1677 20.4048 22.0551 20.4244C22.082 20.1134 22.0918 19.7363 22.0918 19.3053V18.916C22.0918 18.5438 22.0747 18.2622 21.9841 18.0786C21.8739 17.868 21.6486 17.7357 21.3866 17.7357C21.0732 17.7357 20.7891 17.9145 20.4953 18.272C20.4879 18.5046 20.4879 18.7348 20.4879 18.9625C20.4879 19.4792 20.5051 19.9689 20.5296 20.4268C20.4218 20.4048 20.3092 20.3999 20.199 20.3999C20.0839 20.3999 19.9762 20.4072 19.8635 20.4268C19.888 19.871 19.9003 19.3567 19.9003 18.8915C19.9003 18.3479 19.888 17.8386 19.8635 17.3587C19.9664 17.3733 20.0668 17.3856 20.1721 17.3856C20.2724 17.3856 20.3802 17.3733 20.4806 17.3587L20.4488 17.9047C20.8063 17.4762 21.1662 17.2729 21.6217 17.2729C22.3856 17.2729 22.6721 17.6917 22.6721 18.5658C22.6721 19.5796 22.6819 20.204 22.7137 20.4293C22.6085 20.4023 22.4958 20.3974 22.3881 20.3974Z" fill="black"/>
<path d="M26.3646 17.3906C26.8544 17.3906 27.2388 17.3833 27.5057 17.3711V17.7922C27.2021 17.78 26.8201 17.7726 26.3646 17.7726V19.1267V19.2786C26.3646 19.8442 26.3867 20.1013 26.8054 20.1013C27.0331 20.1013 27.2462 20.0278 27.4371 19.8711V20.2849C27.2168 20.4294 26.967 20.498 26.656 20.498C25.9484 20.498 25.7525 20.0964 25.7525 19.2002C25.7525 19.068 25.7574 18.97 25.7574 18.9162L25.7647 17.6796C25.7647 17.4519 25.7574 17.1874 25.7402 16.8985C26.0169 16.8495 26.2226 16.7932 26.3744 16.7222C26.3646 16.9744 26.3646 17.1972 26.3646 17.3906Z" fill="black"/>
<path d="M30.4464 17.3833C30.5639 17.3833 30.6863 17.371 30.799 17.3564C30.772 17.8289 30.7574 18.3407 30.7574 18.8892C30.7574 19.4059 30.772 19.9225 30.799 20.4245C30.6863 20.4025 30.5713 20.3976 30.4635 20.3976C30.3484 20.3976 30.2358 20.4049 30.1183 20.4245C30.1452 19.8589 30.1599 19.3349 30.1599 18.8892C30.1599 18.3799 30.1501 17.8657 30.1183 17.3564C30.2284 17.371 30.3386 17.3833 30.4464 17.3833ZM30.8284 16.4846C30.8284 16.6732 30.6594 16.825 30.4562 16.825C30.2456 16.825 30.0864 16.6732 30.0864 16.4846C30.0864 16.2936 30.2407 16.1492 30.4562 16.1492C30.6692 16.1516 30.8284 16.2887 30.8284 16.4846Z" fill="black"/>
<path d="M35.7281 16.6829C35.5298 16.5776 35.3388 16.5238 35.1209 16.5238C34.663 16.5238 34.445 16.7784 34.445 17.2975V17.3906C34.8564 17.3906 35.2531 17.3832 35.64 17.371V17.7922C35.2531 17.7848 34.8564 17.7726 34.4524 17.7726V18.4704C34.4524 19.2418 34.4597 19.8956 34.4867 20.4269C34.3422 20.4049 34.232 20.3926 34.1194 20.3926C34.019 20.3926 33.9112 20.4049 33.7937 20.4269C33.8182 19.6776 33.8304 19.0679 33.8304 18.6223C33.8304 18.446 33.8231 18.1031 33.8231 17.584C33.8231 16.6242 34.2222 16.1638 35.0743 16.1638C35.2996 16.1638 35.5175 16.2054 35.7257 16.2911V16.6829" fill="black"/>
<path d="M38.4583 17.3833C38.5685 17.3833 38.691 17.371 38.8061 17.3564C38.7767 17.8289 38.762 18.3407 38.762 18.8892C38.762 19.4059 38.7767 19.9225 38.8061 20.4245C38.691 20.4025 38.5783 20.3976 38.4706 20.3976C38.358 20.3976 38.2429 20.4049 38.1278 20.4245C38.1523 19.8589 38.167 19.3349 38.167 18.8892C38.167 18.3799 38.1621 17.8657 38.1278 17.3564C38.2355 17.371 38.3506 17.3833 38.4583 17.3833ZM38.8354 16.4846C38.8354 16.6732 38.6714 16.825 38.4608 16.825C38.2551 16.825 38.0959 16.6732 38.0959 16.4846C38.0959 16.2936 38.2478 16.1492 38.4608 16.1492C38.6787 16.1516 38.8354 16.2887 38.8354 16.4846Z" fill="black"/>
<path d="M44.1516 17.7336C43.8088 17.4152 43.4292 17.2683 42.9371 17.2683C42.0825 17.2683 41.4336 17.9001 41.4336 18.8942C41.4336 19.8639 42.0825 20.5005 42.9713 20.5005C43.4488 20.5005 43.8088 20.3193 44.0683 19.952C44.0732 20.1504 44.0732 20.3536 44.0732 20.5348C44.0732 20.978 44.061 21.3943 44.0341 21.7763C44.1516 21.7493 44.2544 21.7444 44.3695 21.7444C44.4748 21.7444 44.5899 21.7493 44.7001 21.7763C44.6585 21.1739 44.6511 20.3218 44.6511 19.2419C44.6462 18.4608 44.6462 17.8364 44.7956 17.3589C44.7099 17.3736 44.6144 17.3858 44.5262 17.3858C44.4307 17.3858 44.3475 17.3736 44.252 17.3589C44.2128 17.4887 44.1761 17.616 44.1516 17.7336ZM44.0683 18.1302C44.0732 18.2723 44.0806 18.3996 44.0806 18.5171C44.0806 19.5774 43.7843 20.0867 43.0815 20.0867C42.4547 20.0867 42.0311 19.6337 42.0311 18.8673C42.0311 18.1057 42.4767 17.6454 43.0938 17.6454C43.466 17.6454 43.7941 17.8095 44.0683 18.1302Z" fill="black"/>
<path d="M47.8441 17.3905C47.9445 17.3905 48.0719 17.3783 48.209 17.3538C48.1723 17.6574 48.1527 18.1569 48.1527 18.8376C48.1527 19.653 48.2996 20.0497 48.902 20.0497C49.4896 20.0497 49.7369 19.6114 49.7418 18.7275C49.7418 18.1569 49.732 17.6966 49.7027 17.3513C49.83 17.3758 49.9402 17.388 50.0406 17.388C50.1385 17.388 50.261 17.3758 50.3981 17.3513C50.3736 17.5913 50.3613 17.7945 50.3613 17.9463V19.6628C50.3613 19.9518 50.4079 20.2211 50.4838 20.4219C50.3834 20.4072 50.283 20.3876 50.1899 20.3876C50.0969 20.3876 49.9916 20.4048 49.8741 20.4219C49.8324 20.2872 49.8055 20.0791 49.8006 19.8245C49.6047 20.2505 49.1738 20.5052 48.6767 20.5052C48.2849 20.5052 47.9715 20.3534 47.7805 20.0938C47.5723 19.8122 47.5625 19.3739 47.5625 18.7421V18.3014C47.5625 17.9684 47.5601 17.6525 47.5479 17.3538C47.658 17.3783 47.7584 17.3905 47.8441 17.3905Z" fill="black"/>
<path d="M56.1475 18.7544C56.1475 18.7152 56.1572 18.676 56.1572 18.6319C56.1572 17.7774 55.6039 17.2729 54.7076 17.2729C53.7429 17.2729 53.0132 17.9561 53.0132 18.9258C53.0132 19.8759 53.6915 20.4954 54.7272 20.4954C55.2121 20.4954 55.6479 20.3827 56.0275 20.1721V19.7314C55.6969 19.9787 55.3198 20.0987 54.9133 20.0987C54.12 20.0987 53.6302 19.6408 53.6302 18.9527C53.6302 18.894 53.6376 18.8254 53.6474 18.7519H56.1475V18.7544ZM55.5696 18.4165H53.6939C53.7772 17.9488 54.1738 17.6549 54.7076 17.6549C55.239 17.6525 55.5696 17.9488 55.5696 18.4165Z" fill="black"/>
<path d="M65.0433 16.1614C65.0703 16.5213 65.0849 16.8886 65.0849 17.2829C65.0849 17.4151 65.0849 17.5473 65.0752 17.6844C64.7789 17.4102 64.4238 17.2829 63.9586 17.2829C63.082 17.2829 62.4478 17.922 62.4478 18.9039C62.4478 19.8784 63.0771 20.4955 63.9635 20.4955C64.4973 20.4955 64.8719 20.2653 65.1168 19.8001V19.8564C65.1168 20.0572 65.1511 20.2482 65.2049 20.422C65.3078 20.4 65.4057 20.3877 65.5135 20.3877C65.6065 20.3877 65.7045 20.4 65.8024 20.422C65.6751 20.0964 65.6677 19.5209 65.6677 18.7129V18.2403C65.6677 17.4739 65.6677 16.7735 65.7094 16.1589C65.6016 16.1761 65.4865 16.1908 65.3763 16.1908C65.2637 16.1932 65.1584 16.1785 65.0433 16.1614ZM65.0923 18.1546C65.1094 18.2893 65.1094 18.4313 65.1094 18.5537C65.1094 19.5821 64.7691 20.089 64.0932 20.089C63.4909 20.089 63.0844 19.6507 63.0844 18.8671C63.0844 18.1105 63.5031 17.682 64.1153 17.682C64.4899 17.682 64.8352 17.8436 65.0923 18.1546Z" fill="black"/>
<path d="M71.4392 18.7544C71.4392 18.7152 71.4465 18.676 71.4465 18.6319C71.4465 17.7774 70.8931 17.2729 69.9969 17.2729C69.0371 17.2729 68.3074 17.9561 68.3074 18.9258C68.3074 19.8759 68.9808 20.4954 70.0141 20.4954C70.5014 20.4954 70.9421 20.3827 71.3168 20.1721V19.7314C70.9862 19.9787 70.6091 20.0987 70.2051 20.0987C69.4117 20.0987 68.9171 19.6408 68.9171 18.9527C68.9171 18.894 68.922 18.8254 68.9391 18.7519H71.4392V18.7544ZM70.8613 18.4165H68.9857C69.064 17.9488 69.468 17.6549 69.9945 17.6549C70.5283 17.6525 70.8613 17.9488 70.8613 18.4165Z" fill="black"/>
<path d="M77.845 16.1516C77.8621 16.4699 77.8621 16.7736 77.8621 17.0503C77.8621 17.6722 77.8352 18.1938 77.8352 18.5905C77.8352 19.183 77.8842 19.6115 78.1192 19.9446C78.3739 20.3045 78.7975 20.5004 79.3485 20.5004C80.372 20.5004 81.0723 19.8148 81.0723 18.8059C81.0723 17.8901 80.4553 17.2755 79.5909 17.2755C79.1428 17.2755 78.7755 17.4151 78.4253 17.7261C78.4351 17.2143 78.467 16.6805 78.5184 16.1541C78.4082 16.1712 78.2882 16.181 78.1756 16.181C78.0678 16.1785 77.9601 16.1688 77.845 16.1516ZM78.4351 18.1301C78.729 17.8142 79.0693 17.6551 79.4587 17.6551C80.0463 17.6551 80.4553 18.0958 80.4553 18.877C80.4553 19.614 80.0218 20.067 79.4097 20.067C78.6555 20.067 78.4229 19.5699 78.4229 18.5097C78.4229 18.4044 78.4229 18.2795 78.4351 18.1301Z" fill="black"/>
<path d="M86.6404 18.7544C86.6404 18.7152 86.6477 18.676 86.6477 18.6319C86.6477 17.7774 86.0919 17.2729 85.1957 17.2729C84.2382 17.2729 83.5085 17.9561 83.5085 18.9258C83.5085 19.8759 84.1795 20.4954 85.2177 20.4954C85.7001 20.4954 86.1335 20.3827 86.5155 20.1721V19.7314C86.1825 19.9787 85.8127 20.0987 85.4062 20.0987C84.6129 20.0987 84.1183 19.6408 84.1183 18.9527C84.1183 18.894 84.1281 18.8254 84.1452 18.7519H86.6404V18.7544ZM86.0625 18.4165H84.1893C84.2725 17.9488 84.6668 17.6549 85.1957 17.6549C85.7319 17.6525 86.0625 17.9488 86.0625 18.4165Z" fill="black"/>
<path d="M91.9148 20.4244C91.785 20.0938 91.7703 19.7241 91.7703 19.3347V18.9332C91.7703 18.7397 91.7703 18.5438 91.7532 18.343C91.6871 17.5864 91.3247 17.2656 90.4089 17.2656C90.0196 17.2656 89.6792 17.3391 89.3633 17.4762V17.9121C89.6645 17.7235 89.9583 17.6305 90.3011 17.6305C90.8717 17.6305 91.19 17.8631 91.19 18.2598V18.2941C91.0015 18.4287 90.6684 18.5022 90.2105 18.605C89.7478 18.7079 89.4025 18.7813 89.1601 19.0287C89.0132 19.1829 88.9397 19.3715 88.9397 19.5869C88.9397 20.133 89.3633 20.5052 89.9828 20.5052C90.5289 20.5052 90.9402 20.2775 91.2292 19.8098V19.8759C91.2292 20.0522 91.2488 20.2334 91.3026 20.4219C91.4055 20.3999 91.5034 20.395 91.6038 20.395C91.7091 20.3974 91.8144 20.4023 91.9148 20.4244ZM91.1973 18.6197C91.2071 18.6809 91.2071 18.7397 91.2071 18.7985C91.2071 19.6531 90.8056 20.1207 90.1836 20.1207C89.7894 20.1207 89.5421 19.9004 89.5421 19.538C89.5421 19.2662 89.7453 19.0678 90.1395 18.9576C90.4113 18.8842 90.7909 18.8475 91.1973 18.6197Z" fill="black"/>
<path d="M94.8974 17.3905C94.9953 17.3905 95.1202 17.3783 95.2598 17.3538C95.223 17.6574 95.201 18.1569 95.201 18.8376C95.201 19.653 95.3479 20.0497 95.9552 20.0497C96.5404 20.0497 96.7877 19.6114 96.7877 18.7275C96.7877 18.1569 96.7828 17.6966 96.7461 17.3513C96.8808 17.3758 96.991 17.388 97.0889 17.388C97.1942 17.388 97.3142 17.3758 97.4489 17.3513C97.4268 17.5913 97.417 17.7945 97.417 17.9463V19.6628C97.417 19.9518 97.4586 20.2211 97.537 20.4219C97.4342 20.4072 97.3313 20.3876 97.2432 20.3876C97.1452 20.3876 97.0424 20.4048 96.9248 20.4219C96.8832 20.2872 96.8587 20.0791 96.8514 19.8245C96.6555 20.2505 96.2245 20.5052 95.7299 20.5052C95.3406 20.5052 95.0271 20.3534 94.8312 20.0938C94.6256 19.8122 94.6182 19.3739 94.6182 18.7421V18.3014C94.6182 17.9684 94.6158 17.6525 94.6011 17.3538C94.7088 17.3783 94.8117 17.3905 94.8974 17.3905Z" fill="black"/>
<path d="M101.127 17.3906C101.619 17.3906 102.001 17.3833 102.273 17.3711V17.7922C101.969 17.78 101.587 17.7726 101.127 17.7726V19.1267V19.2786C101.127 19.8442 101.146 20.1013 101.572 20.1013C101.802 20.1013 102.015 20.0278 102.204 19.8711V20.2849C101.984 20.4294 101.734 20.498 101.423 20.498C100.718 20.498 100.514 20.0964 100.514 19.2002C100.514 19.068 100.519 18.97 100.519 18.9162L100.534 17.6796C100.534 17.4519 100.519 17.1874 100.51 16.8985C100.786 16.8495 100.989 16.7932 101.144 16.7222C101.127 16.9744 101.127 17.1972 101.127 17.3906Z" fill="black"/>
<path d="M107.75 18.7546C107.75 18.7154 107.758 18.6762 107.758 18.6321C107.758 17.7775 107.204 17.2731 106.306 17.2731C105.348 17.2731 104.618 17.9563 104.618 18.926C104.618 19.876 105.294 20.4955 106.33 20.4955C106.815 20.4955 107.253 20.3829 107.625 20.1723V19.7316C107.3 19.9789 106.92 20.0989 106.516 20.0989C105.718 20.0989 105.228 19.641 105.228 18.9529C105.228 18.8941 105.235 18.8256 105.248 18.7521H107.75V18.7546ZM106.541 15.8921L105.855 16.9475H106.198L107.143 15.8921H106.541ZM107.17 18.4166H105.297C105.375 17.949 105.777 17.6551 106.306 17.6551C106.839 17.6527 107.17 17.949 107.17 18.4166Z" fill="black"/>
<path d="M107.973 8.8523C107.973 8.70783 108 8.5805 108 8.43603C108 5.51969 105.894 3.1543 102.562 3.1543C98.9719 3.1543 96.271 5.48541 96.271 8.79843C96.271 12.0257 98.7711 14.1389 102.633 14.1389C104.44 14.1389 106.073 13.7618 107.483 13.037V11.5336C106.252 12.3759 104.844 12.7873 103.335 12.7873C100.375 12.7873 98.5874 11.1565 98.5776 9.53057C98.5752 9.34692 98.6021 9.09716 98.6511 8.8523H107.973ZM105.757 7.4982H98.7809C99.082 5.90902 100.573 4.45453 102.559 4.45453C104.54 4.45208 105.757 5.90902 105.757 7.4982Z" fill="black"/>
<path d="M107.973 8.8523C107.973 8.70783 108 8.5805 108 8.43603C108 5.51969 105.894 3.1543 102.562 3.1543C98.9719 3.1543 96.271 5.48541 96.271 8.79843C96.271 12.0257 98.7711 14.1389 102.633 14.1389C104.44 14.1389 106.073 13.7618 107.483 13.037V11.5336C106.252 12.3759 104.844 12.7873 103.335 12.7873C100.375 12.7873 98.5874 11.1565 98.5776 9.53057C98.5752 9.34692 98.6021 9.09716 98.6511 8.8523H107.973ZM105.757 7.4982H98.7809C99.082 5.90902 100.573 4.45453 102.559 4.45453C104.54 4.45208 105.757 5.90902 105.757 7.4982Z" fill="black"/>
<path d="M96.9296 0.279541C96.9296 0.279541 94.2092 1.31042 91.8732 1.31042C89.5347 1.31042 87.282 0.279541 87.282 0.279541H96.9296Z" fill="black"/>
<path d="M65.2639 0.279541C65.2639 0.279541 62.5459 1.30552 60.205 1.30552C57.869 1.30552 55.6187 0.279541 55.6187 0.279541H65.2639Z" fill="black"/>
</g>
<defs>
<clipPath id="clip0">
<rect width="108" height="21.5481" fill="white" transform="translate(0 0.226074)"/>
</clipPath>
</defs>
</svg>
