<svg width="450" height="91" viewBox="0 0 450 91" fill="none" xmlns="http://www.w3.org/2000/svg">
<path d="M64.776 53.144C58.536 58.232 46.632 61.304 37.416 61.496C23.592 61.688 17.544 55.928 16.296 47C26.184 46.712 42.6 46.712 64.392 47.096C66.408 27.8 51.336 17.528 32.136 17.528C12.648 17.528 0.36 27.704 0.36 44.984C0.36 62.072 12.36 72.344 35.688 72.344C45.96 72.344 56.616 70.328 64.776 66.296C63.912 62.744 63.912 56.792 64.776 53.144ZM32.136 27.8C41.352 27.8 47.592 32.888 48.744 42.392C37.512 42.584 25.32 42.584 16.104 42.296C16.584 32.792 22.536 27.8 32.136 27.8ZM66.2722 71H87.6802C91.2322 65.432 95.8402 57.944 100.832 51.608C105.632 57.944 110.336 65.432 113.792 71H135.296C125.6 61.88 117.728 53.24 110.048 44.6C117.632 36.248 125.6 28.088 134.72 19.16C128.384 20.312 120.128 20.216 114.176 19.16C110.624 24.728 105.728 31.64 100.928 37.88C95.9362 31.64 91.1362 24.728 87.4882 19.16C81.9202 20.312 73.2802 20.216 67.0402 19.16C76.1602 28.184 83.8402 36.344 91.6162 44.696C83.7442 53.432 75.9682 61.88 66.2722 71ZM182.212 17.624C169.06 17.624 160.324 26.36 156.388 35.96H155.14C155.62 30.488 156.388 24.824 158.212 17.432C154.084 19.256 146.788 20.408 140.356 20.792C142.468 39.704 142.468 76.28 140.356 90.008C145.828 89.336 151.588 89.336 158.5 90.2C157.444 81.368 157.156 72.536 157.06 63.704C161.476 69.656 169.348 72.536 176.932 72.536C195.076 72.536 206.884 60.44 206.884 43.736C206.884 28.184 196.516 17.624 182.212 17.624ZM171.556 64.184C166.852 64.184 161.572 62.84 156.964 58.52V50.648C156.964 40.184 160.132 28.184 174.82 28.184C185.38 28.184 191.332 34.808 191.332 44.6C191.332 57.368 182.5 64.184 171.556 64.184ZM277.555 53.144C271.315 58.232 259.411 61.304 250.195 61.496C236.371 61.688 230.323 55.928 229.075 47C238.963 46.712 255.379 46.712 277.171 47.096C279.187 27.8 264.115 17.528 244.915 17.528C225.427 17.528 213.139 27.704 213.139 44.984C213.139 62.072 225.139 72.344 248.467 72.344C258.739 72.344 269.395 70.328 277.555 66.296C276.691 62.744 276.691 56.792 277.555 53.144ZM244.915 27.8C254.131 27.8 260.371 32.888 261.523 42.392C250.291 42.584 238.099 42.584 228.883 42.296C229.363 32.792 235.315 27.8 244.915 27.8ZM304.64 71C303.104 64.28 303.104 58.232 303.104 51.512C303.104 39.512 308.672 32.6 319.616 32.6C322.016 32.6 325.088 33.08 328.64 34.136C327.392 28.472 327.392 22.616 328.64 18.584C319.616 16.376 308.192 22.04 302.912 38.456H301.664C301.952 31.256 302.624 25.208 304.064 17.72C299.936 19.544 292.928 20.696 286.688 21.08C288.896 37.88 288.896 55.064 286.688 71H304.64ZM357.599 28.568C366.719 28.568 375.839 28.952 383.903 29.72C383.519 25.688 383.519 23.288 383.903 19.352C375.935 20.12 366.815 20.504 357.791 20.504C357.887 13.88 358.079 7.16 358.271 0.823999C353.567 3.128 348.191 3.992 341.855 4.664C342.335 8.792 342.623 14.36 342.911 20.216C338.207 20.024 333.599 19.736 329.279 19.352C329.663 22.136 329.663 26.936 329.279 29.72C333.695 29.336 338.303 29.048 343.199 28.856C343.487 39.512 343.487 49.688 343.487 53.24C343.487 67.832 353.951 72.056 365.183 72.152C371.807 72.152 378.623 70.712 383.711 69.176C382.943 65.624 383.135 61.88 383.903 58.328C379.583 59.48 374.207 61.016 369.407 60.92C362.495 60.824 356.927 57.656 357.119 46.328C357.215 41.048 357.407 34.904 357.599 28.568ZM420.95 72.344C438.806 72.344 449.75 67.448 449.75 55.448C449.75 31.256 404.246 48.152 404.246 34.232C404.246 29.624 408.758 27.704 418.454 27.704C429.878 27.704 439.382 30.872 447.062 34.712C445.622 29.144 445.526 25.4 446.774 21.944C437.654 19.448 430.166 17.72 419.318 17.72C408.374 17.72 389.174 18.968 389.174 34.232C389.174 57.848 434.39 42.296 434.39 55.256C434.39 59.48 429.686 61.784 420.47 61.784C409.526 61.784 396.566 58.616 390.326 53.624C391.574 56.504 391.574 62.744 390.326 66.296C398.39 70.424 410.102 72.344 420.95 72.344Z" fill="#FFD7D2"/>
</svg>
