<svg width="30" height="86" viewBox="0 0 30 86" fill="none" xmlns="http://www.w3.org/2000/svg">
<path d="M16.1186 0.0559993C11.6666 0.0559993 9.00658 0.223999 4.05058 0.139998C4.38658 5.376 4.38658 15.96 4.05058 21H9.37058C9.17458 19.236 9.06258 16.968 8.97858 14.504H16.5946C24.6026 14.504 27.2906 11.536 27.2906 7.14C27.2906 1.96 23.7906 0.0559993 16.1186 0.0559993ZM15.3346 11.648C13.1786 11.648 11.0786 11.592 8.92258 11.536C8.89458 8.736 8.89458 5.824 8.95058 3.304C10.8826 3.304 13.3186 3.22 15.1666 3.22C20.0666 3.22 22.4186 4.368 22.4186 7.42C22.4186 10.192 20.2066 11.648 15.3346 11.648ZM3.7498 53H9.0138C8.8458 50.816 8.7618 48.94 8.7058 45.132C9.8818 45.132 11.0018 45.16 12.3458 45.244C18.1138 45.664 20.7458 47.736 21.6978 53H28.3338C26.9058 49.92 23.7978 45.692 18.2538 44.74V44.376C21.1378 44.376 27.4658 43.48 27.4658 38.16C27.4658 33.988 23.7978 32.056 15.9858 32.056C11.5058 32.056 8.5658 32.224 3.7498 32.14C4.0858 37.348 4.0858 47.764 3.7498 53ZM8.6778 42.22C8.6778 39.728 8.7058 37.46 8.7618 35.304C10.4418 35.304 13.1578 35.22 15.8458 35.22C19.8218 35.22 22.3418 36.116 22.3418 38.664C22.3418 41.408 19.7658 42.416 15.0058 42.416C12.8498 42.416 10.6098 42.276 8.6778 42.22ZM15.0185 85.42C23.8665 85.42 29.0745 81.416 29.0745 74.528C29.0745 67.64 23.8665 63.608 15.0185 63.608C6.17048 63.608 0.934484 67.612 0.934484 74.528C0.934484 81.416 6.17048 85.42 15.0185 85.42ZM15.0185 82.284C9.19448 82.284 5.80648 79.512 5.80648 74.64C5.80648 69.712 9.19448 66.772 15.0185 66.772C20.7865 66.772 24.2585 69.712 24.2585 74.64C24.2585 79.512 20.7865 82.284 15.0185 82.284Z" fill="#466FFF"/>
</svg>
