<svg width="291" height="59" viewBox="0 0 291 59" fill="none" xmlns="http://www.w3.org/2000/svg">
<path fill-rule="evenodd" clip-rule="evenodd" d="M45.0559 0.0349513V2.44517L40.1568 6.8499L44.9582 11.0892L44.9531 13.8297L38.6234 8.22814L35.0471 11.4448L45.0341 20.4276L45.0287 23.171L33.5149 12.8242L29.549 16.3902L45.0538 30.3724L45.0484 33.1182L28.0191 17.7661L24.0663 21.3214L45.1347 40.2154L45.1297 41.6748L45.067 41.8015L45.0677 42.5347C44.0247 51.6387 34.5953 58.8163 23.0728 58.9965L22.6286 59C10.4183 59 0.443677 51.1349 0.112083 41.3631L0.119963 41.3578L0.108502 41.2558V40.3503L45.0559 0.0349513ZM22.5365 22.6973L2.04888 41.123L2.03755 41.3631C2.37272 49.9724 11.2535 56.9073 22.2063 57.0815L22.6286 57.0848C33.7799 57.0848 42.8855 50.0828 43.225 41.3631L43.2236 41.2445L22.5365 22.6973ZM38.1927 0.000356646L0 34.3818L0.0375997 31.7768L35.4784 0.000356646H38.1927ZM29.2637 0L0 26.3408L0.0375997 23.7387L26.5171 0H29.2637ZM20.3346 0L0 18.3052L0.0375997 15.7006L17.5508 0H20.3346ZM11.4106 0.00106994L0 10.2632L0.0375997 7.66362L8.57882 0.00106994H11.4106Z" fill="white"/>
<path fill-rule="evenodd" clip-rule="evenodd" d="M171.862 22.42C173.599 22.42 175.23 23.0799 176.161 24.0901L174.679 25.4922C174.086 24.6882 173.005 24.1317 171.756 24.1317C170.4 24.1317 168.833 24.853 168.833 26.5028C168.833 28.0904 170.21 28.5232 171.904 29.0595C173.916 29.6779 176.31 30.4204 176.31 33.3274C176.31 36.3584 173.79 37.76 171.121 37.76C169.236 37.76 167.329 37.0387 166.186 35.6367L167.816 34.296C168.516 35.3067 169.786 36.0077 171.163 36.0077C172.561 36.0077 174.171 35.2449 174.171 33.5129C174.171 31.7398 172.518 31.2654 170.612 30.6881C168.706 30.1108 166.715 29.2658 166.715 26.585C166.715 23.678 169.384 22.42 171.862 22.42ZM193.034 22.42C195.089 22.42 197.313 23.2036 198.414 24.6882L196.762 25.9255C196.041 24.9356 194.58 24.2143 193.034 24.2143C189.561 24.2143 187.336 26.8734 187.336 30.0697C187.336 33.3481 189.518 35.9459 192.971 35.9459C194.644 35.9459 196.105 35.2656 196.995 34.0076L198.668 35.1212C197.503 36.6676 195.576 37.76 192.949 37.76C188.353 37.76 185.049 34.5642 185.049 30.0697C185.049 25.5129 188.48 22.42 193.034 22.42ZM238.703 22.42C243.278 22.42 246.666 25.5129 246.666 30.0697C246.666 34.5642 243.278 37.76 238.703 37.76C234.149 37.76 230.782 34.5642 230.782 30.0697C230.782 25.5129 234.149 22.42 238.703 22.42ZM263.258 22.42C267.833 22.42 271.222 25.5129 271.222 30.0697C271.222 34.5642 267.833 37.76 263.258 37.76C258.705 37.76 255.337 34.5642 255.337 30.0697C255.337 25.5129 258.705 22.42 263.258 22.42ZM77.2988 22.7915L83.7375 37.3894H81.3653L79.8402 33.8013H72.7236L71.2194 37.3894H68.8899L75.3921 22.7915H77.2988ZM98.5618 22.7915L106.399 34.4613H106.441V22.7915H108.537V37.3894H105.89L97.9688 25.4718H97.9266V37.3894H95.8293V22.7915H98.5618ZM124.442 22.7915V29.2242H124.485L131.178 22.7915H134.079L126.793 29.4716L134.524 37.3894H131.517L124.485 29.8426H124.442V37.3894H122.345V22.7915H124.442ZM210.899 22.7915V28.8943H218.481V22.7915H220.599V37.3894H218.481V30.7089H210.899V37.3894H208.802V22.7915H210.899ZM284.307 22.7915V35.5748H291V37.3894H282.211V22.7915H284.307ZM238.703 24.2143C235.251 24.2143 233.048 26.8734 233.048 30.0697C233.048 33.3274 235.271 35.9256 238.703 35.9256C242.176 35.9256 244.4 33.3274 244.4 30.0697C244.4 26.8734 242.197 24.2143 238.703 24.2143ZM263.258 24.2143C259.806 24.2143 257.603 26.8734 257.603 30.0697C257.603 33.3274 259.827 35.9256 263.258 35.9256C266.732 35.9256 268.956 33.3274 268.956 30.0697C268.956 26.8734 266.753 24.2143 263.258 24.2143ZM149.942 26.441C152.017 26.441 153.69 28.0696 153.69 30.0905C153.69 32.1109 152.017 33.7395 149.942 33.7395C147.866 33.7395 146.193 32.1109 146.193 30.0905C146.193 28.0696 147.866 26.441 149.942 26.441ZM76.2814 25.1622L73.4646 32.0075H79.077L76.2814 25.1622Z" fill="white"/>
</svg>
