<svg width="76" height="61" viewBox="0 0 76 61" fill="none" xmlns="http://www.w3.org/2000/svg">
<path d="M27.7256 5.00391H48.2748V41.7881H27.7256V5.00391Z" fill="#FF5F00"/>
<path d="M13.8309 60.3017V56.4027C13.8309 54.9078 12.9174 53.9333 11.3516 53.9333C10.5689 53.9333 9.72076 54.1932 9.13356 55.038C8.67711 54.3231 8.02482 53.9333 7.04625 53.9333C6.39367 53.9333 5.74168 54.128 5.21955 54.8429V54.0632H3.84961V60.3017H5.21955V56.8574C5.21955 55.7529 5.80676 55.2328 6.72025 55.2328C7.63315 55.2328 8.0902 55.8178 8.0902 56.8574V60.3017H9.46014V56.8574C9.46014 55.7529 10.1121 55.2328 10.9602 55.2328C11.8737 55.2328 12.3302 55.8178 12.3302 56.8574V60.3017H13.8309ZM34.1189 54.0632H31.9011V52.1787H30.5311V54.0632H29.2917V55.2976H30.5309V58.1573C30.5309 59.5871 31.1181 60.4316 32.6838 60.4316C33.271 60.4316 33.923 60.2369 34.3801 59.9769L33.9884 58.807C33.597 59.067 33.1406 59.1321 32.8143 59.1321C32.162 59.1321 31.9011 58.7422 31.9011 58.0921V55.2976H34.1189V54.0632ZM45.731 53.933C44.9483 53.933 44.4264 54.3231 44.1001 54.8429V54.0632H42.7302V60.3017H44.1001V56.7926C44.1001 55.7529 44.5566 55.168 45.4047 55.168C45.6656 55.168 45.9919 55.2331 46.2528 55.2979L46.6442 53.9984C46.3833 53.9333 45.9919 53.9333 45.731 53.9333V53.933ZM28.1826 54.583C27.53 54.128 26.6169 53.9333 25.6383 53.9333C24.0728 53.9333 23.0291 54.713 23.0291 55.9477C23.0291 56.9877 23.8119 57.5723 25.1818 57.7674L25.8341 57.8325C26.5518 57.9622 26.9431 58.1573 26.9431 58.4823C26.9431 58.937 26.4213 59.262 25.5078 59.262C24.5946 59.262 23.877 58.937 23.4202 58.6123L22.7679 59.6519C23.4856 60.1717 24.4642 60.4316 25.4424 60.4316C27.2691 60.4316 28.3131 59.5871 28.3131 58.4172C28.3131 57.3124 27.465 56.7275 26.1601 56.5327L25.5078 56.4675C24.9206 56.4024 24.4642 56.2728 24.4642 55.8829C24.4642 55.4279 24.9206 55.168 25.6383 55.168C26.4213 55.168 27.2041 55.4927 27.5954 55.6878L28.1826 54.583ZM64.5842 53.9333C63.8012 53.9333 63.2794 54.3231 62.9531 54.8429V54.0632H61.5831V60.3017H62.9531V56.7926C62.9531 55.7529 63.4098 55.168 64.2577 55.168C64.5189 55.168 64.8452 55.2331 65.1061 55.2979L65.4974 53.9984C65.2365 53.9333 64.8452 53.9333 64.5842 53.9333ZM47.1009 57.1824C47.1009 59.067 48.4055 60.4316 50.428 60.4316C51.3412 60.4316 51.9935 60.2369 52.6458 59.717L51.9935 58.6123C51.4717 59.0021 50.9499 59.1969 50.3627 59.1969C49.2536 59.1969 48.4709 58.4172 48.4709 57.1824C48.4709 56.0128 49.2536 55.2328 50.3627 55.168C50.9499 55.168 51.4717 55.3628 51.9935 55.7529L52.6458 54.6482C51.9935 54.128 51.3412 53.9333 50.428 53.9333C48.4055 53.9333 47.1009 55.2979 47.1009 57.1824ZM59.7568 57.1824V54.0632H58.3868V54.8429C57.9301 54.2583 57.2778 53.9333 56.4297 53.9333C54.6683 53.9333 53.2984 55.2979 53.2984 57.1824C53.2984 59.067 54.6683 60.4316 56.4297 60.4316C57.3429 60.4316 57.9954 60.1069 58.3868 59.5219V60.3017H59.7568V57.1824ZM54.7334 57.1824C54.7334 56.0777 55.4511 55.168 56.6252 55.168C57.7342 55.168 58.5173 56.0128 58.5173 57.1824C58.5173 58.2872 57.7342 59.1969 56.6252 59.1969C55.4511 59.1318 54.7334 58.2872 54.7334 57.1824ZM38.3595 53.9333C36.5328 53.9333 35.2279 55.2328 35.2279 57.1824C35.2279 59.1321 36.5325 60.4316 38.4245 60.4316C39.3377 60.4316 40.2512 60.1717 40.9689 59.5871L40.3163 58.6123C39.7945 59.0021 39.1422 59.262 38.4899 59.262C37.6418 59.262 36.7937 58.8722 36.5978 57.7671H41.2298V57.2476C41.2952 55.2328 40.1208 53.9333 38.3592 53.9333H38.3595ZM38.3595 55.1029C39.2073 55.1029 39.7948 55.623 39.9249 56.5978H36.6632C36.7937 55.7529 37.3809 55.1029 38.3595 55.1029ZM72.3472 57.1824V51.5938H70.9772V54.8429C70.5205 54.2583 69.8682 53.9333 69.0201 53.9333C67.2588 53.9333 65.8888 55.2979 65.8888 57.1824C65.8888 59.067 67.2588 60.4316 69.0201 60.4316C69.9336 60.4316 70.5859 60.1069 70.9772 59.5219V60.3017H72.3472V57.1824ZM67.3241 57.1824C67.3241 56.0777 68.0415 55.168 69.2159 55.168C70.3249 55.168 71.1077 56.0128 71.1077 57.1824C71.1077 58.2872 70.3249 59.1969 69.2159 59.1969C68.0415 59.1318 67.3241 58.2872 67.3241 57.1824ZM21.5284 57.1824V54.0632H20.1585V54.8429C19.7017 54.2583 19.0495 53.9333 18.2013 53.9333C16.44 53.9333 15.0701 55.2979 15.0701 57.1824C15.0701 59.067 16.44 60.4316 18.2013 60.4316C19.1148 60.4316 19.7671 60.1069 20.1585 59.5219V60.3017H21.5284V57.1824ZM16.44 57.1824C16.44 56.0777 17.1577 55.168 18.3318 55.168C19.4408 55.168 20.2239 56.0128 20.2239 57.1824C20.2239 58.2872 19.4408 59.1969 18.3318 59.1969C17.1577 59.1318 16.44 58.2872 16.44 57.1824Z" fill="white"/>
<path d="M29.0301 23.3962C29.0301 15.9226 32.5527 9.29348 37.9672 5.00407C33.9881 1.88463 28.965 0 23.4852 0C10.5028 0 0 10.4632 0 23.3962C0 36.329 10.5028 46.7925 23.4849 46.7925C28.9647 46.7925 33.9878 44.9079 37.9672 41.7881C32.5527 37.5638 29.0301 30.8699 29.0301 23.3962Z" fill="#EB001B"/>
<path d="M75.9995 23.3962C75.9995 36.329 65.4966 46.7925 52.5145 46.7925C47.0347 46.7925 42.0116 44.9079 38.0322 41.7881C43.512 37.499 46.9696 30.8699 46.9696 23.3962C46.9696 15.9226 43.4467 9.29348 38.0322 5.00407C42.0113 1.88463 47.0347 0 52.5145 0C65.4966 0 75.9998 10.5283 75.9998 23.3962H75.9995Z" fill="#F79E1B"/>
</svg>
