<svg width="232" height="232" viewBox="0 0 232 232" fill="none" xmlns="http://www.w3.org/2000/svg">
<circle cx="116" cy="116" r="116" fill="#466FFF"/>
<path d="M86.3789 55.0986C86.3789 54.0869 86.7275 53.2256 87.4316 52.5215C88.1357 51.8174 88.9971 51.4619 90.0156 51.4619C91.0342 51.4619 91.8955 51.8174 92.5996 52.5215C93.3037 53.2256 93.6592 54.0869 93.6592 55.0986C93.6592 56.1172 93.3037 56.9785 92.5996 57.6826C91.8955 58.3936 91.0342 58.7422 90.0156 58.7422C88.9971 58.7422 88.1357 58.3936 87.4316 57.6826C86.7275 56.9785 86.3789 56.1172 86.3789 55.0986ZM84.8408 55.0986C84.8408 56.5068 85.333 57.7031 86.3311 58.6738C87.3223 59.6514 88.5527 60.1367 90.0156 60.1367C91.4785 60.1367 92.709 59.6514 93.7002 58.6738C94.6982 57.7031 95.1904 56.5068 95.1904 55.0986C95.1904 53.6904 94.6982 52.501 93.7002 51.5234C92.709 50.5527 91.4785 50.0605 90.0156 50.0605C88.5527 50.0605 87.3223 50.5527 86.3311 51.5234C85.333 52.501 84.8408 53.6904 84.8408 55.0986ZM106.477 56.7119C106.477 55.7822 106.148 54.9756 105.499 54.2988C104.85 53.6221 104.104 53.2803 103.257 53.2803C102.997 53.2803 102.737 53.3213 102.484 53.3965C102.231 53.4717 102.026 53.5537 101.862 53.6494C101.698 53.7451 101.548 53.8477 101.404 53.9707C101.254 54.0938 101.158 54.1758 101.11 54.2236C101.062 54.2715 101.028 54.3125 101.015 54.3398C101.083 53.6152 101.309 53.041 101.705 52.6172C102.095 52.1865 102.614 51.9199 103.257 51.8174C104.002 51.6943 104.617 51.5439 105.103 51.3662C105.588 51.1885 105.875 51.0654 105.957 50.9971C106.039 50.9287 106.101 50.874 106.128 50.8398L105.499 49.7871L105.273 49.9238C105.123 50.0059 104.85 50.1152 104.453 50.2451C104.057 50.3682 103.612 50.4775 103.113 50.5596C101.992 50.7441 101.131 51.2432 100.522 52.0635C99.9209 52.877 99.6133 54.1006 99.6133 55.7344C99.6133 57.1631 99.9346 58.2568 100.577 59.0088C101.22 59.7607 102.061 60.1367 103.113 60.1367C104.029 60.1367 104.815 59.8018 105.479 59.1318C106.142 58.4619 106.477 57.6553 106.477 56.7119ZM101.151 56.7119C101.151 56.0967 101.35 55.584 101.732 55.167C102.122 54.75 102.58 54.5381 103.113 54.5381C103.646 54.5381 104.104 54.75 104.494 55.167C104.877 55.584 105.075 56.0967 105.075 56.7119C105.075 57.3271 104.877 57.8467 104.494 58.2568C104.104 58.6738 103.646 58.8789 103.113 58.8789C102.58 58.8789 102.122 58.6738 101.732 58.2568C101.35 57.8467 101.151 57.3271 101.151 56.7119ZM111.72 60.1367C112.608 60.1367 113.374 59.8018 114.03 59.1182C114.687 58.4346 115.015 57.6074 115.015 56.6367C115.015 55.666 114.687 54.8457 114.03 54.1621C113.374 53.4785 112.608 53.1367 111.72 53.1367C111.323 53.1367 110.94 53.2256 110.564 53.3896C110.182 53.5605 109.936 53.6973 109.819 53.7998C109.703 53.9092 109.614 53.9912 109.553 54.0527V53.2803H108.151V62.9395H109.553V59.2275L109.648 59.3301C109.703 59.3848 109.799 59.46 109.929 59.5557C110.059 59.6514 110.209 59.7402 110.38 59.8291C110.544 59.918 110.749 59.9932 110.988 60.0479C111.221 60.1094 111.467 60.1367 111.72 60.1367ZM111.583 54.4014C112.116 54.4014 112.588 54.6201 112.998 55.0576C113.408 55.4951 113.613 56.0283 113.613 56.6436C113.613 57.2588 113.408 57.7852 112.998 58.2227C112.588 58.6602 112.116 58.8789 111.583 58.8789C111.05 58.8789 110.578 58.6602 110.168 58.2227C109.758 57.7852 109.553 57.2588 109.553 56.6436C109.553 56.0283 109.758 55.4951 110.168 55.0576C110.578 54.6201 111.05 54.4014 111.583 54.4014ZM122.773 57.1289L122.849 56.4316C122.849 55.4883 122.534 54.709 121.905 54.0801C121.276 53.4512 120.497 53.1367 119.554 53.1367C118.61 53.1367 117.804 53.4785 117.134 54.1484C116.464 54.8184 116.122 55.625 116.122 56.5684C116.122 57.5527 116.471 58.3936 117.161 59.0908C117.852 59.7881 118.672 60.1367 119.622 60.1367C119.978 60.1367 120.326 60.0889 120.661 59.9863C120.996 59.8838 121.27 59.7744 121.475 59.6514C121.687 59.5283 121.885 59.3916 122.069 59.2344C122.261 59.0771 122.384 58.9678 122.438 58.8994C122.493 58.8311 122.534 58.7832 122.562 58.7422L121.652 57.833L121.44 58.0928C121.304 58.2637 121.064 58.4346 120.723 58.6123C120.381 58.79 120.019 58.8789 119.622 58.8789C119.082 58.8789 118.617 58.708 118.221 58.3594C117.824 58.0176 117.592 57.6074 117.517 57.1289H122.773ZM119.547 54.333C120.066 54.333 120.49 54.4834 120.832 54.7842C121.174 55.085 121.386 55.4678 121.468 55.9395H117.578C117.701 55.4678 117.934 55.085 118.275 54.7842C118.617 54.4834 119.041 54.333 119.547 54.333ZM125.781 57.1973H129.069V60H130.471V53.2803H129.069V55.9395H125.781V53.2803H124.38V60H125.781V57.1973ZM131.455 58.7422V61.6816H132.856V60H137.546V61.6816H138.94V58.7422H137.963V53.2803H133.062V55.2422C133.062 55.6934 133.021 56.1172 132.938 56.5205C132.856 56.9307 132.768 57.2588 132.672 57.5049C132.576 57.751 132.46 57.9834 132.33 58.1953C132.2 58.4141 132.111 58.5508 132.057 58.6123C132.002 58.6738 131.968 58.7148 131.94 58.7422H131.455ZM134.463 54.5381H136.562V58.7422H133.342L133.458 58.5986C133.526 58.5166 133.622 58.3799 133.731 58.1885C133.841 57.9971 133.957 57.7715 134.066 57.5117C134.176 57.252 134.271 56.917 134.347 56.5137C134.422 56.1172 134.456 55.6934 134.456 55.2422L134.463 54.5381ZM146.576 57.1289L146.651 56.4316C146.651 55.4883 146.337 54.709 145.708 54.0801C145.079 53.4512 144.3 53.1367 143.356 53.1367C142.413 53.1367 141.606 53.4785 140.937 54.1484C140.267 54.8184 139.925 55.625 139.925 56.5684C139.925 57.5527 140.273 58.3936 140.964 59.0908C141.654 59.7881 142.475 60.1367 143.425 60.1367C143.78 60.1367 144.129 60.0889 144.464 59.9863C144.799 59.8838 145.072 59.7744 145.277 59.6514C145.489 59.5283 145.688 59.3916 145.872 59.2344C146.063 59.0771 146.187 58.9678 146.241 58.8994C146.296 58.8311 146.337 58.7832 146.364 58.7422L145.455 57.833L145.243 58.0928C145.106 58.2637 144.867 58.4346 144.525 58.6123C144.184 58.79 143.821 58.8789 143.425 58.8789C142.885 58.8789 142.42 58.708 142.023 58.3594C141.627 58.0176 141.395 57.6074 141.319 57.1289H146.576ZM143.35 54.333C143.869 54.333 144.293 54.4834 144.635 54.7842C144.977 55.085 145.188 55.4678 145.271 55.9395H141.381C141.504 55.4678 141.736 55.085 142.078 54.7842C142.42 54.4834 142.844 54.333 143.35 54.333Z" fill="white"/>
<g clip-path="url(#clip0)">
<path d="M48.6172 122.644C47.8573 120.809 47.7798 118.858 47.7798 116.771V114.619C47.7798 113.576 47.7798 112.537 47.6596 111.459C47.2564 107.417 45.1046 105.679 39.6923 105.679C37.3816 105.679 35.3539 106.042 33.489 106.792V109.148C35.2725 108.136 37.0288 107.645 39.0526 107.645C42.4333 107.645 44.3059 108.882 44.3059 111.003V111.196C43.1894 111.915 41.2004 112.305 38.4982 112.857C35.7494 113.414 33.6829 113.808 32.3027 115.145C31.4381 115.96 31 116.972 31 118.147C31 121.068 33.489 123.057 37.1451 123.057C40.4095 123.057 42.8366 121.813 44.5463 119.306V119.696C44.5463 120.62 44.6665 121.597 44.9883 122.644C45.5815 122.509 46.1824 122.482 46.7795 122.482C47.3843 122.482 48.0163 122.509 48.6172 122.644ZM44.3447 112.908C44.3874 113.228 44.3874 113.553 44.3874 113.881C44.3874 118.487 41.9991 120.998 38.3353 120.998C35.9975 120.998 34.5203 119.827 34.5203 117.861C34.5203 116.393 35.7106 115.319 38.0601 114.731C39.6923 114.341 41.9216 114.144 44.3447 112.908Z" fill="white"/>
<path d="M48.6172 122.644C47.8573 120.809 47.7798 118.858 47.7798 116.771V114.619C47.7798 113.576 47.7798 112.537 47.6596 111.459C47.2564 107.417 45.1046 105.679 39.6923 105.679C37.3816 105.679 35.3539 106.042 33.489 106.792V109.148C35.2725 108.136 37.0288 107.645 39.0526 107.645C42.4333 107.645 44.3059 108.882 44.3059 111.003V111.196C43.1894 111.915 41.2004 112.305 38.4982 112.857C35.7494 113.414 33.6829 113.808 32.3027 115.145C31.4381 115.96 31 116.972 31 118.147C31 121.068 33.489 123.057 37.1451 123.057C40.4095 123.057 42.8366 121.813 44.5463 119.306V119.696C44.5463 120.62 44.6665 121.597 44.9883 122.644C45.5815 122.509 46.1824 122.482 46.7795 122.482C47.3843 122.482 48.0163 122.509 48.6172 122.644ZM44.3447 112.908C44.3874 113.228 44.3874 113.553 44.3874 113.881C44.3874 118.487 41.9991 120.998 38.3353 120.998C35.9975 120.998 34.5203 119.827 34.5203 117.861C34.5203 116.393 35.7106 115.319 38.0601 114.731C39.6923 114.341 41.9216 114.144 44.3447 112.908Z" fill="white"/>
<path d="M67.6804 109.314C66.0947 108.302 64.5438 107.819 62.7914 107.819C58.6081 107.819 55.8283 110.323 55.8283 114.461C55.8283 118.533 58.5732 120.882 62.9465 120.882C64.6951 120.882 66.4475 120.295 68.2348 119.151V121.493C66.4126 122.532 64.2996 123.057 62.0315 123.057C56.3827 123.057 52.0947 119.484 52.0947 114.53C52.0947 109.407 56.4603 105.687 62.4309 105.687C64.1019 105.687 65.8543 106.015 67.6804 106.637V109.314Z" fill="white"/>
<path d="M67.6804 109.314C66.0947 108.302 64.5438 107.819 62.7914 107.819C58.6081 107.819 55.8283 110.323 55.8283 114.461C55.8283 118.533 58.5732 120.882 62.9465 120.882C64.6951 120.882 66.4475 120.295 68.2348 119.151V121.493C66.4126 122.532 64.2996 123.057 62.0315 123.057C56.3827 123.057 52.0947 119.484 52.0947 114.53C52.0947 109.407 56.4603 105.687 62.4309 105.687C64.1019 105.687 65.8543 106.015 67.6804 106.637V109.314Z" fill="white"/>
<path d="M88.7597 122.644C87.9998 120.809 87.9184 118.858 87.9184 116.771V114.619C87.9184 113.576 87.9184 112.537 87.7982 111.459C87.3989 107.417 85.2471 105.679 79.8348 105.679C77.528 105.679 75.5003 106.042 73.6316 106.792V109.148C75.4189 108.136 77.1713 107.645 79.199 107.645C82.5797 107.645 84.4485 108.882 84.4485 111.003V111.196C83.328 111.915 81.3469 112.305 78.6407 112.857C75.8958 113.414 73.8293 113.808 72.4413 115.145C71.5729 115.956 71.1348 116.968 71.1348 118.143C71.1348 121.064 73.6316 123.054 77.2799 123.054C80.5482 123.054 82.9713 121.81 84.685 119.302V119.692C84.685 120.616 84.8013 121.593 85.1192 122.64C85.7163 122.505 86.3211 122.478 86.9143 122.478C87.523 122.482 88.1627 122.509 88.7597 122.644ZM84.4872 112.908C84.5299 113.228 84.5299 113.553 84.5299 113.881C84.5299 118.487 82.1455 120.998 78.4856 120.998C76.1361 120.998 74.6629 119.827 74.6629 117.861C74.6629 116.393 75.8609 115.319 78.2065 114.731C79.8387 114.341 82.0641 114.144 84.4872 112.908Z" fill="white"/>
<path d="M88.7597 122.644C87.9998 120.809 87.9184 118.858 87.9184 116.771V114.619C87.9184 113.576 87.9184 112.537 87.7982 111.459C87.3989 107.417 85.2471 105.679 79.8348 105.679C77.528 105.679 75.5003 106.042 73.6316 106.792V109.148C75.4189 108.136 77.1713 107.645 79.199 107.645C82.5797 107.645 84.4485 108.882 84.4485 111.003V111.196C83.328 111.915 81.3469 112.305 78.6407 112.857C75.8958 113.414 73.8293 113.808 72.4413 115.145C71.5729 115.956 71.1348 116.968 71.1348 118.143C71.1348 121.064 73.6316 123.054 77.2799 123.054C80.5482 123.054 82.9713 121.81 84.685 119.302V119.692C84.685 120.616 84.8013 121.593 85.1192 122.64C85.7163 122.505 86.3211 122.478 86.9143 122.478C87.523 122.482 88.1627 122.509 88.7597 122.644ZM84.4872 112.908C84.5299 113.228 84.5299 113.553 84.5299 113.881C84.5299 118.487 82.1455 120.998 78.4856 120.998C76.1361 120.998 74.6629 119.827 74.6629 117.861C74.6629 116.393 75.8609 115.319 78.2065 114.731C79.8387 114.341 82.0641 114.144 84.4872 112.908Z" fill="white"/>
<path d="M107.843 101C108.002 102.928 108.079 103.581 108.079 105.679C108.079 106.39 108.079 107.108 108.04 107.846C106.284 106.359 104.179 105.679 101.43 105.679C96.2582 105.679 92.4819 109.121 92.4819 114.457C92.4819 119.723 96.2194 123.011 101.469 123.011C104.613 123.011 106.842 121.779 108.269 119.298V119.592C108.269 120.65 108.475 121.663 108.793 122.644C109.394 122.509 109.991 122.447 110.63 122.447C111.192 122.447 111.747 122.513 112.34 122.644C111.588 120.847 111.549 117.772 111.549 113.422V110.902C111.549 106.78 111.549 104.334 111.79 100.996C111.15 101.093 110.471 101.162 109.835 101.162C109.157 101.166 108.517 101.097 107.843 101ZM108.122 110.369C108.199 111.119 108.199 111.872 108.199 112.525C108.199 118.089 106.21 120.836 102.237 120.836C98.6464 120.836 96.262 118.448 96.262 114.225C96.262 110.137 98.7239 107.815 102.349 107.815C104.578 107.819 106.61 108.696 108.122 110.369Z" fill="white"/>
<path d="M107.843 101C108.002 102.928 108.079 103.581 108.079 105.679C108.079 106.39 108.079 107.108 108.04 107.846C106.284 106.359 104.179 105.679 101.43 105.679C96.2582 105.679 92.4819 109.121 92.4819 114.457C92.4819 119.723 96.2194 123.011 101.469 123.011C104.613 123.011 106.842 121.779 108.269 119.298V119.592C108.269 120.65 108.475 121.663 108.793 122.644C109.394 122.509 109.991 122.447 110.63 122.447C111.192 122.447 111.747 122.513 112.34 122.644C111.588 120.847 111.549 117.772 111.549 113.422V110.902C111.549 106.78 111.549 104.334 111.79 100.996C111.15 101.093 110.471 101.162 109.835 101.162C109.157 101.166 108.517 101.097 107.843 101ZM108.122 110.369C108.199 111.119 108.199 111.872 108.199 112.525C108.199 118.089 106.21 120.836 102.237 120.836C98.6464 120.836 96.262 118.448 96.262 114.225C96.262 110.137 98.7239 107.815 102.349 107.815C104.578 107.819 106.61 108.696 108.122 110.369Z" fill="white"/>
<path d="M134.808 114.677C134.808 114.442 134.846 114.248 134.846 114.017C134.846 109.411 131.524 105.679 126.232 105.679C120.556 105.679 116.268 109.361 116.268 114.585C116.268 119.681 120.234 123.007 126.348 123.007C129.209 123.007 131.799 122.42 134.032 121.272V118.896C132.074 120.233 129.849 120.878 127.464 120.878C122.773 120.878 119.943 118.309 119.927 115.74C119.927 115.454 119.962 115.06 120.04 114.673H134.808V114.677ZM131.299 112.537H120.249C120.734 110.025 123.099 107.734 126.235 107.734C129.372 107.734 131.299 110.025 131.299 112.537Z" fill="white"/>
<path d="M134.808 114.677C134.808 114.442 134.846 114.248 134.846 114.017C134.846 109.411 131.524 105.679 126.232 105.679C120.556 105.679 116.268 109.361 116.268 114.585C116.268 119.681 120.234 123.007 126.348 123.007C129.209 123.007 131.799 122.42 134.032 121.272V118.896C132.074 120.233 129.849 120.878 127.464 120.878C122.773 120.878 119.943 118.309 119.927 115.74C119.927 115.454 119.962 115.06 120.04 114.673H134.808V114.677ZM131.299 112.537H120.249C120.734 110.025 123.099 107.734 126.235 107.734C129.372 107.734 131.299 110.025 131.299 112.537Z" fill="white"/>
<path d="M167.06 122.482C166.389 122.482 165.754 122.509 165.079 122.644C165.281 120.809 165.281 118.792 165.281 116.601V114.94C165.281 112.622 165.238 110.991 164.637 110.014C163.962 108.874 162.532 108.125 161.012 108.125C159.101 108.125 157.344 108.936 155.828 110.501C155.867 111.057 155.91 111.517 155.91 111.942C155.91 113.379 155.867 114.84 155.867 116.315C155.867 118.533 155.991 120.62 156.228 122.644C155.549 122.509 154.871 122.482 154.235 122.482C153.553 122.482 152.921 122.509 152.238 122.644C152.401 120.952 152.44 118.923 152.44 116.601V114.515C152.44 112.49 152.359 110.991 151.8 110.01C151.164 108.87 149.811 108.183 148.261 108.183C146.427 108.183 144.717 109.129 142.976 111.049C142.937 112.293 142.937 113.53 142.937 114.739C142.937 117.509 143.019 120.156 143.178 122.636C142.542 122.501 141.856 122.474 141.22 122.474C140.541 122.474 139.902 122.501 139.227 122.636C139.382 119.634 139.464 116.853 139.464 114.345C139.464 111.443 139.386 108.7 139.227 106.085C139.82 106.189 140.429 106.251 141.065 106.251C141.658 106.251 142.298 106.189 142.899 106.085L142.728 109.056C144.872 106.745 146.985 105.671 149.765 105.671C152.196 105.671 154.227 106.745 155.142 108.573C157.259 106.587 159.539 105.605 162.125 105.605C166.979 105.605 168.754 107.823 168.754 112.483C168.754 117.413 168.754 120.801 168.991 122.633C168.363 122.509 167.692 122.482 167.06 122.482Z" fill="white"/>
<path d="M167.06 122.482C166.389 122.482 165.754 122.509 165.079 122.644C165.281 120.809 165.281 118.792 165.281 116.601V114.94C165.281 112.622 165.238 110.991 164.637 110.014C163.962 108.874 162.532 108.125 161.012 108.125C159.101 108.125 157.344 108.936 155.828 110.501C155.867 111.057 155.91 111.517 155.91 111.942C155.91 113.379 155.867 114.84 155.867 116.315C155.867 118.533 155.991 120.62 156.228 122.644C155.549 122.509 154.871 122.482 154.235 122.482C153.553 122.482 152.921 122.509 152.238 122.644C152.401 120.952 152.44 118.923 152.44 116.601V114.515C152.44 112.49 152.359 110.991 151.8 110.01C151.164 108.87 149.811 108.183 148.261 108.183C146.427 108.183 144.717 109.129 142.976 111.049C142.937 112.293 142.937 113.53 142.937 114.739C142.937 117.509 143.019 120.156 143.178 122.636C142.542 122.501 141.856 122.474 141.22 122.474C140.541 122.474 139.902 122.501 139.227 122.636C139.382 119.634 139.464 116.853 139.464 114.345C139.464 111.443 139.386 108.7 139.227 106.085C139.82 106.189 140.429 106.251 141.065 106.251C141.658 106.251 142.298 106.189 142.899 106.085L142.728 109.056C144.872 106.745 146.985 105.671 149.765 105.671C152.196 105.671 154.227 106.745 155.142 108.573C157.259 106.587 159.539 105.605 162.125 105.605C166.979 105.605 168.754 107.823 168.754 112.483C168.754 117.413 168.754 120.801 168.991 122.633C168.363 122.509 167.692 122.482 167.06 122.482Z" fill="white"/>
<path d="M176.85 106.258C177.52 106.258 178.238 106.193 178.908 106.092C178.753 108.673 178.668 111.416 178.668 114.353C178.668 117.131 178.753 119.901 178.908 122.648C178.238 122.513 177.563 122.486 176.927 122.486C176.253 122.486 175.582 122.513 174.907 122.648C175.066 119.576 175.148 116.771 175.148 114.353C175.148 111.613 175.105 108.874 174.907 106.092C175.539 106.193 176.214 106.258 176.85 106.258Z" fill="white"/>
<path d="M35.7146 129.065C35.1485 128.733 34.5864 128.552 33.9932 128.552C33.2643 128.552 32.8456 128.83 32.8456 129.208C32.8456 129.599 33.2837 129.699 34.0397 129.923C34.5941 130.082 34.9392 130.178 35.0594 130.24C35.6332 130.537 35.8813 130.835 35.8813 131.376C35.8813 132.319 35.0594 132.987 33.7334 132.987C33.0317 132.987 32.4346 132.829 31.9229 132.535V131.758C32.4811 132.122 33.1015 132.303 33.7334 132.303C34.5205 132.303 34.9547 131.986 34.9547 131.503C34.9547 130.955 34.3576 130.877 33.3069 130.564C32.3803 130.282 31.9229 130.004 31.9229 129.27C31.9229 128.482 32.7021 127.899 33.9777 127.899C34.5941 127.899 35.1718 128.026 35.7146 128.289V129.065Z" fill="white"/>
<path d="M43.8445 128.957C43.4219 128.66 42.9993 128.521 42.5302 128.521C41.4175 128.521 40.6692 129.262 40.6692 130.472C40.6692 131.669 41.4059 132.361 42.5806 132.361C43.042 132.361 43.5111 132.191 43.9918 131.851V132.543C43.5033 132.848 42.9412 133.002 42.3325 133.002C40.8204 133.002 39.6689 131.948 39.6689 130.491C39.6689 128.984 40.8398 127.899 42.4333 127.899C42.883 127.899 43.3482 127.991 43.8406 128.177V128.957" fill="white"/>
<path d="M48.1754 128.03C48.2258 128.834 48.2413 129.645 48.2413 130.449C48.2413 131.156 48.218 131.982 48.1754 132.871C48.3576 132.836 48.5359 132.829 48.7182 132.829C48.8887 132.829 49.0671 132.84 49.2493 132.871C49.2028 132.075 49.1834 131.26 49.1834 130.449C49.1834 129.583 49.2028 128.776 49.2493 128.03C49.0671 128.053 48.8771 128.072 48.6988 128.072C48.5204 128.072 48.346 128.053 48.1754 128.03ZM48.7065 126.129C48.3615 126.129 48.1211 126.357 48.1211 126.658C48.1211 126.956 48.3809 127.195 48.7065 127.195C49.0361 127.195 49.2958 126.956 49.2958 126.658C49.2958 126.345 49.0438 126.129 48.7065 126.129Z" fill="white"/>
<path d="M58.3293 130.236C58.3293 130.174 58.3371 130.112 58.3371 130.043C58.3371 128.694 57.4609 127.899 56.0419 127.899C54.5221 127.899 53.3706 128.977 53.3706 130.507C53.3706 132.006 54.4329 132.983 56.0729 132.983C56.8444 132.983 57.5307 132.805 58.1316 132.473V131.778C57.6121 132.168 57.0189 132.357 56.3753 132.357C55.1153 132.357 54.336 131.635 54.336 130.549C54.336 130.456 54.3437 130.348 54.3748 130.232H58.3293V130.236ZM57.4066 129.703H54.4445C54.5725 128.965 55.2006 128.501 56.0458 128.501C56.8871 128.497 57.4066 128.965 57.4066 129.703Z" fill="white"/>
<path d="M66.4474 132.829C66.2691 132.829 66.0985 132.84 65.9201 132.871C65.9628 132.38 65.9783 131.785 65.9783 131.105V130.491C65.9783 129.904 65.9511 129.459 65.8077 129.17C65.6332 128.837 65.2765 128.629 64.8617 128.629C64.3654 128.629 63.9157 128.911 63.4505 129.475C63.4388 129.842 63.4388 130.205 63.4388 130.564C63.4388 131.38 63.466 132.152 63.5047 132.875C63.3342 132.84 63.1558 132.832 62.9813 132.832C62.7991 132.832 62.6285 132.844 62.4502 132.875C62.489 131.998 62.5083 131.187 62.5083 130.452C62.5083 129.595 62.489 128.791 62.4502 128.034C62.613 128.057 62.772 128.076 62.9387 128.076C63.0977 128.076 63.2682 128.057 63.4272 128.034L63.3768 128.895C63.9428 128.219 64.5128 127.899 65.2339 127.899C66.4435 127.899 66.8971 128.559 66.8971 129.939C66.8971 131.538 66.9126 132.523 66.9631 132.879C66.7963 132.836 66.618 132.829 66.4474 132.829Z" fill="white"/>
<path d="M72.744 128.084C73.5194 128.084 74.1281 128.072 74.5507 128.053V128.718C74.07 128.698 73.4651 128.687 72.744 128.687V130.823V131.063C72.744 131.955 72.7789 132.361 73.4419 132.361C73.8024 132.361 74.1397 132.245 74.4421 131.998V132.651C74.0932 132.879 73.6978 132.987 73.2054 132.987C72.0849 132.987 71.7748 132.353 71.7748 130.939C71.7748 130.731 71.7825 130.576 71.7825 130.491L71.7941 128.54C71.7941 128.181 71.7825 127.763 71.7554 127.307C72.1935 127.23 72.5191 127.141 72.7595 127.029C72.744 127.427 72.744 127.779 72.744 128.084Z" fill="white"/>
<path d="M79.2071 128.073C79.3932 128.073 79.5871 128.053 79.7654 128.03C79.7228 128.776 79.6995 129.583 79.6995 130.449C79.6995 131.264 79.7228 132.079 79.7654 132.871C79.5871 132.836 79.4049 132.829 79.2343 132.829C79.0521 132.829 78.8737 132.84 78.6876 132.871C78.7303 131.979 78.7535 131.152 78.7535 130.449C78.7535 129.645 78.738 128.834 78.6876 128.03C78.8621 128.053 79.0365 128.073 79.2071 128.073ZM79.812 126.655C79.812 126.952 79.5444 127.192 79.2226 127.192C78.8892 127.192 78.6372 126.952 78.6372 126.655C78.6372 126.353 78.8815 126.125 79.2226 126.125C79.5599 126.129 79.812 126.345 79.812 126.655Z" fill="white"/>
<path d="M87.5697 126.967C87.2556 126.801 86.9532 126.716 86.6082 126.716C85.8832 126.716 85.5381 127.118 85.5381 127.937V128.084C86.1895 128.084 86.8175 128.072 87.4301 128.053V128.718C86.8175 128.706 86.1895 128.687 85.5498 128.687V129.788C85.5498 131.005 85.5614 132.036 85.604 132.875C85.3753 132.84 85.2008 132.821 85.0225 132.821C84.8635 132.821 84.6929 132.84 84.5068 132.875C84.5456 131.693 84.565 130.731 84.565 130.027C84.565 129.749 84.5534 129.208 84.5534 128.389C84.5534 126.875 85.1853 126.148 86.5345 126.148C86.8912 126.148 87.2363 126.214 87.5658 126.349V126.967" fill="white"/>
<path d="M91.8926 128.073C92.0671 128.073 92.261 128.053 92.4432 128.03C92.3967 128.776 92.3734 129.583 92.3734 130.449C92.3734 131.264 92.3967 132.079 92.4432 132.871C92.261 132.836 92.0826 132.829 91.912 132.829C91.7337 132.829 91.5515 132.84 91.3693 132.871C91.408 131.979 91.4313 131.152 91.4313 130.449C91.4313 129.645 91.4235 128.834 91.3693 128.03C91.5398 128.053 91.7221 128.073 91.8926 128.073ZM92.4897 126.655C92.4897 126.952 92.23 127.192 91.8965 127.192C91.5709 127.192 91.3188 126.952 91.3188 126.655C91.3188 126.353 91.5592 126.125 91.8965 126.125C92.2416 126.129 92.4897 126.345 92.4897 126.655Z" fill="white"/>
<path d="M100.907 128.625C100.364 128.123 99.7628 127.891 98.9835 127.891C97.6304 127.891 96.603 128.888 96.603 130.456C96.603 131.986 97.6304 132.991 99.0378 132.991C99.7938 132.991 100.364 132.705 100.775 132.125C100.782 132.438 100.782 132.759 100.782 133.045C100.782 133.744 100.763 134.401 100.72 135.004C100.907 134.961 101.069 134.954 101.252 134.954C101.418 134.954 101.601 134.961 101.775 135.004C101.709 134.053 101.697 132.709 101.697 131.005C101.69 129.772 101.69 128.787 101.926 128.034C101.79 128.057 101.639 128.076 101.5 128.076C101.348 128.076 101.217 128.057 101.065 128.034C101.003 128.239 100.945 128.44 100.907 128.625ZM100.775 129.251C100.782 129.475 100.794 129.676 100.794 129.861C100.794 131.534 100.325 132.338 99.2123 132.338C98.2197 132.338 97.549 131.623 97.549 130.414C97.549 129.212 98.2546 128.486 99.2316 128.486C99.821 128.486 100.34 128.745 100.775 129.251Z" fill="white"/>
<path d="M106.753 128.084C106.912 128.084 107.114 128.065 107.331 128.026C107.273 128.505 107.242 129.293 107.242 130.367C107.242 131.654 107.474 132.28 108.428 132.28C109.359 132.28 109.75 131.588 109.758 130.194C109.758 129.293 109.742 128.567 109.696 128.022C109.898 128.061 110.072 128.08 110.231 128.08C110.386 128.08 110.58 128.061 110.797 128.022C110.758 128.401 110.739 128.722 110.739 128.961V131.669C110.739 132.125 110.813 132.55 110.933 132.867C110.774 132.844 110.615 132.813 110.467 132.813C110.32 132.813 110.153 132.84 109.967 132.867C109.901 132.655 109.859 132.326 109.851 131.924C109.541 132.597 108.859 132.999 108.071 132.999C107.451 132.999 106.955 132.759 106.653 132.349C106.323 131.905 106.307 131.214 106.307 130.217V129.521C106.307 128.996 106.304 128.497 106.284 128.026C106.459 128.065 106.618 128.084 106.753 128.084Z" fill="white"/>
<path d="M119.9 130.236C119.9 130.174 119.916 130.112 119.916 130.043C119.916 128.694 119.039 127.899 117.62 127.899C116.093 127.899 114.938 128.977 114.938 130.507C114.938 132.006 116.011 132.983 117.651 132.983C118.419 132.983 119.109 132.805 119.71 132.473V131.778C119.187 132.168 118.59 132.357 117.946 132.357C116.69 132.357 115.915 131.635 115.915 130.549C115.915 130.456 115.926 130.348 115.942 130.232H119.9V130.236ZM118.985 129.703H116.015C116.147 128.965 116.775 128.501 117.62 128.501C118.462 128.497 118.985 128.965 118.985 129.703Z" fill="white"/>
<path d="M133.985 126.144C134.028 126.712 134.051 127.292 134.051 127.914C134.051 128.123 134.051 128.331 134.036 128.548C133.566 128.115 133.004 127.914 132.268 127.914C130.88 127.914 129.875 128.922 129.875 130.472C129.875 132.009 130.872 132.983 132.275 132.983C133.121 132.983 133.714 132.62 134.101 131.886V131.975C134.101 132.292 134.156 132.593 134.241 132.867C134.404 132.832 134.559 132.813 134.73 132.813C134.877 132.813 135.032 132.832 135.187 132.867C134.985 132.353 134.974 131.445 134.974 130.17V129.425C134.974 128.215 134.974 127.11 135.04 126.141C134.869 126.168 134.687 126.191 134.512 126.191C134.334 126.195 134.167 126.172 133.985 126.144ZM134.063 129.289C134.09 129.502 134.09 129.726 134.09 129.919C134.09 131.542 133.551 132.342 132.481 132.342C131.527 132.342 130.884 131.65 130.884 130.414C130.884 129.22 131.546 128.544 132.516 128.544C133.109 128.544 133.656 128.799 134.063 129.289Z" fill="white"/>
<path d="M144.112 130.236C144.112 130.174 144.124 130.112 144.124 130.043C144.124 128.694 143.247 127.899 141.828 127.899C140.309 127.899 139.153 128.977 139.153 130.507C139.153 132.006 140.22 132.983 141.856 132.983C142.627 132.983 143.325 132.805 143.918 132.473V131.778C143.395 132.168 142.798 132.357 142.158 132.357C140.902 132.357 140.119 131.635 140.119 130.549C140.119 130.456 140.126 130.348 140.154 130.232H144.112V130.236ZM143.197 129.703H140.227C140.351 128.965 140.991 128.501 141.825 128.501C142.67 128.497 143.197 128.965 143.197 129.703Z" fill="white"/>
<path d="M154.254 126.129C154.281 126.631 154.281 127.11 154.281 127.547C154.281 128.528 154.239 129.351 154.239 129.977C154.239 130.912 154.316 131.588 154.689 132.114C155.092 132.682 155.762 132.991 156.635 132.991C158.255 132.991 159.364 131.909 159.364 130.317C159.364 128.872 158.387 127.902 157.019 127.902C156.309 127.902 155.728 128.123 155.173 128.613C155.189 127.806 155.239 126.964 155.32 126.133C155.146 126.16 154.956 126.175 154.778 126.175C154.607 126.172 154.437 126.156 154.254 126.129ZM155.189 129.251C155.654 128.752 156.193 128.501 156.809 128.501C157.74 128.501 158.387 129.197 158.387 130.429C158.387 131.592 157.701 132.307 156.732 132.307C155.538 132.307 155.169 131.523 155.169 129.85C155.169 129.684 155.169 129.487 155.189 129.251Z" fill="white"/>
<path d="M168.181 130.236C168.181 130.174 168.192 130.112 168.192 130.043C168.192 128.694 167.312 127.899 165.893 127.899C164.378 127.899 163.222 128.977 163.222 130.507C163.222 132.006 164.284 132.983 165.928 132.983C166.692 132.983 167.378 132.805 167.983 132.473V131.778C167.456 132.168 166.87 132.357 166.227 132.357C164.971 132.357 164.188 131.635 164.188 130.549C164.188 130.456 164.203 130.348 164.23 130.232H168.181V130.236ZM167.266 129.703H164.3C164.432 128.965 165.056 128.501 165.893 128.501C166.742 128.497 167.266 128.965 167.266 129.703Z" fill="white"/>
<path d="M176.532 132.871C176.326 132.349 176.303 131.766 176.303 131.152V130.518C176.303 130.213 176.303 129.904 176.276 129.587C176.171 128.393 175.598 127.887 174.147 127.887C173.531 127.887 172.992 128.003 172.492 128.219V128.907C172.969 128.609 173.434 128.463 173.977 128.463C174.88 128.463 175.384 128.83 175.384 129.456V129.51C175.086 129.722 174.558 129.838 173.833 130C173.101 130.163 172.554 130.279 172.17 130.669C171.938 130.912 171.821 131.21 171.821 131.55C171.821 132.411 172.492 132.999 173.473 132.999C174.337 132.999 174.989 132.639 175.446 131.901V132.006C175.446 132.284 175.477 132.57 175.563 132.867C175.725 132.832 175.881 132.825 176.039 132.825C176.206 132.829 176.373 132.836 176.532 132.871ZM175.396 130.024C175.411 130.12 175.411 130.213 175.411 130.306C175.411 131.654 174.776 132.392 173.791 132.392C173.167 132.392 172.775 132.044 172.775 131.472C172.775 131.044 173.097 130.731 173.721 130.557C174.151 130.441 174.752 130.383 175.396 130.024Z" fill="white"/>
<path d="M181.254 128.084C181.409 128.084 181.607 128.065 181.828 128.026C181.77 128.505 181.735 129.293 181.735 130.367C181.735 131.654 181.968 132.28 182.929 132.28C183.856 132.28 184.247 131.588 184.247 130.194C184.247 129.293 184.24 128.567 184.181 128.022C184.395 128.061 184.569 128.08 184.724 128.08C184.891 128.08 185.081 128.061 185.294 128.022C185.259 128.401 185.244 128.722 185.244 128.961V131.669C185.244 132.125 185.31 132.55 185.434 132.867C185.271 132.844 185.108 132.813 184.968 132.813C184.813 132.813 184.651 132.84 184.464 132.867C184.399 132.655 184.36 132.326 184.348 131.924C184.038 132.597 183.356 132.999 182.572 132.999C181.956 132.999 181.46 132.759 181.15 132.349C180.824 131.905 180.812 131.214 180.812 130.217V129.521C180.812 128.996 180.808 128.497 180.785 128.026C180.956 128.065 181.119 128.084 181.254 128.084Z" fill="white"/>
<path d="M191.117 128.084C191.896 128.084 192.501 128.072 192.932 128.053V128.718C192.451 128.698 191.846 128.687 191.117 128.687V130.823V131.063C191.117 131.955 191.148 132.361 191.823 132.361C192.187 132.361 192.525 132.245 192.823 131.998V132.651C192.474 132.879 192.079 132.987 191.586 132.987C190.47 132.987 190.148 132.353 190.148 130.939C190.148 130.731 190.156 130.576 190.156 130.491L190.179 128.54C190.179 128.181 190.156 127.763 190.14 127.307C190.578 127.23 190.9 127.141 191.144 127.029C191.117 127.427 191.117 127.779 191.117 128.084Z" fill="white"/>
<path d="M201.605 130.236C201.605 130.174 201.616 130.112 201.616 130.043C201.616 128.694 200.74 127.899 199.317 127.899C197.801 127.899 196.646 128.977 196.646 130.507C196.646 132.006 197.716 132.983 199.356 132.983C200.124 132.983 200.818 132.805 201.407 132.473V131.778C200.891 132.168 200.29 132.357 199.651 132.357C198.387 132.357 197.611 131.635 197.611 130.549C197.611 130.456 197.623 130.348 197.642 130.232H201.605V130.236ZM199.689 125.719L198.604 127.385H199.147L200.643 125.719H199.689ZM200.686 129.703H197.72C197.844 128.965 198.48 128.501 199.317 128.501C200.162 128.497 200.686 128.965 200.686 129.703Z" fill="white"/>
<path d="M201.957 114.612C201.957 114.384 202 114.183 202 113.955C202 109.353 198.666 105.621 193.389 105.621C187.706 105.621 183.429 109.299 183.429 114.527C183.429 119.619 187.388 122.953 193.502 122.953C196.363 122.953 198.949 122.358 201.182 121.214V118.842C199.232 120.171 197.003 120.82 194.614 120.82C189.927 120.82 187.097 118.247 187.081 115.682C187.077 115.392 187.12 114.998 187.198 114.612H201.957ZM198.449 112.475H187.403C187.88 109.967 190.241 107.672 193.385 107.672C196.522 107.669 198.449 109.967 198.449 112.475Z" fill="white"/>
<path d="M201.957 114.612C201.957 114.384 202 114.183 202 113.955C202 109.353 198.666 105.621 193.389 105.621C187.706 105.621 183.429 109.299 183.429 114.527C183.429 119.619 187.388 122.953 193.502 122.953C196.363 122.953 198.949 122.358 201.182 121.214V118.842C199.232 120.171 197.003 120.82 194.614 120.82C189.927 120.82 187.097 118.247 187.081 115.682C187.077 115.392 187.12 114.998 187.198 114.612H201.957ZM198.449 112.475H187.403C187.88 109.967 190.241 107.672 193.385 107.672C196.522 107.669 198.449 109.967 198.449 112.475Z" fill="white"/>
<path d="M184.472 101.085C184.472 101.085 180.164 102.712 176.466 102.712C172.763 102.712 169.196 101.085 169.196 101.085H184.472Z" fill="white"/>
<path d="M134.334 101.085C134.334 101.085 130.031 102.704 126.324 102.704C122.625 102.704 119.062 101.085 119.062 101.085H134.334Z" fill="white"/>
</g>
<path d="M147.707 180.707C148.098 180.317 148.098 179.683 147.707 179.293L141.343 172.929C140.953 172.538 140.319 172.538 139.929 172.929C139.538 173.319 139.538 173.953 139.929 174.343L145.586 180L139.929 185.657C139.538 186.047 139.538 186.681 139.929 187.071C140.319 187.462 140.953 187.462 141.343 187.071L147.707 180.707ZM87 181H147V179H87V181Z" fill="white"/>
<defs>
<clipPath id="clip0">
<rect width="171" height="34" fill="white" transform="translate(31 101)"/>
</clipPath>
</defs>
</svg>
