<svg width="98" height="21" viewBox="0 0 98 21" fill="none" xmlns="http://www.w3.org/2000/svg">
<g clip-path="url(#clip0)">
<path d="M47.8105 18.2578H0V18.8947H47.8105V18.2578Z" fill="#131108"/>
<path d="M3.66499 0.930176H0V11.3882H3.66499C6.5437 11.3882 8.88441 9.04747 8.88441 6.16574C8.88441 3.27896 6.5437 0.930176 3.66499 0.930176ZM3.66499 10.2749C3.66499 10.2749 1.57057 10.2749 1.09617 10.2749V2.0435C1.57057 2.0435 3.66499 2.0435 3.66499 2.0435C5.93101 2.0435 7.77613 3.89366 7.77613 6.16574C7.77613 8.43176 5.93101 10.2749 3.66499 10.2749Z" fill="#131108"/>
<path d="M26.3202 10.2749C26.091 10.2749 25.9982 10.2577 25.7691 9.90139L24.259 7.54554L24.0158 7.1317C23.9017 6.92276 23.7806 6.7118 23.6555 6.5281C24.2096 6.42313 24.8162 6.21318 25.2301 5.88715C25.766 5.46625 26.1809 4.86467 26.1809 3.88458C26.1809 2.31502 24.9424 0.930176 22.5754 0.930176H18.5925V5.61059H11.3009V2.0435C11.8318 2.0435 17.0128 2.0435 17.0128 2.0435V0.930176H10.2017V11.3882H17.5337V10.2749C17.5337 10.2749 11.8368 10.2749 11.3009 10.2749V6.72291H18.5925V11.3872H19.6937C19.6937 11.3872 19.6937 7.23869 19.6937 6.72291C20.0813 6.72291 20.9594 6.72291 20.9594 6.72291C22.2464 6.72291 22.6471 7.09738 23.3264 8.15721L24.8253 10.4959C25.3017 11.2368 25.7691 11.3882 26.3222 11.3882H26.7057V10.2749H26.3202ZM22.5744 5.62472C22.5744 5.62472 20.1752 5.62472 19.6927 5.62472V2.0435C20.1752 2.0435 22.5744 2.0435 22.5744 2.0435C24.2873 2.0435 25.0665 2.90247 25.0665 3.88559C25.0665 5.15739 23.711 5.62472 22.5744 5.62472Z" fill="#131108"/>
<path d="M74.7191 0.930176V7.58995C74.7191 9.14235 73.4564 10.4041 71.902 10.4041C70.3446 10.4041 69.0748 9.14235 69.0748 7.58995V0.930176H67.9756V7.58995C67.9756 9.75604 69.7369 11.5184 71.902 11.5184C74.0711 11.5184 75.8315 9.75604 75.8315 7.58995V0.930176H74.7191Z" fill="#131108"/>
<path d="M76.8872 0.930176V2.0435C76.8872 2.0435 80.0213 2.0435 80.5189 2.0435C80.5189 2.59663 80.5189 11.3882 80.5189 11.3882H81.6322C81.6322 11.3882 81.6322 2.59663 81.6322 2.0435C82.1288 2.0435 85.2639 2.0435 85.2639 2.0435V0.930176H76.8872Z" fill="#131108"/>
<path d="M87.6761 0.930176H86.5759V11.3882H87.6761V0.930176Z" fill="#131108"/>
<path d="M38.0247 0.915527H37.1768C37.1768 0.915527 33.2817 6.62044 32.8456 7.27148C32.4066 6.62044 28.5235 0.915527 28.5235 0.915527H27.6727L26.3413 11.3927H27.4678C27.4678 11.3927 28.3469 4.32313 28.5074 3.04629C29.2129 4.06878 32.4136 8.70478 32.4136 8.70478H33.3029C33.3029 8.70478 36.5106 4.05565 37.2031 3.05033C37.3787 4.30295 38.3547 11.3877 38.3547 11.3877H39.4872L38.0247 0.915527Z" fill="#131108"/>
<path d="M67.2519 2.04309V0.929768H59.5898V10.2744H54.2472C51.8803 10.2744 50.0937 8.50806 50.0937 6.16533C50.0937 3.78021 51.8994 1.91289 54.2048 1.91289C55.0456 1.91289 55.8915 2.16422 56.5859 2.62348L57.0442 2.92427V1.60301L56.8938 1.51722C56.0661 1.04887 55.1345 0.799561 54.2048 0.799561C51.2757 0.799561 48.9834 3.15844 48.9834 6.16533C48.9834 9.09652 51.2958 11.3878 54.2472 11.3878H66.9248V10.2744C66.9248 10.2744 61.226 10.2744 60.69 10.2744V6.7225C61.1876 6.7225 64.3217 6.7225 64.3217 6.7225V5.61018C64.3217 5.61018 61.1876 5.61018 60.69 5.61018V2.04309C61.228 2.04309 67.2519 2.04309 67.2519 2.04309Z" fill="#131108"/>
<path d="M89.1145 6.16533C89.1145 9.16717 91.4088 11.518 94.3369 11.518C95.5754 11.518 96.823 11.0698 97.7657 10.2866L97.9999 10.0917L97.2752 9.27316L97.0552 9.45888C96.3415 10.0595 95.3514 10.4026 94.3369 10.4026C92.0316 10.4026 90.2278 8.54137 90.2278 6.16432C90.2278 3.7792 92.0316 1.91188 94.3369 1.91188C95.1788 1.91188 96.0266 2.16321 96.714 2.62247L97.1722 2.92326V1.60301L97.0229 1.51722C96.1952 1.04988 95.2686 0.799561 94.3369 0.799561C91.4088 0.799561 89.1145 3.15844 89.1145 6.16533Z" fill="#131108"/>
<path d="M44.74 0.915527H43.9506L39.6396 11.3877H40.8519C40.8519 11.3877 41.8279 9.09641 41.9612 8.78653C42.3084 8.78653 46.3782 8.78653 46.7294 8.78653C46.8606 9.10045 47.7761 11.3099 47.7761 11.3099H48.9813L44.74 0.915527ZM42.4053 7.68633C42.6526 7.06961 43.9567 3.81139 44.3544 2.81918C44.75 3.81139 46.0441 7.07062 46.2883 7.68633C45.6454 7.68633 43.0543 7.68633 42.4053 7.68633Z" fill="#131108"/>
<path d="M51.7944 16.5818V20.3629H54.6035V19.7785C54.6035 19.7785 52.6968 19.7785 52.4929 19.7785C52.4929 19.5655 52.4929 16.5808 52.4929 16.5808H51.7944V16.5818Z" fill="#131108"/>
<path d="M57.7496 16.5811H56.934L55.3291 20.3621H56.07C56.07 20.3621 56.3425 19.7262 56.3899 19.6102C56.5242 19.6102 58.2007 19.6102 58.334 19.6102C58.3824 19.7232 58.66 20.3621 58.66 20.3621H59.3958L57.7496 16.5811ZM56.614 19.0489C56.716 18.8097 57.2045 17.6691 57.3519 17.3169C57.5043 17.6702 57.9989 18.8097 58.1018 19.0489C57.8465 19.0489 56.8684 19.0489 56.614 19.0489Z" fill="#131108"/>
<path d="M63.3325 18.3636C63.606 18.1849 63.6605 17.9124 63.6605 17.6338C63.6605 17.0009 63.4748 16.5811 62.5835 16.5811H60.3669V20.3621H62.6875C63.4223 20.3621 63.7786 20.0018 63.7786 19.2589C63.7796 18.8874 63.714 18.5342 63.3325 18.3636ZM61.0654 17.1655C61.2582 17.1655 62.3655 17.1655 62.3655 17.1655C62.8762 17.1655 62.957 17.224 62.957 17.5823C62.957 18.0406 62.852 18.1314 62.315 18.1314C62.315 18.1314 61.2582 18.1314 61.0644 18.1314C61.0654 17.9639 61.0654 17.332 61.0654 17.1655ZM62.4382 19.7787C62.4382 19.7787 61.2622 19.7787 61.0654 19.7787C61.0654 19.6081 61.0654 18.8874 61.0654 18.7148C61.2622 18.7148 62.4937 18.7148 62.4937 18.7148C62.7389 18.7118 62.8934 18.7461 62.9741 18.8279C63.063 18.9147 63.0821 19.0782 63.0821 19.2972C63.0811 19.7212 62.9519 19.7787 62.4382 19.7787Z" fill="#131108"/>
<path d="M67.0056 16.553H66.4465C65.3523 16.5641 64.9839 16.8921 64.9839 17.8601V19.1258C64.9839 20.0383 65.3927 20.3916 66.4465 20.3916H67.0056C68.0574 20.3916 68.4672 20.0393 68.4672 19.1258V17.8601C68.4672 16.8921 68.0988 16.5631 67.0056 16.553ZM67.7667 19.1248C67.7667 19.7466 67.5699 19.8031 67.0046 19.8072H66.4454C65.8802 19.8031 65.6814 19.7456 65.6814 19.1248V17.8591C65.6814 17.2444 65.7954 17.1374 66.4454 17.1374H67.0046C67.6526 17.1374 67.7667 17.2444 67.7667 17.8591V19.1248Z" fill="#131108"/>
<path d="M72.7518 18.6553C73.1232 18.4676 73.1666 18.0961 73.1666 17.7196C73.1666 16.7718 72.6286 16.5811 71.7616 16.5811H69.7368V20.3621H70.4343C70.4343 20.3621 70.4343 19.1347 70.4343 18.942C70.6311 18.942 71.8292 18.942 71.8292 18.942C72.3299 18.942 72.4096 19.1035 72.4096 19.4951V20.3621H73.1101V19.3043C73.1101 19.0722 73.0374 18.8027 72.7518 18.6553ZM71.7677 18.3585C71.7616 18.3585 70.6291 18.3585 70.4343 18.3585C70.4343 18.1819 70.4343 17.3421 70.4343 17.1655C70.6291 17.1655 71.7677 17.1655 71.7677 17.1655C72.4651 17.1655 72.4651 17.3048 72.4651 17.6772C72.4651 18.19 72.4369 18.3404 71.7677 18.3585Z" fill="#131108"/>
<path d="M76.5137 16.5811H75.7002L74.0933 20.3621H74.8341C74.8341 20.3621 75.1067 19.7262 75.1541 19.6102C75.2894 19.6102 76.9639 19.6102 77.0981 19.6102C77.1466 19.7232 77.4252 20.3621 77.4252 20.3621H78.16L76.5137 16.5811ZM75.3802 19.0489C75.4821 18.8097 75.9666 17.6691 76.1201 17.3169C76.2715 17.6702 76.764 18.8097 76.868 19.0489C76.6126 19.0489 75.6346 19.0489 75.3802 19.0489Z" fill="#131108"/>
<path d="M78.488 16.5811V17.1645C78.488 17.1645 79.6397 17.1645 79.8315 17.1645C79.8315 17.3774 79.8315 20.3621 79.8315 20.3621H80.529C80.529 20.3621 80.529 17.3774 80.529 17.1645C80.7218 17.1645 81.8714 17.1645 81.8714 17.1645V16.5811H78.488Z" fill="#131108"/>
<path d="M84.8036 16.553H84.2454C83.1482 16.5641 82.7798 16.8921 82.7798 17.8601V19.1258C82.7798 20.0383 83.1906 20.3916 84.2454 20.3916H84.8036C85.8563 20.3916 86.2651 20.0393 86.2651 19.1258V17.8601C86.2651 16.8921 85.8997 16.5631 84.8036 16.553ZM85.5676 19.1248C85.5676 19.7466 85.3698 19.8031 84.8036 19.8072H84.2454C83.6771 19.8031 83.4803 19.7456 83.4803 19.1248V17.8591C83.4803 17.2444 83.5943 17.1374 84.2454 17.1374H84.8036C85.4536 17.1374 85.5676 17.2444 85.5676 17.8591V19.1248Z" fill="#131108"/>
<path d="M88.2505 16.5811H87.552V20.3621H88.2505V16.5811Z" fill="#131108"/>
<path d="M92.6998 18.6553C93.0722 18.4676 93.1146 18.0961 93.1146 17.7196C93.1146 16.7718 92.5787 16.5811 91.7116 16.5811H89.6848V20.3621H90.3823C90.3823 20.3621 90.3823 19.1347 90.3823 18.942C90.5781 18.942 91.7772 18.942 91.7772 18.942C92.2769 18.942 92.3606 19.1035 92.3606 19.4951V20.3621H93.0591V19.3043C93.0591 19.0722 92.9834 18.8027 92.6998 18.6553ZM91.7146 18.3585C91.7126 18.3585 90.5781 18.3585 90.3823 18.3585C90.3823 18.1819 90.3823 17.3421 90.3823 17.1655C90.5781 17.1655 91.7157 17.1655 91.7157 17.1655C92.4131 17.1655 92.4131 17.3048 92.4131 17.6772C92.4141 18.19 92.3859 18.3404 91.7146 18.3585Z" fill="#131108"/>
<path d="M94.2957 16.5811V20.3621H97.1885V19.7777C97.1885 19.7777 95.2 19.7777 94.9941 19.7777C94.9941 19.6051 94.9941 18.8753 94.9941 18.7037C95.198 18.7037 97.0946 18.7037 97.0946 18.7037V18.1435C97.0946 18.1435 95.198 18.1435 94.9941 18.1435C94.9941 17.974 94.9941 17.332 94.9941 17.1645C95.2 17.1645 97.1885 17.1645 97.1885 17.1645V16.5811H94.2957Z" fill="#131108"/>
</g>
<defs>
<clipPath id="clip0">
<rect width="98" height="19.5907" fill="white" transform="translate(0 0.799561)"/>
</clipPath>
</defs>
</svg>
