<svg width="99" height="49" viewBox="0 0 99 49" fill="none" xmlns="http://www.w3.org/2000/svg">
<path fill-rule="evenodd" clip-rule="evenodd" d="M28.6269 21.146C27.1676 22.9896 25.6015 24.3651 23.9255 25.2724C22.2756 26.1508 20.5447 26.7981 18.73 27.2113C18.0972 27.35 17.5482 27.4598 17.0801 27.5407C16.612 27.6245 16.1438 27.7054 15.6786 27.7892C14.8811 29.1358 14.1269 30.4708 13.4103 31.7884C12.6966 33.135 11.9799 34.47 11.2662 35.7876C10.2231 37.741 9.2724 39.5816 8.41997 41.3125C7.56754 43.0463 6.64576 44.7627 5.65751 46.4676C5.46391 46.797 5.20385 47.0455 4.87443 47.2102C4.54502 47.4038 4.1607 47.5685 3.7186 47.7043C3.27938 47.843 2.77081 47.9788 2.19289 48.1175C1.61497 48.2562 0.982152 48.4469 0.294429 48.6954C0.129722 48.7792 0.0343657 48.7503 0.00546975 48.6116C-0.0205366 48.5018 0.0459241 48.418 0.210631 48.3631C0.92436 48.0886 1.53118 47.8141 2.0253 47.5396C2.51942 47.2911 2.97308 46.9906 3.38629 46.6323C3.77061 46.2739 4.14337 45.8492 4.49879 45.3551C4.8571 44.8609 5.26742 44.2426 5.73553 43.4999C6.20365 42.7313 6.78157 41.7691 7.4664 40.6132C8.12523 39.4863 8.86785 38.2351 9.69427 36.8597C10.5178 35.4842 11.3847 34.0134 12.292 32.4472C13.1994 30.9071 14.1211 29.3554 15.0545 27.7863C14.8898 27.7314 14.806 27.5812 14.806 27.3327C14.806 27.168 14.8869 27.0726 15.0545 27.0437C15.2481 27.0177 15.3983 26.9888 15.5081 26.9599L17.4066 23.868C18.285 22.4377 19.1664 20.9524 20.0448 19.4152C20.9232 17.875 21.8306 16.4996 22.7668 15.2917C22.8766 15.1819 23.0269 15.0981 23.2205 15.0432C23.2754 15.0172 23.3852 14.9883 23.5499 14.9623C23.7146 14.9334 23.8793 14.9074 24.044 14.8785C24.2087 14.8525 24.359 14.8381 24.4977 14.8381C24.6364 14.8092 24.7173 14.7976 24.7462 14.7976C24.83 14.7976 24.8704 14.8236 24.8704 14.8814C24.8704 14.9652 24.8155 15.0606 24.7057 15.1704C24.1278 15.6934 23.6192 16.2019 23.18 16.6961C22.7408 17.1642 22.3276 17.6294 21.9433 18.0975C21.5589 18.5367 21.1862 18.9904 20.8308 19.4585C20.5014 19.9266 20.1575 20.4352 19.7992 20.9842C20.0737 20.6808 20.3771 20.3659 20.7065 20.0364C21.0359 19.707 21.3653 19.4036 21.6976 19.1291C22.0271 18.8546 22.3565 18.635 22.6888 18.4703C23.0182 18.2767 23.3216 18.1813 23.5961 18.1813C23.8706 18.1813 24.0902 18.2651 24.2549 18.4298C24.4485 18.5945 24.5439 18.869 24.5439 19.2534C24.5439 19.5279 24.4196 19.9555 24.174 20.5306C23.9544 21.1085 23.5557 21.7529 22.9777 22.4695C22.4287 23.1832 21.6861 23.9258 20.7499 24.6974C19.8136 25.466 18.6462 26.1826 17.2448 26.8414C17.9874 26.7576 18.8109 26.6363 19.7183 26.4716C20.6516 26.278 21.6138 25.9774 22.605 25.5642C23.5961 25.125 24.5844 24.5471 25.5755 23.8334C26.5666 23.0907 27.5 22.143 28.3813 20.9871C28.4073 20.9322 28.4506 20.9178 28.5055 20.9467C28.5835 20.9409 28.6269 21.0102 28.6269 21.146ZM22.8535 20.074C22.8535 19.9642 22.8246 19.8255 22.7697 19.6608C22.7408 19.4961 22.605 19.4123 22.3565 19.4123C22.2178 19.4123 22.0126 19.4961 21.7381 19.6608C21.4896 19.7995 21.2006 20.0047 20.8712 20.2792C20.5418 20.5277 20.1979 20.8426 19.8396 21.227C19.4813 21.6113 19.1375 22.0389 18.8081 22.5042C18.3399 23.163 17.8863 23.8796 17.4471 24.6482C17.0078 25.3909 16.5686 26.1595 16.1265 26.957C17.0338 26.7085 17.8863 26.2982 18.6838 25.7203C19.5073 25.1424 20.224 24.5095 20.8279 23.8218C21.4607 23.1341 21.9548 22.4464 22.3131 21.7586C22.6743 21.0796 22.8535 20.5161 22.8535 20.074Z" fill="#010202"/>
<path fill-rule="evenodd" clip-rule="evenodd" d="M45.2449 0.733957C45.2449 1.11827 45.0946 1.68174 44.7912 2.42437C44.4878 3.16699 44.0486 4.03387 43.4707 5.02211C42.9216 5.98435 42.2339 7.03038 41.4075 8.15732C40.61 9.25826 39.6882 10.3563 38.645 11.4572C37.6279 12.5582 36.501 13.6158 35.2642 14.6329C34.0275 15.624 32.7069 16.5025 31.3055 17.2711C31.057 17.7103 30.7131 18.3027 30.2739 19.0453C29.8347 19.7879 29.3955 20.571 28.9533 21.3974C28.5401 22.221 28.1703 23.0329 27.8409 23.8305C27.5374 24.628 27.3872 25.3013 27.3872 25.8503C27.3872 26.7287 27.786 27.1708 28.5835 27.1708C29.2712 27.1708 29.9849 26.9772 30.7276 26.5929C31.4702 26.2086 32.1724 25.7405 32.8312 25.1915C33.5189 24.6425 34.1517 24.0645 34.7296 23.4606C35.3336 22.8278 35.8421 22.2643 36.2554 21.7702C36.449 21.5766 36.5588 21.5361 36.5848 21.6459C36.6137 21.7269 36.5703 21.8251 36.4605 21.9349C35.9664 22.5388 35.374 23.1861 34.6863 23.8738C34.0275 24.5615 33.3109 25.1944 32.5422 25.7723C31.7996 26.3502 31.0165 26.8299 30.1901 27.2171C29.3666 27.6014 28.5401 27.795 27.7166 27.795C27.0029 27.795 26.4799 27.6303 26.1504 27.3009C25.847 26.9426 25.6968 26.5178 25.6968 26.0237C25.6968 25.5296 25.9019 24.8274 26.3152 23.9201C26.7544 22.9867 27.2629 22.01 27.8409 20.9929C28.4188 19.9758 28.9967 19.0135 29.5717 18.1062C30.1496 17.1989 30.5744 16.5111 30.8489 16.043C31.317 15.2455 31.7967 14.422 32.2908 13.5695C32.8138 12.6911 33.3224 11.8387 33.8165 11.0122C34.3107 10.1858 34.7788 9.40274 35.218 8.66011C35.6861 7.89148 36.1109 7.2182 36.4952 6.64029C36.9633 5.92656 37.443 5.25328 37.94 4.62046C38.4341 3.98764 39.0669 3.35482 39.8384 2.722C40.8816 1.84356 41.8438 1.17029 42.7252 0.702171C43.6036 0.234057 44.196 0 44.4994 0C44.719 0 44.8981 0.0693503 45.0368 0.205161C45.1755 0.306297 45.2449 0.485452 45.2449 0.733957ZM43.3898 1.806C43.3898 1.36678 43.2106 1.14717 42.8523 1.14717C42.7136 1.14717 42.5633 1.18762 42.3986 1.27142C42.2339 1.35522 42.0143 1.53148 41.7398 1.80889C41.4913 2.05739 41.1763 2.41281 40.792 2.88092C40.4337 3.34904 39.9685 3.95296 39.3906 4.69559C39.171 4.999 38.8531 5.43821 38.4428 6.01613C38.0585 6.59405 37.5499 7.36268 36.9171 8.32492C36.3131 9.25826 35.5705 10.4285 34.6892 11.83C33.8368 13.2054 32.8196 14.841 31.6378 16.7365C33.2877 15.8032 34.8279 14.6734 36.2554 13.3557C37.7117 12.0091 38.9629 10.6337 40.0089 9.23225C41.055 7.8308 41.8785 6.4698 42.4824 5.14926C43.0864 3.82582 43.3898 2.71333 43.3898 1.806Z" fill="#010202"/>
<path fill-rule="evenodd" clip-rule="evenodd" d="M48.2559 21.9724C47.6231 22.741 46.9209 23.527 46.1523 24.3216C45.4096 25.0931 44.6526 25.7924 43.8839 26.4252C43.1153 27.0581 42.3438 27.5666 41.5752 27.9509C40.8325 28.3353 40.1448 28.5289 39.512 28.5289C38.963 28.5289 38.5758 28.3902 38.3562 28.1157C38.1365 27.8411 38.0267 27.4973 38.0267 27.0841C38.0267 26.6998 38.1365 26.1912 38.3562 25.5584C38.6047 24.8995 38.9601 24.1974 39.4282 23.4547C39.0699 23.9229 38.6596 24.417 38.1914 24.94C37.7233 25.463 37.2437 25.9427 36.7466 26.3848C36.2525 26.798 35.7584 27.1534 35.2614 27.4568C34.7673 27.7313 34.3281 27.87 33.9409 27.87C33.3629 27.87 33.074 27.5811 33.074 27.0032C33.074 26.3703 33.3225 25.5728 33.8166 24.6106C34.3107 23.6483 34.9724 22.7266 35.796 21.8481C36.6484 20.9408 37.6106 20.1722 38.6827 19.5393C39.7547 18.8805 40.8672 18.5511 42.023 18.5511C42.1617 18.2766 42.2831 18.083 42.3929 17.9732C42.5027 17.8634 42.6125 17.7796 42.7223 17.7247L43.8782 17.3953L43.962 17.4357C43.8233 17.5744 43.6875 17.7507 43.5488 17.9732C43.4389 18.1668 43.3147 18.3719 43.1789 18.5916C43.3176 18.5916 43.5227 18.606 43.7973 18.632C44.0718 18.6609 44.2769 18.6869 44.4156 18.7158C44.5543 18.7707 44.6208 18.8401 44.6208 18.921C44.6208 19.0048 44.5803 19.0452 44.4965 19.0452C44.3318 18.9903 44.0833 18.9499 43.7539 18.921C43.4245 18.895 43.176 18.8805 43.0113 18.8805C41.7456 21.1084 40.8123 22.8797 40.2084 24.2003C39.6305 25.4919 39.3415 26.4541 39.3415 27.087C39.3415 27.3355 39.3964 27.5406 39.5062 27.7053C39.6449 27.87 39.905 27.9538 40.2893 27.9538C40.7285 27.9538 41.2515 27.8036 41.8555 27.5002C42.4594 27.1708 43.1066 26.7315 43.7944 26.1796C44.4821 25.6017 45.1814 24.9429 45.898 24.2003C46.6406 23.4576 47.3399 22.6746 48.0016 21.8481C48.0565 21.7643 48.1114 21.7528 48.1663 21.8077C48.227 21.8337 48.2559 21.8886 48.2559 21.9724ZM41.8237 18.8372C40.8874 18.8372 39.9946 19.1666 39.1421 19.8283C38.2897 20.4871 37.5326 21.2702 36.8738 22.1804C36.215 23.0589 35.6775 23.9402 35.2643 24.8186C34.88 25.7 34.6864 26.3443 34.6864 26.7575C34.6864 26.9772 34.7702 27.087 34.9349 27.087C35.0996 27.087 35.3481 26.9772 35.6775 26.7575C36.0358 26.5379 36.4346 26.249 36.8738 25.8907C37.313 25.5064 37.7522 25.0671 38.1943 24.5701C38.6624 24.076 39.0872 23.5385 39.4715 22.9606C39.9108 22.3018 40.3384 21.5996 40.7487 20.857C41.1619 20.1144 41.5318 19.4555 41.8612 18.8776L41.8237 18.8372Z" fill="#010202"/>
<path fill-rule="evenodd" clip-rule="evenodd" d="M55.4309 12.5698C55.2113 12.6247 54.9628 12.7345 54.6882 12.8992C54.4137 13.0379 54.2086 13.2141 54.0699 13.4366C53.437 14.3151 52.8187 15.2369 52.2148 16.1991C51.6368 17.1613 51.0734 18.1236 50.5243 19.0858H55.6389C55.7227 19.1407 55.7632 19.1956 55.7632 19.2505C55.7632 19.3054 55.7372 19.3459 55.6794 19.3748C55.4598 19.3748 55.1304 19.3892 54.6882 19.4152C54.249 19.4152 53.7665 19.4297 53.2463 19.4557C52.7233 19.4817 52.1887 19.5106 51.6368 19.5395C51.0878 19.5684 50.6052 19.5944 50.192 19.6233C49.4234 20.9987 48.831 22.1661 48.4178 23.1283C48.0046 24.0906 47.7995 24.9286 47.7995 25.6452C47.7995 26.6363 48.2531 27.1304 49.1605 27.1304C49.5997 27.1304 50.0938 27.0206 50.6457 26.801C51.2236 26.5525 51.8275 26.2375 52.4604 25.8532C52.5442 25.7694 52.6251 25.7839 52.7089 25.8937C52.7927 25.9775 52.7638 26.0439 52.6251 26.0988C51.6917 26.7028 50.8249 27.1449 50.0273 27.4194C49.2298 27.6939 48.4178 27.8326 47.5943 27.8326C47.1551 27.8326 46.7708 27.7083 46.4385 27.4627C46.109 27.1882 45.9443 26.7345 45.9443 26.1017C45.9443 25.5527 46.1928 24.7407 46.687 23.6687C47.1811 22.5967 47.9093 21.2761 48.8715 19.7099C48.5421 19.7388 48.1289 19.7793 47.6347 19.8342C47.1666 19.8631 46.8921 19.8747 46.8112 19.8747C46.6725 19.8747 46.6061 19.8197 46.6061 19.7099C46.7159 19.5163 46.895 19.3256 47.1435 19.132L49.2471 19.0916C49.4956 18.6784 49.7702 18.2247 50.0707 17.7306C50.3741 17.2076 50.6746 16.699 50.978 16.2049C51.2814 15.6819 51.5819 15.1877 51.8853 14.7196C52.2148 14.2255 52.5037 13.7718 52.7522 13.3586C53.0556 13.2199 53.4659 13.0437 53.989 12.8212C54.538 12.6015 55.0205 12.4224 55.4338 12.2837C55.4887 12.2837 55.5291 12.3241 55.558 12.4079C55.584 12.46 55.5407 12.5149 55.4309 12.5698Z" fill="#010202"/>
<path fill-rule="evenodd" clip-rule="evenodd" d="M61.7011 13.0234C61.7011 13.3528 61.5509 13.6822 61.2475 14.0145C60.9729 14.3439 60.6551 14.5086 60.2997 14.5086C59.9703 14.5086 59.8055 14.3439 59.8055 14.0145C59.8055 13.6562 59.9298 13.3123 60.1783 12.9829C60.4528 12.6535 60.7822 12.4888 61.1665 12.4888C61.522 12.4859 61.7011 12.6651 61.7011 13.0234ZM63.5562 22.2181C62.8974 23.0705 62.1403 23.8825 61.2879 24.6511C60.4355 25.4197 59.6524 26.0381 58.9387 26.5062C58.3896 26.8645 57.8262 27.139 57.2483 27.3298C56.6703 27.5234 56.1473 27.6187 55.6821 27.6187C55.5174 27.6187 55.3238 27.6043 55.1042 27.5783C54.8846 27.5494 54.6794 27.4829 54.4858 27.3731C54.3211 27.2633 54.1708 27.1246 54.0321 26.9599C53.9223 26.7663 53.8674 26.5207 53.8674 26.2173C53.8674 25.859 54.0061 25.3793 54.2806 24.7754C54.5552 24.1425 54.873 23.4982 55.2284 22.8364C55.6127 22.1776 55.9855 21.5448 56.3409 20.938C56.7252 20.334 57.0286 19.8804 57.2483 19.577C57.387 19.3574 57.621 19.1782 57.9504 19.0395C58.3087 18.8748 58.5428 18.791 58.6526 18.791C58.7913 18.791 58.8578 18.8315 58.8578 18.9153C58.8578 18.9702 58.8318 19.054 58.774 19.1638C58.7451 19.2736 58.7046 19.3574 58.6497 19.4123C58.2914 19.9613 57.9215 20.5681 57.5372 21.2269C57.1789 21.8858 56.8495 22.533 56.549 23.1658C56.2456 23.7698 56 24.3332 55.8064 24.8563C55.6416 25.3793 55.5578 25.7925 55.5578 26.093C55.5578 26.4224 55.6416 26.6709 55.8064 26.8356C56 26.9743 56.2456 27.0408 56.549 27.0408C57.098 27.0408 57.7048 26.8616 58.3636 26.5062C59.0225 26.1219 59.6697 25.6682 60.3026 25.1452C60.9614 24.6222 61.5682 24.0732 62.1172 23.4953C62.6662 22.9173 63.0939 22.4232 63.3944 22.01C63.5331 21.8713 63.5996 21.8453 63.5996 21.9291C63.6256 21.9869 63.6111 22.0823 63.5562 22.2181Z" fill="#010202"/>
<path fill-rule="evenodd" clip-rule="evenodd" d="M74.401 22.3019C73.9069 22.9896 73.3289 23.6889 72.6701 24.4055C72.0373 25.0932 71.3496 25.7116 70.6069 26.2606C69.8932 26.8096 69.1506 27.2633 68.3791 27.6216C67.6364 27.9799 66.9083 28.1562 66.1945 28.1562C65.8651 28.1562 65.5617 28.1013 65.2872 27.9915C65.0127 27.9077 64.874 27.6765 64.874 27.2893C64.874 26.905 65.0127 26.4224 65.2872 25.8445C65.5617 25.2406 65.8767 24.6078 66.235 23.9489C66.6193 23.2901 67.0036 22.6139 67.3908 21.9291C67.804 21.2414 68.1334 20.6086 68.3791 20.0306C68.434 19.8919 68.434 19.7821 68.3791 19.7012C68.353 19.5914 68.2693 19.577 68.1306 19.6608C67.8271 19.8544 67.4717 20.1144 67.0585 20.4438C66.6453 20.7733 66.2205 21.1316 65.7813 21.5159C65.3681 21.8742 64.9578 22.2441 64.5446 22.6284C64.1602 23.0127 63.8424 23.3566 63.5968 23.66C63.1576 24.3477 62.7732 24.9805 62.4409 25.5555C62.1375 26.1335 61.7532 26.7778 61.2851 27.4945C61.1753 27.6592 61.0915 27.743 61.0366 27.743C60.8979 27.743 60.7765 27.5927 60.6667 27.2893C60.5829 26.9859 60.5425 26.7952 60.5425 26.7114C60.5425 26.4629 60.7072 26.1335 61.0366 25.7231C61.3949 25.2839 61.7792 24.8014 62.1924 24.2783C62.6317 23.3999 63.0853 22.4781 63.5534 21.5159C64.0216 20.5248 64.4203 19.6463 64.7497 18.8777C64.8335 18.739 64.9549 18.6725 65.1196 18.6725C65.2843 18.6725 65.4374 18.7419 65.5733 18.8777C65.712 19.0164 65.7784 19.1666 65.7784 19.3314C65.7784 19.4412 65.5733 19.8255 65.16 20.4872C64.7757 21.12 64.3914 21.8626 64.0042 22.7151C64.5272 22.247 65.0907 21.7528 65.6946 21.2298C66.3274 20.7068 66.9169 20.2271 67.4688 19.7879C68.0468 19.3487 68.5409 18.9904 68.9541 18.7159C69.3933 18.4125 69.6967 18.2622 69.8614 18.2622C69.9712 18.2622 70.0666 18.3316 70.1504 18.4674C70.2602 18.5772 70.3151 18.687 70.3151 18.7968C70.3151 18.9066 70.2457 19.0713 70.1099 19.2909C69.8065 19.7301 69.4366 20.2936 68.9974 20.9813C68.5582 21.669 68.1306 22.3828 67.7202 23.1254C67.3359 23.8391 67.0065 24.5268 66.7291 25.1886C66.4546 25.8474 66.3159 26.3704 66.3159 26.7547C66.3159 27.0841 66.3852 27.3182 66.521 27.4569C66.6597 27.5667 66.8794 27.6216 67.1799 27.6216C67.648 27.6216 68.197 27.4424 68.8298 27.087C69.4627 26.7287 70.107 26.2895 70.7688 25.7665C71.4565 25.2175 72.1009 24.6106 72.7077 23.9518C73.3116 23.293 73.8086 22.6602 74.1929 22.0534C74.2478 21.9696 74.3316 21.958 74.4414 22.0129C74.5512 22.0418 74.5397 22.1372 74.401 22.3019Z" fill="#010202"/>
<path fill-rule="evenodd" clip-rule="evenodd" d="M84.8351 22.6746C84.367 23.3335 83.818 24.0356 83.1852 24.7783C82.5523 25.492 81.8935 26.1537 81.2058 26.7576C80.5181 27.3616 79.8188 27.8586 79.1022 28.2429C78.3884 28.6561 77.7152 28.8613 77.0823 28.8613C76.6142 28.8613 76.2444 28.737 75.9698 28.4885C75.7213 28.24 75.6 27.8557 75.6 27.3355C75.6 27.087 75.626 26.8125 75.6838 26.512C75.7676 26.1826 75.8889 25.8243 76.0536 25.44C75.8889 25.6336 75.6953 25.8647 75.4757 26.1421C75.2821 26.3907 75.0509 26.6363 74.7735 26.8848C74.525 27.1044 74.2361 27.298 73.9067 27.4627C73.6033 27.6014 73.2594 27.6679 72.8751 27.6679C72.5717 27.6679 72.3261 27.5841 72.1325 27.4193C71.9389 27.2257 71.8435 26.9397 71.8435 26.5525C71.8435 26.3329 71.884 26.0583 71.9678 25.7289C72.0776 25.3995 72.2567 24.9603 72.5052 24.4084C72.7797 23.8305 73.138 23.1312 73.5773 22.3048C74.0454 21.4523 74.6348 20.4092 75.3515 19.1696C75.4902 18.895 75.6115 18.7563 75.7242 18.7563C75.9178 18.7563 76.1085 18.8806 76.3021 19.1262C76.5218 19.3458 76.6316 19.4961 76.6316 19.5799C76.6316 19.6637 76.5478 19.8284 76.3831 20.074C75.9438 20.7328 75.5306 21.3945 75.1463 22.0534C74.762 22.7122 74.4181 23.3306 74.1147 23.9085C73.8402 24.4864 73.6062 25.0094 73.4126 25.4747C73.2478 25.9139 73.164 26.2577 73.164 26.5062C73.164 26.9194 73.3143 27.1246 73.6177 27.1246C73.8922 27.1246 74.265 26.9194 74.7302 26.5062C75.2243 26.067 75.8022 25.3388 76.4611 24.3217C76.7096 23.8825 76.9552 23.4288 77.2037 22.9607C77.4782 22.4666 77.7412 21.9985 77.9868 21.5593C78.2353 21.12 78.4693 20.7213 78.689 20.363C78.9086 19.9786 79.0733 19.6897 79.1831 19.4961C79.3218 19.3025 79.4316 19.2071 79.5125 19.2071C79.6223 19.2071 79.7465 19.3314 79.8852 19.577C80.0239 19.7966 80.0904 20.0711 80.0904 20.4005C80.0904 20.6201 80.0355 20.8282 79.9257 21.0189C79.5963 21.513 79.238 22.01 78.8537 22.5042C78.4954 22.9723 78.1515 23.4664 77.8221 23.9894C77.5187 24.5124 77.2586 25.0614 77.039 25.6394C76.8194 26.2173 76.7096 26.8501 76.7096 27.5378C76.7096 28.1417 76.9985 28.4452 77.5765 28.4452C77.9608 28.4452 78.4144 28.2949 78.9375 27.9915C79.4865 27.717 80.0788 27.3182 80.7117 26.7952C81.3445 26.2722 81.9889 25.6394 82.6506 24.8967C83.3383 24.1541 83.9827 23.3421 84.5895 22.4637C84.7513 22.4117 84.8351 22.481 84.8351 22.6746Z" fill="#010202"/>
<path fill-rule="evenodd" clip-rule="evenodd" d="M98.4018 24.076C98.0175 24.5152 97.5494 25.0093 97.0004 25.5613C96.4773 26.1103 95.9139 26.6333 95.3099 27.1274C94.706 27.6215 94.0732 28.0348 93.4144 28.3642C92.7815 28.6936 92.1632 28.8583 91.5592 28.8583C91.0102 28.8583 90.623 28.7485 90.4034 28.5289C90.1838 28.3093 90.074 27.9654 90.074 27.4973C90.074 27.1939 90.2243 26.6998 90.5277 26.012C90.8571 25.3243 91.2154 24.6106 91.5997 23.868C91.984 23.1253 92.3279 22.4232 92.6313 21.7643C92.9607 21.0766 93.1254 20.5969 93.1254 20.3195C93.1254 20.1548 93.0561 20.071 92.9203 20.071C92.5619 20.2646 92.1516 20.5536 91.6835 20.9379C91.2443 21.2962 90.8051 21.695 90.363 22.1342C89.9237 22.5734 89.5105 23.0011 89.1262 23.4114C88.7679 23.8246 88.4934 24.1685 88.3027 24.443C88.1091 24.7175 87.9184 25.0469 87.7248 25.4341C87.5312 25.8184 87.3404 26.1912 87.1468 26.5466C86.9821 26.9049 86.803 27.2054 86.6094 27.4539C86.4447 27.7024 86.2944 27.8238 86.1557 27.8238C86.017 27.8238 85.8957 27.7545 85.7858 27.6187C85.676 27.4799 85.6211 27.3441 85.6211 27.2054C85.6211 27.1216 85.6616 26.9858 85.7454 26.7922C85.8292 26.5726 85.9794 26.3097 86.1991 26.0091C86.5574 25.515 86.8723 24.992 87.1468 24.443C87.4502 23.894 87.6959 23.3854 87.8895 22.9173C88.1091 22.4492 88.2738 22.0504 88.3836 21.721C88.4934 21.3916 88.5483 21.198 88.5483 21.1431C88.5483 20.9235 88.4934 20.8137 88.3836 20.8137C88.2189 20.8137 87.9299 20.9928 87.5167 21.3511C87.1324 21.6805 86.7047 22.0937 86.2395 22.5879C85.7714 23.082 85.3062 23.605 84.8381 24.154C84.3988 24.7031 84.0261 25.2001 83.7256 25.6393C83.3412 26.2172 83.0118 26.7258 82.7373 27.165C82.4628 27.6042 82.2577 27.8238 82.119 27.8238C81.8993 27.8238 81.7606 27.7285 81.7057 27.5349C81.6797 27.3412 81.6653 27.1505 81.6653 26.9569C81.6653 26.7373 81.7202 26.5582 81.83 26.4195C82.5726 25.2376 83.3008 24.0269 84.0145 22.7901C84.7283 21.5534 85.4449 20.3282 86.1586 19.1204C86.2973 18.8719 86.4476 18.7505 86.6123 18.7505C86.751 18.7505 86.8723 18.8343 86.985 18.999C87.0948 19.1377 87.1497 19.2735 87.1497 19.4122C86.9561 19.9612 86.6267 20.6345 86.1615 21.432C85.6934 22.2296 85.2831 22.9577 84.9247 23.6166C86.0257 22.3509 86.9446 21.4031 87.6872 20.7703C88.4298 20.1115 89.0337 19.7821 89.5019 19.7821C89.8053 19.7821 89.9555 19.9872 89.9555 20.4004C89.9555 20.675 89.8313 21.1026 89.5828 21.6776C89.3343 22.2267 89.1147 22.6803 88.9239 23.0386C88.869 23.1485 88.8546 23.2034 88.8835 23.2034C88.9384 23.1745 88.9933 23.134 89.0482 23.0791C89.3776 22.6948 89.7504 22.296 90.1607 21.8828C90.5999 21.4436 91.0536 21.0304 91.5217 20.6461C92.0158 20.2617 92.4984 19.9034 92.9665 19.574C93.4606 19.2446 93.9143 18.9817 94.3275 18.7909C94.7407 18.7909 94.9459 18.9845 94.9459 19.3689C94.9459 19.4527 94.9314 19.5336 94.9054 19.6174C94.8765 19.6983 94.8361 19.7965 94.7812 19.9063C94.6425 20.2097 94.3824 20.7039 93.9981 21.3916C93.6398 22.0793 93.2699 22.8219 92.8856 23.6195C92.5013 24.3881 92.1574 25.1452 91.854 25.8878C91.5795 26.6015 91.4408 27.1534 91.4408 27.5377C91.4408 28.0868 91.7008 28.3613 92.2239 28.3613C92.718 28.3613 93.241 28.1966 93.79 27.8672C94.339 27.5377 94.8881 27.139 95.44 26.6709C95.989 26.2028 96.4976 25.7231 96.9657 25.2261C97.4338 24.7031 97.8326 24.2494 98.162 23.8651C98.2718 23.7004 98.3816 23.631 98.4914 23.6599C98.5954 23.6917 98.5665 23.8275 98.4018 24.076Z" fill="#010202"/>
<path fill-rule="evenodd" clip-rule="evenodd" d="M20.9636 36.8192V37.0706C20.9636 37.9866 20.6168 38.0906 19.6632 38.0906C18.1809 38.0906 18.1231 37.6571 18.1231 36.2326C18.1231 34.6144 18.152 34.1521 19.5014 34.1521C20.377 34.1521 20.8798 34.1723 20.8798 35.0854V35.2386H21.6397V35.1027C21.6397 33.6666 20.6775 33.5337 19.4523 33.5337C17.6232 33.5337 17.3342 34.3717 17.3342 36.0187C17.3342 37.897 17.4787 38.7061 19.5794 38.7061C20.7844 38.7061 21.7264 38.524 21.7264 37.0966V36.8163H20.9636V36.8192Z" fill="#010202"/>
<path fill-rule="evenodd" clip-rule="evenodd" d="M26.7283 36.1227C26.7283 38.2524 27.0952 38.7031 28.9735 38.7031C30.8517 38.7031 31.2187 38.2495 31.2187 36.1227C31.2187 33.9844 30.8517 33.5308 28.9735 33.5308C27.0952 33.5337 26.7283 33.9844 26.7283 36.1227ZM27.52 36.1227C27.52 34.3601 27.6154 34.1491 28.9735 34.1491C30.3316 34.1491 30.427 34.3601 30.427 36.1227C30.427 37.8767 30.3316 38.0876 28.9735 38.0876C27.6154 38.0905 27.52 37.8767 27.52 36.1227Z" fill="#010202"/>
<path d="M37.2407 31.4243H36.4807V38.6483H37.2407V31.4243Z" fill="#010202"/>
<path d="M43.4099 31.4243H42.6499V38.6483H43.4099V31.4243Z" fill="#010202"/>
<path fill-rule="evenodd" clip-rule="evenodd" d="M52.3155 37.1168V37.3104C52.3155 38.0241 51.9774 38.0906 50.9372 38.0906C49.5704 38.0906 49.4548 37.8883 49.4548 36.2904H53.0957V35.7789C53.0957 33.9093 52.5756 33.5337 50.9372 33.5337C49.1254 33.5337 48.6631 34.0249 48.6631 36.1257C48.6631 38.053 48.9607 38.7061 50.9372 38.7061C52.0641 38.7061 53.0957 38.6396 53.0957 37.2988V37.1168H52.3155ZM49.4548 35.672C49.5126 34.5075 49.5617 34.1492 50.9372 34.1492C52.093 34.1492 52.2664 34.2359 52.304 35.672H49.4548Z" fill="#010202"/>
<path fill-rule="evenodd" clip-rule="evenodd" d="M61.8166 36.8192V37.0706C61.8166 37.9866 61.4698 38.0906 60.5163 38.0906C59.0339 38.0906 58.9761 37.6571 58.9761 36.2326C58.9761 34.6144 59.005 34.1521 60.3545 34.1521C61.23 34.1521 61.7328 34.1723 61.7328 35.0854V35.2386H62.4928V35.1027C62.4928 33.6666 61.5305 33.5337 60.3053 33.5337C58.4762 33.5337 58.1873 34.3717 58.1873 36.0187C58.1873 37.897 58.3317 38.7061 60.4325 38.7061C61.6374 38.7061 62.5794 38.524 62.5794 37.0966V36.8163H61.8166V36.8192Z" fill="#010202"/>
<path fill-rule="evenodd" clip-rule="evenodd" d="M70.4161 33.5914H68.4598V32.3691H67.6999V33.5914H67.0266V34.2069H67.6999V37.1832C67.6999 38.3679 67.9686 38.706 69.1534 38.706C70.1936 38.706 70.6068 38.235 70.6068 37.2323V36.8567H69.8844V37.2323C69.8844 37.7149 69.8844 38.0905 69.1707 38.0905C68.613 38.0905 68.4685 37.9663 68.457 37.4173V34.2098H70.4132V33.5914H70.4161Z" fill="#010202"/>
<path fill-rule="evenodd" clip-rule="evenodd" d="M76.1318 33.5915H75.3718V38.6483H76.1318V33.5915ZM76.1318 31.4243H75.3718V32.2623H76.1318V31.4243Z" fill="#010202"/>
<path fill-rule="evenodd" clip-rule="evenodd" d="M81.3965 36.1227C81.3965 38.2524 81.7635 38.7031 83.6417 38.7031C85.5199 38.7031 85.8869 38.2495 85.8869 36.1227C85.8869 33.9844 85.5199 33.5308 83.6417 33.5308C81.7606 33.5337 81.3965 33.9844 81.3965 36.1227ZM82.1853 36.1227C82.1853 34.3601 82.2807 34.1491 83.6388 34.1491C84.9969 34.1491 85.0923 34.3601 85.0923 36.1227C85.0923 37.8767 84.9969 38.0876 83.6388 38.0876C82.2807 38.0905 82.1853 37.8767 82.1853 36.1227Z" fill="#010202"/>
<path fill-rule="evenodd" clip-rule="evenodd" d="M91.9174 33.5914H91.1575V38.6482H91.9174V35.7008C91.9174 34.5363 92.1862 34.1491 93.4287 34.1491C94.2869 34.1491 94.6423 34.3023 94.6423 35.227V38.6453H95.4023V35.2847C95.4225 33.8775 94.7955 33.5308 93.4952 33.5308C92.9172 33.5308 92.1746 33.5972 91.9348 34.204H91.9145V33.5914H91.9174Z" fill="#010202"/>
</svg>
