<svg width="32" height="32" viewBox="0 0 32 32" fill="none" xmlns="http://www.w3.org/2000/svg">
<path fill-rule="evenodd" clip-rule="evenodd" d="M16 32C24.8366 32 32 24.8366 32 16C32 7.16344 24.8366 0 16 0C7.16344 0 0 7.16344 0 16C0 24.8366 7.16344 32 16 32ZM19.046 9.62C19.046 10.52 18.326 11.24 17.426 11.24C16.526 11.24 15.806 10.52 15.806 9.62C15.806 8.72 16.526 8 17.426 8C18.326 8 19.046 8.72 19.046 9.62ZM18.542 21.158C16.598 22.67 16.058 22.94 15.284 22.94C14.168 22.94 13.772 22.112 14.096 20.708L15.698 14.768C15.824 14.21 15.752 14.12 15.608 14.12C15.41 14.12 15.194 14.264 13.916 15.272L11.828 16.91L11 15.884L12.854 14.444C14.798 12.932 15.338 12.662 16.112 12.662C17.228 12.662 17.624 13.49 17.3 14.894L15.698 20.834C15.572 21.392 15.644 21.482 15.788 21.482C15.986 21.482 16.202 21.338 17.48 20.33L19.568 18.692L20.396 19.718L18.542 21.158Z" fill="black"/>
</svg>
