<svg width="26" height="26" viewBox="0 0 26 26" fill="none" xmlns="http://www.w3.org/2000/svg">
<path fill-rule="evenodd" clip-rule="evenodd" d="M7.72347 0.277529C9.08882 0.215395 9.52509 0.200195 13.0014 0.200195H12.9974C16.4748 0.200195 16.9094 0.215395 18.2748 0.277529C19.6375 0.33993 20.5681 0.555666 21.3841 0.872202C22.2268 1.19887 22.9388 1.63621 23.6508 2.34822C24.3628 3.05969 24.8002 3.77383 25.1282 4.61571C25.4429 5.42958 25.6589 6.35973 25.7229 7.72241C25.7842 9.08775 25.8002 9.52403 25.8002 13.0003C25.8002 16.4766 25.7842 16.9118 25.7229 18.2772C25.6589 19.6393 25.4429 20.5697 25.1282 21.3839C24.8002 22.2255 24.3628 22.9396 23.6508 23.6511C22.9396 24.3631 22.2266 24.8015 21.3849 25.1285C20.5705 25.445 19.6393 25.6607 18.2766 25.7231C16.9113 25.7853 16.4764 25.8005 12.9998 25.8005C9.52376 25.8005 9.08775 25.7853 7.72241 25.7231C6.35999 25.6607 5.42958 25.445 4.61517 25.1285C3.77383 24.8015 3.05969 24.3631 2.34848 23.6511C1.63674 22.9396 1.19941 22.2255 0.872202 21.3836C0.555932 20.5697 0.340197 19.6396 0.277529 18.2769C0.215662 16.9116 0.200195 16.4766 0.200195 13.0003C0.200195 9.52403 0.216195 9.08749 0.277263 7.72214C0.338597 6.35999 0.554599 5.42958 0.871936 4.61544C1.19994 3.77383 1.63728 3.05969 2.34928 2.34822C3.06076 1.63648 3.7749 1.19914 4.61677 0.872202C5.43065 0.555666 6.36079 0.33993 7.72347 0.277529ZM12.5746 2.50649H12.5743C12.3156 2.50638 12.0759 2.50627 11.853 2.50662V2.50342C9.46735 2.50608 9.00975 2.52208 7.82893 2.57542C6.58092 2.63275 5.90331 2.84075 5.45211 3.01676C4.85477 3.24929 4.4281 3.52663 3.98009 3.97463C3.53209 4.42264 3.25422 4.84931 3.02222 5.44665C2.84702 5.89785 2.63848 6.57519 2.58141 7.82321C2.52008 9.17255 2.50781 9.57576 2.50781 12.9939C2.50781 16.4121 2.52008 16.8174 2.58141 18.1668C2.63821 19.4148 2.84702 20.0921 3.02222 20.5428C3.25475 21.1404 3.53209 21.566 3.98009 22.014C4.4281 22.462 4.85477 22.7394 5.45211 22.9714C5.90358 23.1466 6.58092 23.3551 7.82893 23.4127C9.17828 23.474 9.58335 23.4874 13.0013 23.4874C16.4189 23.4874 16.8242 23.474 18.1736 23.4127C19.4216 23.3556 20.0995 23.1476 20.5501 22.9716C21.1477 22.7396 21.5731 22.4623 22.0211 22.0143C22.4691 21.5665 22.747 21.1412 22.979 20.5439C23.1542 20.0932 23.3627 19.4159 23.4198 18.1678C23.4811 16.8185 23.4944 16.4132 23.4944 12.9971C23.4944 9.58109 23.4811 9.17575 23.4198 7.82641C23.363 6.57839 23.1542 5.90105 22.979 5.45038C22.7464 4.85304 22.4691 4.42637 22.0211 3.97837C21.5733 3.53036 21.1475 3.25303 20.5501 3.02102C20.0989 2.84582 19.4216 2.63729 18.1736 2.58022C16.824 2.51888 16.4189 2.50662 13.0013 2.50662L12.5746 2.50649ZM19.8339 4.63188C18.9859 4.63188 18.2979 5.31909 18.2979 6.16736C18.2979 7.01537 18.9859 7.70338 19.8339 7.70338C20.6819 7.70338 21.3699 7.01537 21.3699 6.16736C21.3699 5.31936 20.6819 4.63135 19.8339 4.63135V4.63188ZM13.0011 6.42676C9.37097 6.42676 6.42773 9.36999 6.42773 13.0002C6.42773 16.6303 9.37097 19.5722 13.0011 19.5722C16.6313 19.5722 19.5735 16.6303 19.5735 13.0002C19.5735 9.37008 16.6312 6.4269 13.0011 6.42676ZM13.0011 8.7334C15.3574 8.7334 17.2678 10.6436 17.2678 13.0001C17.2678 15.3564 15.3574 17.2668 13.0011 17.2668C10.6445 17.2668 8.73438 15.3564 8.73438 13.0001C8.73438 10.6436 10.6445 8.7334 13.0011 8.7334Z" fill="white"/>
</svg>
