<svg width="28" height="117" viewBox="0 0 28 117" fill="none" xmlns="http://www.w3.org/2000/svg">
<path d="M2.49003 21C6.35403 21 8.87403 21.168 14.726 21.168C19.738 21.168 26.654 20.552 26.654 15.512C26.654 11.956 23.294 10.444 18.814 10.332V9.968C22.426 9.828 25.366 8.54 25.366 5.236C25.366 1.54 21.754 -1.66893e-06 15.146 -1.66893e-06C9.82603 -1.66893e-06 6.27003 0.0839989 2.49003 0.0839989C2.82603 5.32 2.82603 15.764 2.49003 21ZM7.41803 9.268C7.39003 7.14 7.41803 5.152 7.47403 3.304C9.04203 3.276 11.814 3.276 15.174 3.276C18.45 3.276 20.298 4.032 20.298 6.244C20.298 8.316 18.618 9.324 15.174 9.324C12.458 9.324 9.79803 9.296 7.41803 9.268ZM7.41803 12.068C9.79803 12.04 12.458 12.04 15.174 12.04C20.018 12.04 21.278 13.272 21.278 14.756C21.278 16.408 20.018 17.892 14.978 17.892C11.45 17.892 9.74203 17.836 7.53003 17.78C7.47403 16.016 7.41803 13.972 7.41803 12.068ZM27.7238 53C24.3358 46.056 21.1438 39.084 18.2038 32.14C16.1878 32.504 12.2958 32.392 10.2798 32.14C7.33983 39.084 4.20383 46.056 0.815828 53H6.30383C6.86383 51.656 7.45183 50.144 8.09583 48.604C11.7358 48.52 16.7198 48.52 20.3318 48.632C20.9198 50.116 21.4518 51.6 21.9838 53H27.7238ZM9.27183 45.748C11.1198 41.268 12.9958 36.844 14.1438 34.716C15.9358 38.02 17.6438 41.884 19.1838 45.748C16.1878 45.832 12.2678 45.832 9.27183 45.748ZM15.178 85.308C22.766 85.308 26.574 83.32 26.574 79.176C26.574 74.668 21.842 73.688 14.646 73.128C8.93397 72.68 6.69397 72.092 6.69397 69.852C6.69397 67.976 8.51397 67.108 12.826 67.108C17.922 67.108 22.234 68.48 25.482 69.824C25.258 68.396 25.258 66.968 25.482 65.456C21.534 64.504 18.342 63.776 12.994 63.776C5.37797 63.776 1.65397 65.82 1.65397 69.992C1.65397 74.22 5.79797 75.312 12.658 75.928C18.902 76.46 21.534 76.74 21.534 79.204C21.534 81.052 19.798 81.976 15.626 81.976C10.502 81.976 4.50997 80.772 1.87797 78.252C2.10197 79.82 2.10197 81.36 1.87797 82.928C5.40597 84.244 10.054 85.308 15.178 85.308ZM3.14628 117H25.6023C25.4903 115.6 25.4903 114.116 25.6023 112.716C21.7103 113.444 13.5903 113.892 8.27028 113.836C8.15828 111.904 8.15828 109.944 8.15828 108.068C13.3663 107.956 19.8063 108.152 23.6143 108.376C23.5023 107.256 23.5023 105.996 23.6143 104.848C19.8343 105.1 13.3663 105.324 8.15828 105.24C8.13028 103.252 8.15828 101.264 8.21428 99.276C13.5063 99.22 21.6823 99.668 25.6023 100.424C25.4903 99.024 25.4903 97.596 25.6023 96.224C20.4783 96.616 6.56228 96.42 3.14628 96.14C3.48228 101.292 3.48228 111.68 3.14628 117Z" fill="#61D57B"/>
</svg>
