<svg width="248" height="247" viewBox="0 0 248 247" fill="none" xmlns="http://www.w3.org/2000/svg">
<path d="M130.555 12.3985L134.589 0L139.589 0.519855C140.502 0.61083 141.247 1.00072 141.808 1.66354C142.369 2.33935 142.617 3.05415 142.539 3.80794C142.395 5.0426 141.664 5.97834 140.346 6.64115C140.437 6.70613 140.542 6.8101 140.672 6.95306C140.803 7.09602 140.972 7.39494 141.168 7.84981C141.377 8.30469 141.442 8.77256 141.39 9.25342C141.273 10.3971 140.724 11.3458 139.745 12.0866C138.766 12.8274 137.631 13.1263 136.338 12.9964L130.555 12.3985ZM136.573 11.2939C137.252 11.3718 137.879 11.2029 138.44 10.8C139.001 10.3971 139.315 9.86425 139.393 9.18844C139.445 8.69458 139.341 8.2527 139.067 7.87581C138.792 7.49891 138.414 7.27797 137.918 7.22599L134.432 6.86209L133.101 10.93L136.573 11.2939ZM136.038 1.89747L134.941 5.26353L137.996 5.58844C138.584 5.65343 139.132 5.52346 139.628 5.21155C140.124 4.89964 140.398 4.45776 140.463 3.88592C140.502 3.48303 140.398 3.11913 140.15 2.79422C139.902 2.46931 139.563 2.27437 139.145 2.23538L136.038 1.89747Z" fill="#61D47B"/>
<path d="M142.317 13.5946L147.865 1.80664L149.824 2.26152L147.839 6.47242L150.385 7.07026C151.403 7.3042 152.199 7.86306 152.761 8.72083C153.322 9.57861 153.505 10.4624 153.296 11.3851C152.996 12.6848 152.278 13.6595 151.168 14.3094C150.059 14.9592 148.818 15.1282 147.474 14.8162L142.317 13.5946ZM148.009 13.0487C148.727 13.2177 149.393 13.1137 150.032 12.7368C150.672 12.3599 151.077 11.827 151.233 11.1122C151.351 10.6053 151.26 10.1245 150.972 9.65659C150.685 9.18871 150.267 8.90279 149.732 8.78582L147.017 8.14898L145.033 12.3599L148.009 13.0487ZM154.849 16.5188L152.891 16.0639L158.439 4.276L160.397 4.73088L154.849 16.5188Z" fill="#61D47B"/>
<path d="M171.702 9.09788C172.185 9.46178 172.564 9.82568 172.825 10.1766C173.099 10.5405 173.321 10.8784 173.491 11.1903C173.674 11.5152 173.791 11.7751 173.843 11.9701L173.922 12.269L172.107 12.8928C172.094 12.8408 172.068 12.7629 172.042 12.6589C172.016 12.5549 171.937 12.373 171.794 12.0871C171.663 11.8141 171.494 11.5412 171.298 11.2943C171.102 11.0473 170.828 10.7874 170.449 10.5015C170.084 10.2156 169.666 9.99463 169.196 9.81268C167.799 9.27983 166.363 9.34481 164.901 9.98163C163.439 10.6185 162.447 11.6582 161.899 13.0878C161.52 14.1015 161.546 15.0762 161.99 16.038C162.434 16.9997 163.191 17.6755 164.262 18.0784C164.732 18.2603 165.215 18.3643 165.698 18.3903C166.194 18.4293 166.624 18.4033 167.003 18.3383C167.382 18.2603 167.721 18.1824 168.034 18.0784C168.348 17.9744 168.583 17.8964 168.739 17.8055L168.987 17.6625L169.496 19.2611C169.431 19.3131 169.327 19.365 169.183 19.443C169.039 19.508 168.752 19.625 168.321 19.7679C167.891 19.9109 167.447 20.0279 167.003 20.0928C166.559 20.1708 166.011 20.1838 165.371 20.1318C164.732 20.0798 164.105 19.9499 163.491 19.7159C161.951 19.1441 160.841 18.1434 160.15 16.7138C159.458 15.2842 159.379 13.8806 159.901 12.4899C160.646 10.5145 162.016 9.11088 164.001 8.2921C165.985 7.46033 167.995 7.43434 170.032 8.18813C170.671 8.43506 171.206 8.73398 171.702 9.09788Z" fill="#61D47B"/>
<path d="M177.329 13.8015C179.366 13.2037 181.272 13.3726 183.034 14.2954C184.666 15.1532 185.736 16.3619 186.245 17.8954C186.754 19.429 186.624 20.9236 185.854 22.3663C184.927 24.1078 183.452 25.2515 181.428 25.8233C179.405 26.3822 177.512 26.2002 175.75 25.2775C174.118 24.4197 173.047 23.211 172.538 21.6774C172.029 20.1438 172.16 18.6492 172.93 17.2066C173.831 15.5301 175.293 14.3994 177.329 13.8015ZM178.034 15.5301C176.546 15.959 175.475 16.7907 174.823 18.0254C174.274 19.0651 174.157 20.1309 174.509 21.2226C174.849 22.3143 175.58 23.159 176.703 23.7439C177.943 24.3937 179.3 24.5107 180.762 24.0948C182.225 23.6659 183.295 22.8211 183.974 21.5475C184.522 20.5207 184.626 19.455 184.274 18.3633C183.922 17.2716 183.191 16.4398 182.068 15.842C180.867 15.2052 179.509 15.1012 178.034 15.5301Z" fill="#61D47B"/>
<path d="M189.73 25.6028L198.855 24.6151L201.061 26.1486L193.059 27.0193L191.806 35.2587L189.874 33.9072L190.944 27.2402L187.55 27.6301L184.691 30.3073L183.046 29.1636L192.602 20.2744L194.247 21.4181L189.73 25.6028Z" fill="#61D47B"/>
<path d="M201.714 29.4884C203.842 29.3844 205.643 29.9953 207.145 31.321C208.528 32.5427 209.285 33.9593 209.403 35.584C209.533 37.1956 209.037 38.6123 207.954 39.834C206.635 41.3026 204.938 42.0694 202.824 42.1474C200.722 42.2124 198.933 41.5886 197.445 40.2759C196.062 39.0542 195.304 37.6375 195.187 36.0129C195.056 34.4012 195.552 32.9846 196.636 31.7629C197.889 30.3462 199.586 29.5924 201.714 29.4884ZM201.975 31.334C200.435 31.3989 199.195 31.9448 198.255 32.9976C197.471 33.8814 197.106 34.8951 197.184 36.0389C197.263 37.1826 197.772 38.1704 198.712 39.0152C199.756 39.9509 201.048 40.3798 202.576 40.3149C204.103 40.2499 205.343 39.678 206.309 38.5993C207.092 37.7285 207.445 36.7147 207.366 35.584C207.288 34.4402 206.779 33.4525 205.826 32.6207C204.808 31.6979 203.516 31.269 201.975 31.334Z" fill="#61D47B"/>
<path d="M211.374 51.6867L209.756 52.6095L203.62 45.7345L214.99 39.2754L221.008 46.0074L219.377 46.9301L214.703 41.6927L211.701 43.3952L215.395 47.5669L213.763 48.4767L210.056 44.3309L206.57 46.3193L211.374 51.6867Z" fill="#61D47B"/>
<path d="M220.956 56.3915L229.82 58.7827L231.308 61.005L223.541 58.9127L219.351 66.1253L218.045 64.1759L221.491 58.3539L218.189 57.4831L214.547 58.9387L213.437 57.2752L225.59 52.4668L226.7 54.1303L220.956 56.3915Z" fill="#61D47B"/>
<path d="M234.924 68.1794L235.824 69.96L225.564 78.018L224.637 76.1985L227.352 74.093L224.794 69.0502L220.838 68.7123L219.872 66.8018L234.924 68.1794ZM226.948 69.2322L228.84 72.9752L233.135 69.726L226.948 69.2322Z" fill="#61D47B"/>
<path d="M235.368 78.5111C235.042 78.576 234.78 78.641 234.598 78.706C233.984 78.9399 233.579 79.3168 233.397 79.8237C233.214 80.3305 233.253 80.9283 233.527 81.6301C233.723 82.124 233.997 82.5788 234.376 82.9947C234.754 83.3976 235.068 83.6705 235.329 83.8134L235.733 84.0474L241.281 83.1636L241.999 85.0351L229.063 87.0624L228.345 85.191L233.606 84.3593C233.514 84.3073 233.384 84.2293 233.24 84.1123C233.096 83.9954 232.835 83.7225 232.483 83.2806C232.13 82.8387 231.843 82.3319 231.634 81.7861C231.204 80.6684 231.151 79.6807 231.465 78.823C231.778 77.9652 232.444 77.3284 233.462 76.9385C233.788 76.8086 234.193 76.7176 234.663 76.6396L238.54 76.0288L239.258 77.9002L235.368 78.5111Z" fill="#61D47B"/>
<path d="M234.232 98.7335L232.365 98.8245L230.042 89.9478L243.096 89.3369L245.38 98.0447L243.513 98.1227L241.738 91.3514L238.292 91.5074L239.702 96.875L237.835 96.953L236.425 91.5853L232.417 91.7803L234.232 98.7335Z" fill="#61D47B"/>
<path d="M246.895 108.598C246.816 109.196 246.686 109.703 246.503 110.106C246.32 110.509 246.124 110.872 245.942 111.184C245.746 111.496 245.576 111.73 245.419 111.873L245.197 112.081L243.761 110.807C243.801 110.768 243.866 110.703 243.944 110.639C244.023 110.574 244.153 110.405 244.323 110.145C244.506 109.885 244.649 109.625 244.767 109.326C244.884 109.04 244.989 108.663 245.054 108.208C245.119 107.753 245.119 107.272 245.041 106.779C244.819 105.297 244.062 104.088 242.795 103.126C241.529 102.165 240.132 101.801 238.605 102.035C237.535 102.191 236.686 102.698 236.059 103.555C235.433 104.413 235.211 105.401 235.381 106.532C235.459 107.025 235.603 107.493 235.811 107.935C236.02 108.377 236.255 108.741 236.503 109.04C236.751 109.326 236.999 109.586 237.234 109.807C237.469 110.028 237.665 110.184 237.809 110.288L238.057 110.444L236.908 111.665C236.83 111.626 236.725 111.574 236.595 111.483C236.464 111.392 236.229 111.197 235.89 110.898C235.55 110.6 235.237 110.262 234.95 109.911C234.663 109.56 234.389 109.092 234.114 108.507C233.84 107.922 233.657 107.311 233.566 106.675C233.318 105.063 233.657 103.607 234.558 102.308C235.472 101.008 236.66 100.254 238.148 100.033C240.237 99.7213 242.143 100.215 243.84 101.541C245.537 102.867 246.555 104.595 246.881 106.727C246.973 107.376 246.973 107.987 246.895 108.598Z" fill="#61D47B"/>
<path d="M247.9 124.285L246.06 123.986L245.903 120.165L234.833 118.319L234.742 116.318L245.812 118.163L245.655 114.342L247.496 114.641L247.9 124.285Z" fill="#61D47B"/>
<path d="M235.028 123.908L247.651 127.3L247.377 132.29C247.325 133.2 246.973 133.954 246.333 134.552C245.693 135.15 244.988 135.423 244.218 135.384C242.978 135.306 241.999 134.617 241.281 133.343C241.216 133.434 241.111 133.551 240.981 133.681C240.85 133.811 240.55 134.006 240.106 134.227C239.662 134.448 239.192 134.552 238.709 134.526C237.547 134.461 236.581 133.967 235.798 133.031C235.015 132.095 234.649 130.991 234.728 129.691L235.028 123.908ZM236.438 129.834C236.399 130.51 236.594 131.121 237.012 131.667C237.43 132.212 237.991 132.498 238.67 132.537C239.166 132.563 239.597 132.433 239.975 132.147C240.341 131.862 240.55 131.472 240.576 130.978L240.772 127.495L236.634 126.377L236.438 129.834ZM245.811 128.846L242.39 127.924L242.221 130.978C242.182 131.563 242.338 132.108 242.678 132.576C243.017 133.057 243.474 133.304 244.035 133.33C244.44 133.356 244.806 133.226 245.119 132.966C245.432 132.693 245.615 132.355 245.628 131.94L245.811 128.846Z" fill="#61D47B"/>
<path d="M244.466 140.205C245.667 141.96 246.085 143.805 245.733 145.768C245.406 147.587 244.584 148.965 243.265 149.913C241.947 150.862 240.485 151.187 238.866 150.901C236.921 150.55 235.368 149.51 234.219 147.756C233.057 146.014 232.652 144.156 233.005 142.22C233.331 140.4 234.154 139.022 235.472 138.074C236.791 137.125 238.253 136.8 239.871 137.086C241.738 137.411 243.279 138.451 244.466 140.205ZM243.03 141.388C242.169 140.114 241.046 139.347 239.676 139.1C238.514 138.893 237.456 139.113 236.516 139.776C235.577 140.439 234.989 141.388 234.767 142.622C234.519 144 234.819 145.313 235.668 146.573C236.516 147.834 237.652 148.588 239.075 148.848C240.224 149.056 241.268 148.822 242.208 148.172C243.148 147.509 243.722 146.56 243.944 145.313C244.205 143.974 243.892 142.674 243.03 141.388Z" fill="#61D47B"/>
<path d="M233.214 166.51L236.112 175.191L235.068 177.66L232.535 170.058L224.181 170.565L225.094 168.407L231.87 168.043L230.773 164.82L227.549 162.598L228.332 160.752L239.076 168.186L238.292 170.032L233.214 166.51Z" fill="#61D47B"/>
<path d="M225.903 180.13L229.533 187.291L228.462 189.202L223.227 178.753C222.601 177.492 222.222 176.426 222.118 175.569C222.013 174.711 222.209 173.853 222.692 172.982C222.796 172.788 222.927 172.606 223.071 172.437C223.214 172.268 223.345 172.151 223.436 172.086L223.567 171.969L224.911 173.125C224.689 173.268 224.467 173.554 224.219 173.97C223.932 174.49 223.802 174.958 223.828 175.374C223.854 175.79 224.011 176.284 224.272 176.855L224.807 177.934L233.71 179.819L232.731 181.573L225.903 180.13Z" fill="#61D47B"/>
<path d="M223.841 195.57C223.24 196.427 222.431 196.934 221.413 197.116C220.394 197.298 219.507 197.103 218.724 196.557C217.64 195.79 217.013 194.777 216.857 193.477C216.7 192.178 217.026 190.969 217.836 189.825L219.768 187.109L216.596 183.704L217.758 182.066L226.66 191.606L223.841 195.57ZM224.206 191.879L221.034 188.474L219.193 191.073C218.776 191.671 218.619 192.333 218.75 193.087C218.88 193.841 219.246 194.426 219.846 194.842C220.277 195.141 220.747 195.245 221.243 195.141C221.752 195.037 222.157 194.764 222.47 194.322L224.206 191.879Z" fill="#61D47B"/>
<path d="M213.528 207.825C213.019 208.15 212.536 208.371 212.105 208.488C211.675 208.605 211.27 208.696 210.904 208.748C210.539 208.8 210.252 208.813 210.043 208.787L209.743 208.748L209.808 206.824C209.873 206.824 209.951 206.837 210.056 206.85C210.16 206.863 210.369 206.85 210.682 206.824C210.996 206.798 211.296 206.733 211.596 206.643C211.896 206.552 212.249 206.383 212.641 206.136C213.032 205.889 213.398 205.59 213.737 205.213C214.729 204.095 215.199 202.744 215.121 201.158C215.043 199.572 214.429 198.273 213.28 197.259C212.471 196.544 211.531 196.219 210.474 196.284C209.416 196.349 208.502 196.817 207.745 197.675C207.419 198.052 207.145 198.455 206.936 198.897C206.727 199.338 206.583 199.754 206.531 200.131C206.466 200.508 206.427 200.859 206.401 201.184C206.388 201.509 206.388 201.756 206.401 201.938L206.44 202.224L204.756 202.12C204.73 202.042 204.717 201.925 204.704 201.769C204.691 201.613 204.691 201.314 204.704 200.846C204.717 200.391 204.769 199.936 204.86 199.507C204.952 199.066 205.134 198.559 205.409 197.974C205.683 197.389 206.035 196.856 206.466 196.375C207.563 195.154 208.894 194.478 210.487 194.348C212.066 194.218 213.424 194.647 214.546 195.635C216.126 197.038 216.962 198.806 217.027 200.963C217.092 203.107 216.4 204.992 214.964 206.604C214.507 207.097 214.037 207.5 213.528 207.825Z" fill="#61D47B"/>
<path d="M207.105 211.374C206.948 213.479 206.113 215.195 204.612 216.508C203.215 217.716 201.714 218.288 200.095 218.21C198.476 218.132 197.118 217.482 196.035 216.248C194.729 214.766 194.181 212.986 194.377 210.906C194.573 208.827 195.408 207.124 196.91 205.824C198.306 204.616 199.808 204.044 201.426 204.122C203.045 204.2 204.403 204.85 205.486 206.084C206.726 207.488 207.262 209.255 207.105 211.374ZM205.238 211.4C205.369 209.866 204.964 208.58 204.05 207.527C203.267 206.643 202.301 206.162 201.165 206.097C200.017 206.032 198.972 206.409 198.019 207.241C196.962 208.164 196.374 209.372 196.244 210.893C196.113 212.401 196.531 213.7 197.484 214.792C198.254 215.676 199.22 216.144 200.356 216.209C201.505 216.274 202.549 215.897 203.502 215.065C204.52 214.142 205.108 212.934 205.238 211.4Z" fill="#61D47B"/>
<path d="M190.67 211.23L195.631 223.265L191.48 226.072C190.723 226.592 189.913 226.774 189.052 226.618C188.19 226.462 187.537 226.085 187.107 225.448C186.415 224.422 186.362 223.226 186.95 221.887C186.832 221.887 186.689 221.887 186.493 221.862C186.297 221.836 185.984 221.719 185.527 221.498C185.07 221.277 184.718 220.978 184.443 220.575C183.791 219.626 183.595 218.547 183.856 217.365C184.117 216.182 184.783 215.22 185.866 214.493L190.67 211.23ZM186.806 215.948C186.245 216.325 185.879 216.858 185.697 217.521C185.527 218.184 185.631 218.794 186.023 219.366C186.31 219.782 186.676 220.042 187.12 220.159C187.576 220.276 188.007 220.198 188.412 219.912L191.31 217.95L189.678 213.999L186.806 215.948ZM193.294 222.758L191.95 219.496L189.417 221.212C188.921 221.55 188.595 221.991 188.425 222.55C188.255 223.109 188.321 223.616 188.647 224.097C188.869 224.435 189.195 224.643 189.6 224.734C190.005 224.825 190.383 224.747 190.723 224.513L193.294 222.758Z" fill="#61D47B"/>
<path d="M177.211 234.026L169.757 237.457L169.339 235.65L174.966 233.051L172.472 222.187L174.287 221.342L177.211 234.026Z" fill="#61D47B"/>
<path d="M164.822 239.134L162.93 239.81L156.167 228.685L158.086 227.996L159.849 230.946L165.188 229.049L166.01 225.176L168.034 224.448L164.822 239.134ZM164.757 231.128L160.802 232.545L163.504 237.185L164.757 231.128Z" fill="#61D47B"/>
<path d="M150.15 243.267C149.131 243.5 148.178 243.357 147.304 242.825C146.429 242.292 145.881 241.564 145.659 240.641C145.359 239.355 145.568 238.172 146.312 237.106C147.056 236.041 148.1 235.339 149.471 235.014L152.721 234.247L152.604 229.595L154.562 229.14L154.875 242.162L150.15 243.267ZM152.878 240.745L152.774 236.093L149.654 236.82C148.936 236.989 148.387 237.392 147.983 238.042C147.578 238.679 147.46 239.368 147.63 240.082C147.748 240.589 148.035 240.966 148.479 241.226C148.923 241.486 149.419 241.551 149.954 241.421L152.878 240.745Z" fill="#61D47B"/>
<path d="M139.014 245.099L137.03 245.359L132.827 233.064L134.85 232.804L135.934 236.054L141.547 235.339L143.192 231.739L145.319 231.466L139.014 245.099ZM140.672 237.275L136.508 237.808L138.14 242.916L140.672 237.275Z" fill="#61D47B"/>
<path d="M120.804 233.324L122.814 233.298L121.718 238.874L128.023 238.77L129.106 233.194L131.117 233.168L128.61 245.944L126.626 245.983L127.67 240.59L121.365 240.693L120.321 246.087L118.311 246.113L120.804 233.324Z" fill="#61D47B"/>
<path d="M105.543 244.84L106.092 243.06L109.917 243.423L113.259 232.767L115.256 232.949L111.914 243.605L115.739 243.969L115.191 245.75L105.543 244.84Z" fill="#61D47B"/>
<path d="M98.9903 230.491L95.2176 239.108L105.883 231.908L107.671 232.272L102.45 244.216L100.478 243.813L104.251 235.196L93.5858 242.409L91.7974 242.045L97.0191 230.102L98.9903 230.491Z" fill="#61D47B"/>
<path d="M82.9075 239.121C81.9154 238.796 81.1843 238.172 80.7144 237.262C80.2444 236.353 80.1661 235.443 80.4664 234.546C80.8841 233.286 81.6804 232.402 82.8814 231.869C84.0693 231.336 85.3356 231.297 86.6802 231.726L89.8654 232.766L92.2152 228.737L94.1211 229.361L87.5548 240.628L82.9075 239.121ZM86.5627 238.393L88.9125 234.364L85.8708 233.363C85.1789 233.13 84.4871 233.195 83.8082 233.532C83.1294 233.87 82.6725 234.39 82.4376 235.092C82.2809 235.586 82.3201 236.067 82.5681 236.509C82.8161 236.963 83.2078 237.275 83.7169 237.444L86.5627 238.393Z" fill="#61D47B"/>
<path d="M75.7277 234.157C73.7173 234.846 71.8114 234.781 70.0099 233.923C68.339 233.143 67.2163 231.986 66.6419 230.479C66.0675 228.971 66.1328 227.477 66.8247 225.995C67.6732 224.215 69.0831 223.006 71.0804 222.343C73.0777 221.68 74.9705 221.784 76.772 222.616C78.4429 223.396 79.5656 224.552 80.14 226.06C80.7144 227.568 80.6491 229.062 79.9572 230.544C79.1348 232.259 77.738 233.455 75.7277 234.157ZM74.9444 232.467C76.4065 231.973 77.4378 231.09 78.0252 229.829C78.5343 228.763 78.5865 227.698 78.1949 226.619C77.8033 225.54 77.0331 224.734 75.8843 224.202C74.618 223.604 73.2604 223.552 71.8114 224.046C70.3624 224.539 69.3441 225.436 68.7175 226.736C68.2215 227.789 68.1693 228.854 68.5609 229.92C68.9525 230.986 69.7358 231.792 70.8715 232.337C72.1377 232.909 73.4823 232.961 74.9444 232.467Z" fill="#61D47B"/>
<path d="M69.2787 219.094L60.1668 228.438L55.9112 225.774C55.141 225.293 54.6449 224.617 54.436 223.772C54.2272 222.928 54.3185 222.174 54.7363 221.524C55.4151 220.484 56.4855 219.964 57.9607 219.951C57.9084 219.847 57.8562 219.704 57.804 219.522C57.7518 219.341 57.7257 218.99 57.7518 218.496C57.7779 218.002 57.9084 217.547 58.1695 217.131C58.7831 216.156 59.6969 215.546 60.8979 215.312C62.0989 215.078 63.2476 215.312 64.3572 216L69.2787 219.094ZM59.7099 226.099L62.1772 223.564L59.5794 221.94C59.0703 221.628 58.535 221.498 57.9476 221.563C57.3602 221.628 56.9163 221.901 56.6161 222.382C56.3942 222.72 56.3289 223.097 56.4072 223.499C56.4855 223.902 56.7075 224.227 57.0599 224.448L59.7099 226.099ZM63.3912 217.456C62.8168 217.092 62.1772 216.962 61.4984 217.079C60.8195 217.196 60.2974 217.534 59.9319 218.106C59.6708 218.522 59.5663 218.964 59.6316 219.431C59.6969 219.886 59.9449 220.25 60.3757 220.523L63.339 222.382L66.3415 219.315L63.3912 217.456Z" fill="#61D47B"/>
<path d="M46.1339 218.613L44.5674 217.365L50.507 205.799L52.0997 207.072L50.507 210.114L54.9324 213.623L58.6659 212.284L60.3499 213.623L46.1339 218.613ZM52.9351 214.35L49.6455 211.738L47.0999 216.469L52.9351 214.35Z" fill="#61D47B"/>
<path d="M41.9567 197.364L43.3797 198.793L38.5757 201.86L43.0141 206.331L47.805 203.251L49.2149 204.681L38.1971 211.724L36.7873 210.295L41.4346 207.319L36.9961 202.848L32.3488 205.824L30.939 204.395L41.9567 197.364Z" fill="#61D47B"/>
<path d="M29.7642 199.651C27.6625 199.352 26.0046 198.403 24.7905 196.83C23.6679 195.362 23.1979 193.828 23.3807 192.23C23.5634 190.631 24.3075 189.319 25.6129 188.331C27.1795 187.135 29.0071 186.706 31.0827 187.031C33.1583 187.356 34.8032 188.305 36.0042 189.877C37.1268 191.346 37.5968 192.879 37.414 194.478C37.2313 196.077 36.4872 197.389 35.1817 198.377C33.6805 199.534 31.8659 199.949 29.7642 199.651ZM29.8556 197.792C31.3829 198.026 32.7014 197.714 33.811 196.869C34.7509 196.155 35.2992 195.232 35.4428 194.088C35.5864 192.944 35.2731 191.879 34.5029 190.878C33.6544 189.773 32.4664 189.098 30.9652 188.877C29.4509 188.656 28.1324 188.981 26.9836 189.851C26.0568 190.553 25.5216 191.476 25.378 192.607C25.2344 193.737 25.5477 194.803 26.3179 195.804C27.1534 196.908 28.3282 197.558 29.8556 197.792Z" fill="#61D47B"/>
<path d="M22.505 167.888L23.4057 169.681L17.8838 171.098L20.6904 176.725L26.1993 175.296L27.087 177.089L14.4375 180.338L13.5498 178.545L18.889 177.167L16.0823 171.54L10.7432 172.917L9.85547 171.124L22.505 167.888Z" fill="#61D47B"/>
<path d="M6.97094 163.092L6.30518 161.208L17.4927 154.541L18.1715 156.451L15.2082 158.193L17.088 163.508L20.9651 164.353L21.6831 166.367L6.97094 163.092ZM14.9993 163.066L13.6025 159.128L8.92908 161.793L14.9993 163.066Z" fill="#61D47B"/>
<path d="M13.8375 138.035L16.853 153.007L3.78569 152.877L3.39406 150.915L14.5947 151.032L13.6809 146.483L2.48026 146.366L2.08863 144.404L13.2892 144.533L12.3754 139.985L1.17483 139.868L0.783203 137.905L13.8375 138.035Z" fill="#61D47B"/>
<path d="M13.015 126.339L3.70739 124.896L13.3936 133.344L13.485 135.15L0.574384 133.149L0.469951 131.16L9.79064 132.603L0.0913793 124.155L0 122.349L12.9106 124.35L13.015 126.339Z" fill="#61D47B"/>
<path d="M1.08385 106.375L1.22745 104.491L13.7857 108.169L13.629 110.17L4.49102 107.48L9.85634 113.809L3.75998 116.746L12.898 119.424L12.7413 121.412L0.183105 117.747L0.300594 116.188L6.78858 113.081L1.08385 106.375Z" fill="#61D47B"/>
<path d="M16.0834 96.6151L7.48063 92.7682L14.5952 103.477L14.2036 105.245L2.27197 99.9161L2.70276 97.9667L11.3186 101.814L4.1779 91.0917L4.56952 89.3242L16.5011 94.6527L16.0834 96.6151Z" fill="#61D47B"/>
<path d="M18.7456 79.6941C18.4323 78.4594 17.8187 77.4586 16.8919 76.7048L14.5421 82.6833L12.9887 81.6566L15.2732 75.8211C14.3072 75.5091 13.3412 75.5741 12.3751 76.016C11.4091 76.4579 10.7173 77.1857 10.3256 78.1865C10.0385 78.9143 9.93402 79.6421 9.98624 80.3959C10.0385 81.1497 10.169 81.7086 10.3648 82.0985L10.6651 82.6833L9.04634 83.2032C9.00718 83.1512 8.95496 83.0472 8.87664 82.9173C8.79831 82.7873 8.69388 82.5144 8.56334 82.0985C8.4328 81.6826 8.31531 81.2667 8.26309 80.8248C8.21088 80.3829 8.19782 79.863 8.25004 79.2262C8.30225 78.6023 8.4589 77.9785 8.69388 77.3807C9.29437 75.86 10.3256 74.7683 11.7877 74.1055C13.2498 73.4427 14.6857 73.3907 16.1086 73.9365C18.0668 74.7033 19.4374 76.055 20.2337 78.0045C21.017 79.954 21.017 81.9295 20.2337 83.931C19.9988 84.5288 19.6855 85.0747 19.3069 85.5686C18.9283 86.0624 18.5498 86.4394 18.1712 86.7123C17.7926 86.9852 17.4402 87.2062 17.1007 87.3881C16.7613 87.5701 16.4872 87.687 16.2653 87.739L15.952 87.843L15.3254 86.0235C15.3776 86.0105 15.469 85.9845 15.5734 85.9585C15.6778 85.9325 15.8867 85.8545 16.1739 85.7245C16.4611 85.5946 16.7483 85.4386 17.0094 85.2437C17.2705 85.0487 17.5576 84.7758 17.8448 84.4119C18.132 84.048 18.367 83.6451 18.5498 83.1772C19.0067 82.0985 19.0589 80.9288 18.7456 79.6941Z" fill="#61D47B"/>
<path d="M18.929 69.7903L16.8011 60.9009L18.0543 58.5356L19.9211 66.3203L28.2758 66.5412L27.1793 68.6206L20.4041 68.3867L21.2135 71.6877L24.229 74.183L23.2891 75.9504L13.2373 67.6329L14.1772 65.8655L18.929 69.7903Z" fill="#61D47B"/>
<path d="M23.8891 50.2704C24.3591 49.8805 24.8029 49.6076 25.2076 49.4256C25.6253 49.2567 26.0039 49.1137 26.3564 49.0098C26.7088 48.9058 26.996 48.8538 27.2049 48.8538L27.5051 48.8408L27.7009 50.7512C27.6357 50.7512 27.5573 50.7512 27.4529 50.7512C27.3485 50.7512 27.1396 50.7902 26.8394 50.8552C26.5391 50.9202 26.2389 51.0242 25.9517 51.1541C25.6645 51.2841 25.3381 51.492 24.9857 51.7909C24.6201 52.0899 24.3068 52.4407 24.0196 52.8436C23.1842 54.0783 22.897 55.4818 23.1842 57.0414C23.4714 58.6009 24.2416 59.8096 25.5209 60.6673C26.4216 61.2651 27.3876 61.4731 28.4189 61.2651C29.4502 61.0572 30.2987 60.4854 30.9384 59.5366C31.2125 59.1208 31.4345 58.6789 31.5781 58.211C31.7216 57.7432 31.813 57.3143 31.8261 56.9374C31.8391 56.5605 31.8391 56.2096 31.813 55.8847C31.7869 55.5598 31.7608 55.3129 31.7086 55.1439L31.6303 54.871L33.3143 54.7411C33.3404 54.819 33.3795 54.936 33.4187 55.079C33.4579 55.2349 33.497 55.5338 33.5362 55.9887C33.5754 56.4436 33.5884 56.8984 33.5492 57.3403C33.5101 57.7822 33.4056 58.315 33.2098 58.9258C33.014 59.5366 32.7268 60.1085 32.3613 60.6543C31.4345 62.0059 30.2074 62.8507 28.6539 63.1886C27.1004 63.5265 25.7036 63.2795 24.4635 62.4478C22.7142 61.2651 21.6568 59.6146 21.3044 57.4962C20.9519 55.3779 21.3827 53.4285 22.6098 51.635C23.0014 51.1281 23.4191 50.6603 23.8891 50.2704Z" fill="#61D47B"/>
<path d="M42.9093 47.1895L41.5908 48.7101L34.8157 39.8207L30.6905 44.5773L37.4657 53.4667L36.1472 54.9743L28.2363 44.6033L34.9854 36.8315L42.9093 47.1895Z" fill="#61D47B"/>
<path d="M50.8205 37.1698L51.7865 38.7683L45.0113 45.0064L38.3145 33.8298L44.9591 27.7217L45.9121 29.3202L40.7426 34.0768L42.5179 37.0269L46.617 33.258L47.57 34.8695L43.4709 38.6384L45.5335 42.0693L50.8205 37.1698Z" fill="#61D47B"/>
<path d="M51.6553 22.7569C52.4908 22.1331 53.4176 21.8862 54.4359 22.0291C55.4541 22.1721 56.2504 22.627 56.8248 23.3808C57.6211 24.4335 57.8952 25.6032 57.6472 26.8768C57.3992 28.1505 56.7204 29.2162 55.5977 30.048L52.9216 32.0494L54.8928 36.2603L53.2871 37.456L47.7651 25.6552L51.6553 22.7569ZM50.1671 26.149L52.1383 30.3599L54.6969 28.4494C55.2844 28.0075 55.6238 27.4227 55.7413 26.6689C55.8588 25.9151 55.6891 25.2523 55.2322 24.6544C54.9189 24.2385 54.5011 24.0046 53.992 23.9526C53.4829 23.9006 52.9999 24.0306 52.5691 24.3555L50.1671 26.149Z" fill="#61D47B"/>
<path d="M65.5714 13.9448L66.185 15.6993L62.9084 17.6748L66.6027 28.2018L64.8926 29.2415L61.1983 18.7145L57.9217 20.6899L57.3081 18.9354L65.5714 13.9448Z" fill="#61D47B"/>
<path d="M70.6492 11.5666L72.4507 10.6958L80.3876 21.0281L78.547 21.9118L76.4714 19.1695L71.3803 21.6389L70.9756 25.5768L69.0566 26.5126L70.6492 11.5666ZM71.5891 19.5075L75.3748 17.6749L72.1766 13.3471L71.5891 19.5075Z" fill="#61D47B"/>
<path d="M91.2494 3.76874L93.0509 3.1709L94.513 16.1025L92.594 16.7393L91.5366 7.3168L87.7769 14.6859L82.6988 10.241L83.7562 19.6635L81.8503 20.2874L80.3882 7.35579L81.8764 6.86192L87.2678 11.6057L91.2494 3.76874Z" fill="#61D47B"/>
<path d="M106.053 13.7244L106.288 4.34098L99.1468 14.9981L97.3584 15.323L97.6586 2.33953L99.6298 1.97563L99.3949 11.3591L106.536 0.688982L108.324 0.351074L108.011 13.3605L106.053 13.7244Z" fill="#61D47B"/>
<path d="M112.462 12.6977C112.214 12.9967 111.914 13.1526 111.574 13.1916C111.261 13.2176 110.987 13.1396 110.765 12.9577C110.543 12.7627 110.412 12.5287 110.386 12.2298C110.347 11.9048 110.465 11.5929 110.713 11.3069C110.961 11.0209 111.261 10.852 111.6 10.813C111.901 10.787 112.175 10.865 112.397 11.0469C112.632 11.2419 112.749 11.4759 112.788 11.7618C112.814 12.0868 112.71 12.3987 112.462 12.6977Z" fill="#61D47B"/>
<path d="M133.792 162.444V133.566H163V112.322H133.792V83.4438H114.124V112.322H85V133.566H114.124V162.444H133.792Z" fill="#E5E5E5"/>
</svg>
