<svg width="86" height="28" viewBox="0 0 86 28" fill="none" xmlns="http://www.w3.org/2000/svg">
<path d="M32.6481 0.486007L21.3925 27.1453H14.0467L8.50445 5.8716C8.17 4.55977 7.87935 4.08167 6.85611 3.52849C5.17593 2.6276 2.42472 1.78598 0 1.26046L0.163241 0.470202H11.9882C12.758 0.474135 13.5012 0.749825 14.0848 1.24792C14.6684 1.74601 15.0543 2.43398 15.1734 3.18868L18.0998 18.6184L25.3541 0.486007H32.6481ZM61.4343 18.4406C61.4661 11.4073 51.6319 11.0201 51.6995 7.87489C51.7194 6.91868 52.6392 5.89925 54.6458 5.64242C56.9958 5.41714 59.3634 5.82672 61.498 6.8278L62.7203 1.18538C60.6409 0.411208 58.4394 0.009843 56.2185 0C49.3704 0 44.513 3.62332 44.4731 8.81135C44.4294 12.6441 47.9251 14.7896 50.5648 16.0698C53.2682 17.3738 54.176 18.2114 54.1482 19.381C54.1482 21.1709 51.9862 21.9572 49.9875 21.9888C46.4957 22.0442 44.4652 21.0524 42.8487 20.3056L41.6065 26.1456C43.2309 26.8884 46.229 27.5325 49.3345 27.5641C56.6366 27.5641 61.4104 23.9842 61.4343 18.4406ZM79.5739 27.1334H86L80.3901 0.486007H74.4537C73.8206 0.483321 73.201 0.667952 72.6741 1.01633C72.1472 1.3647 71.7368 1.86101 71.4955 2.44189L61.0719 27.1453H68.37L69.8193 23.1624H78.7338L79.5739 27.1334ZM71.818 17.7017L75.477 7.68918L77.5831 17.7017H71.818ZM42.6019 0.486007L36.8367 27.1453H29.885L35.6343 0.486007H42.6019Z" fill="white"/>
</svg>
