<svg width="26" height="19" viewBox="0 0 26 19" fill="none" xmlns="http://www.w3.org/2000/svg">
<path fill-rule="evenodd" clip-rule="evenodd" d="M23.0018 0.749524C24.1033 1.05179 24.9708 1.94241 25.2652 3.07341C25.8002 5.12323 25.8002 9.4002 25.8002 9.4002C25.8002 9.4002 25.8002 13.677 25.2652 15.727C24.9708 16.858 24.1033 17.7486 23.0018 18.051C21.0056 18.6002 13.0002 18.6002 13.0002 18.6002C13.0002 18.6002 4.99481 18.6002 2.99845 18.051C1.89692 17.7486 1.02943 16.858 0.735032 15.727C0.200195 13.677 0.200195 9.4002 0.200195 9.4002C0.200195 9.4002 0.200195 5.12323 0.735032 3.07341C1.02943 1.94241 1.89692 1.05179 2.99845 0.749524C4.99481 0.200195 13.0002 0.200195 13.0002 0.200195C13.0002 0.200195 21.0056 0.200195 23.0018 0.749524ZM10.6001 5.7998V13.7998L17.0001 9.79996L10.6001 5.7998Z" fill="white"/>
</svg>
